<svg width="104" height="87" viewBox="0 0 104 87" fill="none" xmlns="http://www.w3.org/2000/svg">
<g clip-path="url(#clip0_483_1835)">
<path d="M90.9448 16.1447C90.7965 15.5766 90.3519 15.1073 89.7591 14.9344L63.7495 7.32667L64.2188 5.67174C64.4905 4.75782 63.9718 3.8192 63.0579 3.5722C62.1687 3.30049 61.2054 3.8192 60.9337 4.73312L52.2885 34.6207C52.0415 35.5099 52.5602 36.4732 53.4741 36.7202C53.6223 36.7696 53.7705 36.7943 53.9434 36.7943C54.6845 36.7943 55.3514 36.3003 55.5737 35.5593L57.8461 27.6799L83.831 35.2382C84.0039 35.2876 84.1521 35.3123 84.325 35.3123C84.7202 35.3123 85.1401 35.1641 85.4365 34.8924C85.8812 34.4972 86.1035 33.9044 86.0047 33.3363L84.4732 23.7278L90.4754 17.7997C90.9201 17.3551 91.093 16.7375 90.9448 16.1447ZM81.4351 21.9246C81.0399 22.3199 80.867 22.8633 80.9658 23.4067L82.2008 31.212L60.3162 24.8146L64.3176 11.0811L86.0294 17.4045L81.4351 21.9246Z" fill="#EF6402"/>
<path d="M86.4495 38.7678L75.4825 35.5814C75.5566 35.7296 75.6307 35.9025 75.7048 36.0507C78.6442 42.6705 78.8418 50.0065 76.2482 56.7744C73.6547 63.5177 68.5911 68.853 61.996 71.7923C55.3763 74.7317 48.0156 74.9046 41.2723 72.3357C27.366 66.9757 20.3757 51.2909 25.711 37.3599C30.083 25.9729 41.3711 19.2297 52.9557 20.0695L55.5986 10.9551C49.053 10.0905 42.3592 11.0292 36.184 13.7956C31.738 15.7717 27.8106 18.5628 24.5501 21.9962C21.3144 25.4048 18.7455 29.4804 16.9918 34.0253C9.80393 52.7483 19.1901 73.8672 37.9378 81.055C42.1616 82.6852 46.5829 83.5003 51.0043 83.5003C56.0185 83.5003 61.0574 82.4382 65.7752 80.3387C74.6674 76.3619 81.4847 69.1988 84.9675 60.109C87.6104 53.2176 88.1044 45.8074 86.4495 38.7678Z" fill="white"/>
<path d="M102.603 65.0725C100.553 70.3831 94.0567 72.0874 86.5972 72.0874C83.806 72.0874 80.8914 71.8404 78.0014 71.4699C76.2477 71.2476 74.5187 70.9512 72.8637 70.6548C70.7642 70.2596 68.6152 69.815 66.4169 69.2963C59.5502 67.666 52.2635 65.3936 45.0263 62.6024C37.789 59.836 30.8729 56.6496 24.6484 53.2657C22.6724 52.1788 20.7457 51.0673 18.9179 49.9558C17.4853 49.0666 16.0032 48.1033 14.5706 47.1152C5.80194 41.0389 -2.22572 33.1842 0.565434 25.8975C3.52949 18.191 15.9785 18.1416 26.8714 19.7718C26.0563 20.4634 25.2906 21.2291 24.5496 21.9949C22.9441 23.6992 21.4867 25.5764 20.227 27.5772C11.9277 26.935 8.88949 28.3923 8.49429 28.9851C8.42018 29.5532 9.72931 32.6408 15.8797 37.4821C17.8558 39.0382 20.3258 40.7919 23.3887 42.6939C23.6604 42.8668 23.9074 43.015 24.1791 43.1632C31.0952 47.3375 39.3452 51.2896 48.0644 54.6489C56.8331 58.0328 65.6018 60.577 73.4812 62.1084C73.8023 62.1578 74.0987 62.2319 74.3952 62.2813C77.9767 62.9235 80.9655 63.2941 83.4849 63.467C91.2903 63.961 94.3284 62.5283 94.6743 61.9849C94.7237 61.3921 93.3898 58.2058 86.8689 53.1422C87.4617 49.7582 87.5605 46.3001 87.1653 42.9162C96.3539 48.9925 105.567 57.3412 102.603 65.0725Z" fill="#EF6402"/>
</g>
<defs>
<clipPath id="clip0_483_1835">
<rect width="103.17" height="87" fill="white"/>
</clipPath>
</defs>
</svg>
