<svg width="104" height="87" viewBox="0 0 104 87" fill="none" xmlns="http://www.w3.org/2000/svg">
<path d="M96.2655 31.5456C93.9528 33.8584 90.2065 33.8584 87.8938 31.5456C85.562 29.2329 85.562 25.4867 87.8938 23.174C90.2065 20.8613 93.9528 20.8613 96.2655 23.174C98.5782 25.4867 98.5782 29.2329 96.2655 31.5456Z" fill="#EF6402"/>
<path d="M79.4075 10.7507C79.2164 9.75677 78.4136 8.97312 77.4197 8.78199C62.8362 6.02966 47.8705 10.636 37.3964 21.1292C37.0141 21.5115 36.6318 21.9129 36.2496 22.3142C26.2724 21.263 16.2188 24.7799 9.05125 31.9474C7.84711 33.1515 7.67509 35.0055 8.63076 36.4199C9.31884 37.4329 10.4274 37.9872 11.5551 37.9872C12.0329 37.9872 12.5108 37.9107 12.9504 37.7005C17.5567 35.77 22.6791 35.0628 27.6485 35.6936C26.9031 37.5094 26.2724 39.3825 25.7563 41.2938C25.4696 42.4215 25.9857 43.6065 27.0178 44.1417C30.6302 46.0148 33.9368 48.4422 36.8421 51.3474C39.7282 54.2335 42.1556 57.5401 44.0287 61.1526C44.4683 61.9936 45.3284 62.4905 46.2458 62.4905C46.4561 62.4905 46.6663 62.4714 46.8766 62.414C48.7879 61.898 50.661 61.2672 52.4768 60.5218C53.1075 65.4913 52.4194 70.6137 50.4699 75.22C49.82 76.8064 50.3361 78.5839 51.7696 79.5396C52.3812 79.9601 53.0693 80.1703 53.7383 80.1703C54.6557 80.1703 55.5732 79.7881 56.2995 79.0809C63.4096 71.9707 66.9456 61.898 65.8753 51.9208C66.2766 51.5386 66.678 51.1563 67.0603 50.774C77.5344 40.2999 82.1407 25.3341 79.4075 10.7507ZM47.45 57.0623C45.5004 53.6984 43.1304 50.602 40.3398 47.8306C37.5684 45.0591 34.472 42.67 31.1081 40.7204C32.0446 37.7769 33.3252 34.9482 34.9116 32.2914C39.537 34.3174 43.7229 37.1844 47.3544 40.816C50.9859 44.4475 53.8529 48.6333 55.879 53.2588C53.2222 54.8452 50.3934 56.1258 47.45 57.0623ZM63.5434 47.2763C61.9379 48.8818 60.1986 50.3535 58.3446 51.6341C56.1848 46.8367 53.184 42.5171 49.4187 38.7517C45.6533 34.9864 41.3337 31.9856 36.5363 29.8258C37.836 27.9718 39.3077 26.2325 40.9132 24.627C49.82 15.7201 62.3584 11.5916 74.8012 13.3692C76.5978 25.7929 72.4502 38.3503 63.5434 47.2763Z" fill="white"/>
<path d="M39.7855 67.8967C37.6066 73.3822 33.1149 77.7974 28.0499 80.0336C26.54 78.1223 25.6607 75.6949 25.5078 72.9808C20.653 76.4977 15.1484 78.1796 10.1789 77.8547C9.854 72.8661 11.5169 67.3615 15.0337 62.5067C12.3387 62.3538 9.91134 61.4746 8 59.9837C10.2171 54.8996 14.6323 50.4079 20.137 48.229C23.0613 47.0631 25.9092 46.7191 28.4895 47.044C28.3366 47.9997 28.2793 48.9744 28.3175 49.911C26.1386 50.924 24.3801 52.7016 23.348 54.7276C23.2333 54.9187 23.1378 55.1098 23.0613 55.301C23.9788 56.0273 25.1447 56.4669 26.4444 56.5242C25.6034 57.671 24.9918 58.8943 24.6095 60.1175C24.189 61.3981 24.017 62.6978 24.0934 63.9211C25.3167 63.9975 26.5973 63.8255 27.8779 63.4241C29.1203 63.0228 30.3626 62.4111 31.5094 61.5701C31.5668 62.8699 31.9873 64.0358 32.7136 64.9723C32.9047 64.8959 33.0958 64.8003 33.287 64.6856C35.313 63.6535 37.0905 61.876 38.1035 59.7161C39.0592 59.7544 40.0149 59.697 40.9705 59.5441C41.3146 62.1053 40.9514 64.9723 39.7855 67.8967Z" fill="#EF6402"/>
<path d="M63.7347 31.93C61.4219 34.2427 57.6757 34.2427 55.363 31.93C53.0503 29.6173 53.0503 25.8519 55.363 23.5392C57.6757 21.2265 61.4219 21.2265 63.7347 23.5392C66.0474 25.8519 66.0474 29.6173 63.7347 31.93Z" fill="white"/>
</svg>
