<svg width="133" height="47" viewBox="0 0 133 47" fill="none" xmlns="http://www.w3.org/2000/svg">
<g clip-path="url(#clip0_72_2854)">
<path d="M18.3193 0.896484V12.8467C18.3193 18.5104 14.7025 22.0689 9.11555 22.0689C3.38228 22.0692 0.0296857 18.7184 0.000488281 12.8765H4.70528C4.76404 16.0198 6.35202 17.7397 9.11592 17.7397C11.8506 17.7397 13.4973 15.9605 13.4973 12.7875V5.10748H7.49874V0.896484H18.3193Z" fill="white"/>
<path d="M21.2896 11.2754C21.2896 4.69227 25.6706 0.392578 32.3747 0.392578C39.0788 0.392578 43.4602 4.69227 43.4602 11.2754C43.4602 17.8586 39.0788 22.1583 32.3747 22.1583C25.6706 22.1583 21.2896 17.8586 21.2896 11.2754ZM38.6379 11.2754C38.6379 7.33164 36.1383 4.72209 32.3747 4.72209C28.6112 4.72209 26.1411 7.33164 26.1411 11.2754C26.1411 15.2192 28.6112 17.8288 32.3747 17.8288C36.1383 17.8288 38.6379 15.2192 38.6379 11.2754Z" fill="white"/>
<path d="M46.7549 0.896484H51.5772V23.5352L46.7549 20.9286V0.896484Z" fill="white"/>
<path d="M74.4533 0.896484V21.6537H70.1309L60.8097 8.81386L60.8688 14.4183V21.6537H56.0757V0.896484H60.3984L69.7193 13.7956L69.6605 8.25036V0.896484H74.4533Z" fill="white"/>
<path d="M0.353516 44.0644L2.85281 40.5357C4.64663 41.959 6.82256 42.7003 9.23354 42.7003C11.6741 42.7003 13.2029 41.8107 13.2029 40.3874C13.2029 39.0532 11.9091 38.3414 9.02806 38.0153C3.41158 37.3925 0.912646 35.465 0.912646 31.699C0.912646 27.8737 4.32363 25.2939 9.35142 25.2939C12.2332 25.2939 15.0559 26.1537 17.1438 27.6661L14.8796 31.0762C13.3208 29.979 11.4686 29.3861 9.55726 29.3861C7.17585 29.3861 5.61744 30.2458 5.61744 31.5804C5.61744 32.8852 6.73461 33.5374 9.64559 33.8933C15.2325 34.5455 17.9376 36.6807 17.9376 40.4172C17.9376 44.361 14.4387 47.0004 9.26346 47.0004C5.91087 47.0004 2.64734 45.933 0.353881 44.0647L0.353516 44.0644Z" fill="white"/>
<path d="M35.4038 38.2519V46.5251H30.7877V38.5187C30.7877 36.621 29.8176 35.494 28.1709 35.494C26.3475 35.494 25.142 36.8282 25.142 38.815V46.5248H20.5259V25.7676H25.142V33.4774C26.2296 32.2318 27.7004 31.5498 29.5822 31.5498C33.1691 31.5498 35.4038 34.1299 35.4038 38.2519Z" fill="white"/>
<path d="M38.3154 27.9028C38.3154 26.4203 39.433 25.3525 41.0206 25.3525C42.6082 25.3525 43.7257 26.4199 43.7257 27.9028C43.7257 29.3858 42.6082 30.4233 41.0206 30.4233C39.433 30.4233 38.3154 29.3854 38.3154 27.9028ZM38.6975 31.8764H43.314V46.5253H38.6975V31.8764Z" fill="white"/>
<path d="M62.8687 39.2009C62.8687 43.7082 59.9869 46.822 55.9 46.822C53.9299 46.822 52.2831 46.1102 51.0777 44.776L50.7831 46.5254H46.7842V23.2241L51.4007 25.7678V33.27C52.5769 32.1728 54.1058 31.5799 55.8996 31.5799C59.9865 31.5799 62.8687 34.6933 62.8687 39.2009ZM58.2817 39.2009C58.2817 37.0066 56.8704 35.4942 54.812 35.4942C52.7828 35.4942 51.3715 37.0066 51.3715 39.2009C51.3715 41.3953 52.7828 42.9077 54.812 42.9077C56.8704 42.9077 58.2817 41.3953 58.2817 39.2009Z" fill="white"/>
<path d="M80.7174 31.8767V46.5256H76.7184L76.4239 44.7762C75.2184 46.1104 73.5721 46.8222 71.6016 46.8222C67.5147 46.8222 64.6621 43.7088 64.6621 39.2012C64.6621 34.6935 67.5143 31.5801 71.6016 31.5801C73.5717 31.5801 75.2476 32.2919 76.4239 33.5967L76.7184 31.8767H80.7174ZM76.1597 39.2012C76.1597 37.0068 74.7483 35.4944 72.6899 35.4944C70.6607 35.4944 69.2494 37.0068 69.2494 39.2012C69.2494 41.3955 70.6607 42.9079 72.6899 42.9079C74.7483 42.9079 76.1597 41.3955 76.1597 39.2012Z" fill="white"/>
<path d="M91.5679 25.7681H96.3902V46.5253H91.5679V25.7681Z" fill="white"/>
<path d="M115.121 38.2518V46.5251H110.504V38.5187C110.504 36.621 109.505 35.494 107.858 35.494C106.064 35.494 104.859 36.858 104.859 38.815V46.5248H100.243V31.8759H104.242L104.535 33.5959C105.623 32.2911 107.27 31.5498 109.211 31.5498C112.798 31.5498 115.121 34.0408 115.121 38.2515L115.121 38.2518Z" fill="white"/>
<path d="M133 31.8765V46.5253H129.001L128.706 44.8352C127.619 46.1101 126.001 46.8518 124.09 46.8518C120.533 46.8518 118.239 44.3607 118.239 40.1501V31.8768H122.855V39.8833C122.855 41.781 123.855 42.908 125.443 42.908C127.207 42.908 128.383 41.544 128.383 39.5572V31.8768L133 31.8765Z" fill="white"/>
<path d="M41.3896 14.0533C40.583 13.7787 37.7564 13.0411 35.8147 15.3047C35.4082 13.679 33.9352 12.5571 32.2731 12.6083H32.268C30.6048 12.5546 29.1293 13.6768 28.7227 15.304C26.8099 13.0772 24.0442 13.7566 23.1872 14.0386H23.1836C23.2267 14.771 23.4741 15.4766 23.8971 16.0736C26.3683 19.5433 29.8647 20.8135 32.237 20.8463V20.8492C32.2461 20.8492 32.257 20.8477 32.2676 20.8477H32.2888C32.3067 20.8477 32.3246 20.8492 32.3424 20.8492V20.8463C34.7147 20.8142 38.2104 19.5448 40.6809 16.0736C41.1017 15.4803 41.3484 14.7799 41.3929 14.0518L41.3896 14.0533Z" fill="white"/>
<path d="M32.3116 0C38.6773 0 43.838 5.20439 43.838 11.6241C43.838 18.0439 38.6773 23.2482 32.3116 23.2482C25.9458 23.2482 20.7852 18.0439 20.7852 11.6241C20.7852 5.20439 25.9458 0 32.3116 0Z" fill="#CF0020"/>
<path d="M25.5416 6.03803C26.1408 5.34497 26.8664 4.77447 27.6792 4.35819C26.1635 2.57493 24.9452 1.69343 24.4127 1.48584C23.9478 2.91907 24.4872 5.17676 24.9945 6.74544C25.1635 6.49958 25.3459 6.26328 25.5416 6.03803Z" fill="#EB5D02"/>
<path d="M39.0359 6.03803C39.2009 6.22684 39.3582 6.4267 39.5074 6.63686C40.0031 5.07334 40.5078 2.88558 40.0534 1.48584C39.5261 1.69195 38.3213 2.56279 36.8213 4.31918C37.6651 4.7384 38.418 5.32251 39.0359 6.03803Z" fill="#EB5D02"/>
<path d="M41.3593 13.1679C41.0754 11.2371 40.6407 9.55982 39.9728 8.17664C40.5254 6.85199 40.9042 5.46035 41.0998 4.03668C41.2327 2.90011 41.1863 1.73409 40.7517 0.778233C40.652 0.563653 40.4195 0.445874 40.1896 0.493354C39.8002 0.569542 39.1319 0.81688 38.202 1.56404C37.2535 2.35759 36.3987 3.25823 35.6542 4.24869C34.5819 3.91301 33.4644 3.74702 32.3414 3.75659V3.75512C32.3235 3.75512 32.3071 3.75659 32.2895 3.75659C32.272 3.75659 32.2538 3.75512 32.2377 3.75512V3.75659C31.0833 3.74518 29.9344 3.92148 28.8355 4.27813C28.0833 3.2748 27.2187 2.36237 26.2588 1.55889C25.3318 0.817616 24.6654 0.569911 24.277 0.49409C24.0467 0.44661 23.8146 0.56439 23.715 0.77897C23.2818 1.73004 23.2351 2.89091 23.3639 4.02196C23.5664 5.49531 23.9643 6.93443 24.5471 8.30068C23.9135 9.66066 23.4953 11.2949 23.2197 13.1683C23.1778 13.4569 23.1675 13.7491 23.1894 14.0395C24.0449 13.7576 26.8125 13.0785 28.7242 15.3049C29.1307 13.6777 30.6059 12.5555 32.2691 12.6085H32.272C32.8644 12.5978 33.4512 12.7263 33.9863 12.9835C34.8918 13.4646 35.5553 14.3071 35.8148 15.3056C37.7582 13.0432 40.5841 13.78 41.3907 14.0542C41.4137 13.7587 41.4031 13.4616 41.359 13.1683M25.5413 6.0371C25.346 6.26272 25.1635 6.49902 24.9942 6.74488C24.4869 5.1751 23.9478 2.91814 24.4128 1.48565C24.9464 1.69287 26.1639 2.57401 27.6793 4.35837C26.8665 4.77465 26.1406 5.34477 25.5413 6.0371ZM39.0363 6.0371C38.4177 5.32306 37.6648 4.73931 36.8217 4.31972C38.3217 2.56444 39.5261 1.69323 40.0539 1.48749C40.5079 2.88723 40.0031 5.07498 39.5079 6.63777C39.3575 6.42651 39.2009 6.22739 39.0367 6.0382V6.03747L39.0363 6.0371Z" fill="#FD9236"/>
<path d="M34.836 17.443C34.7433 17.6281 34.6922 17.832 34.6864 18.0396C34.6791 18.1033 34.6243 18.1504 34.5608 18.1482H34.4298L34.1265 18.9561C34.1188 18.9785 34.0977 18.9932 34.0743 18.9936C34.0597 18.9936 34.0459 18.9873 34.036 18.977C33.9769 18.909 33.924 18.835 33.878 18.7569C33.8681 18.7407 33.863 18.722 33.863 18.7028V17.7845C33.3451 17.8559 32.8229 17.8913 32.2999 17.8898H32.2685C31.7477 17.8898 31.2276 17.8526 30.7119 17.779V18.701C30.7119 18.7201 30.7068 18.7389 30.6969 18.7551C30.6513 18.8331 30.5984 18.9067 30.5393 18.9752C30.5174 18.9973 30.4819 18.9969 30.4604 18.9752C30.4546 18.9693 30.4502 18.9623 30.4476 18.9546L30.1444 18.1467H30.0141C29.9506 18.1496 29.8954 18.1022 29.8885 18.0381C29.8823 17.8305 29.8312 17.627 29.7389 17.4415C29.7225 17.4014 29.7411 17.3557 29.7808 17.3388C29.7889 17.3355 29.7973 17.3333 29.806 17.3329C30.0542 17.3274 30.5834 17.3164 30.6918 17.323H31.6298C31.7185 17.1769 31.8546 17.0657 32.0152 17.009V16.3745C30.9002 16.2313 30.7604 15.2051 30.7823 14.5975C30.7907 14.3461 30.9951 14.1466 31.2444 14.147H33.3316C33.5809 14.147 33.7856 14.3465 33.7937 14.5975C33.8141 15.2059 33.6754 16.2309 32.5608 16.3745V17.009C32.7214 17.0657 32.8575 17.1769 32.9462 17.323H33.8842C33.9918 17.316 34.5229 17.327 34.77 17.3329C34.8127 17.3351 34.8455 17.3723 34.8433 17.4154C34.8429 17.4249 34.8404 17.4345 34.8364 17.4433" fill="#202740"/>
<path d="M41.3896 14.0532C40.5831 13.7793 37.7567 13.0421 35.8137 15.3046C35.5542 14.306 34.8903 13.4635 33.9844 12.9828C33.4494 12.7256 32.8625 12.5971 32.2702 12.6078H32.268C30.6045 12.5544 29.1289 13.677 28.7223 15.3046C26.8106 13.0778 24.0438 13.7572 23.1876 14.0392C23.1861 14.0392 23.1847 14.0406 23.1836 14.0406C23.2267 14.7731 23.4737 15.4779 23.8967 16.0749C26.3679 19.5446 29.8632 20.8145 32.237 20.8476V20.849H32.2676V20.7949H32.2706V20.849C32.2771 20.849 32.2833 20.849 32.2899 20.8476C32.3063 20.849 32.3242 20.849 32.3417 20.849V20.8476C33.0932 20.8303 33.8395 20.7147 34.5618 20.5042C37.0407 19.771 39.1987 18.2089 40.6805 16.0753C41.1006 15.4823 41.3477 14.7823 41.3936 14.055C41.3925 14.0539 41.3911 14.0535 41.3896 14.0539M33.3961 18.4128C33.399 18.5483 33.3118 18.6687 33.1833 18.7077C33.1618 18.7125 33.1395 18.7154 33.1176 18.7161C32.9545 18.7161 32.9384 18.5016 32.7625 18.5016C32.5866 18.5016 32.5446 19.0282 32.2921 19.0452V19.0467C32.2921 19.0467 32.2881 19.0452 32.2866 19.0452C32.2852 19.0452 32.2826 19.0467 32.2811 19.0467V19.0452C32.2775 19.0452 32.2738 19.0441 32.2706 19.0422H32.2676C32.0264 19.0076 31.9782 18.5016 31.8111 18.5016C31.637 18.5016 31.6202 18.7161 31.4559 18.7161C31.4337 18.7154 31.4118 18.7128 31.3903 18.7077C31.2618 18.669 31.1746 18.5483 31.1775 18.4128V18.2564H33.3961V18.4128ZM34.8359 17.4434C34.7432 17.6285 34.6921 17.8324 34.6863 18.04C34.679 18.1037 34.6242 18.1508 34.5607 18.1486H34.429L34.1257 18.9565C34.1177 18.9786 34.0969 18.9936 34.0735 18.9936C34.0589 18.9936 34.045 18.9878 34.0352 18.9771C33.976 18.909 33.9231 18.835 33.8771 18.757C33.8673 18.7408 33.8622 18.722 33.8622 18.7029V17.7846C33.3443 17.8567 32.8217 17.892 32.299 17.8909H32.2673C31.7465 17.8909 31.2264 17.8538 30.7107 17.7802V18.7021C30.7107 18.7213 30.7056 18.7401 30.6957 18.7562C30.6501 18.8343 30.5972 18.9079 30.5381 18.9764C30.5162 18.9984 30.4808 18.9981 30.4592 18.9764C30.4534 18.9705 30.449 18.9635 30.4464 18.9557L30.1432 18.1478H30.0129C29.9494 18.1508 29.8942 18.1033 29.8873 18.0393C29.8811 17.8317 29.83 17.6281 29.7377 17.4426C29.7213 17.4029 29.7395 17.3569 29.7793 17.3403C29.7873 17.337 29.7961 17.3348 29.8048 17.3344C30.053 17.3289 30.5822 17.3175 30.6906 17.3245H31.6286C31.7173 17.1784 31.8534 17.0672 32.014 17.0105V16.376C30.899 16.2328 30.7592 15.2067 30.7811 14.599C30.7895 14.3476 30.9939 14.1481 31.2432 14.1485H33.3304C33.5797 14.1485 33.7844 14.348 33.7925 14.599C33.8129 15.2074 33.6742 16.2325 32.5596 16.376V17.0105C32.7202 17.0672 32.8563 17.1784 32.945 17.3245H33.883C33.9906 17.3175 34.5206 17.3285 34.7688 17.3344C34.8115 17.337 34.8443 17.3738 34.8417 17.4169C34.8414 17.4257 34.8392 17.4345 34.8359 17.4426H34.8352L34.8359 17.4434Z" fill="white"/>
<path d="M33.396 18.2563V18.4128C33.3985 18.5482 33.3113 18.6689 33.1824 18.7076C33.1609 18.7124 33.1387 18.7153 33.1168 18.7161C32.9536 18.7161 32.9376 18.5015 32.7616 18.5015C32.5857 18.5015 32.5434 19.0282 32.2912 19.0451V19.0466C32.2912 19.0466 32.2872 19.0451 32.2857 19.0451C32.2843 19.0451 32.2817 19.0466 32.2802 19.0466V19.0451C32.2766 19.0451 32.2726 19.0436 32.2693 19.0422H32.2675C32.0262 19.0076 31.9781 18.5015 31.8109 18.5015C31.6368 18.5015 31.62 18.7161 31.4558 18.7161C31.4335 18.7153 31.4116 18.7127 31.3901 18.7076C31.2616 18.6689 31.1744 18.5482 31.1773 18.4131V18.2567L33.396 18.2563Z" fill="#202740"/>
<path d="M37.6971 10.7052L37.5971 9.89809C37.5971 9.76227 37.488 9.65222 37.3533 9.65186C37.3234 9.65186 37.2938 9.65738 37.2661 9.66805C36.4022 9.99599 33.965 11.1208 34.2409 11.8536C34.4858 12.3545 36.4858 11.815 37.4778 11.1274C37.6252 11.0409 37.7103 10.8768 37.6971 10.7052Z" fill="#202740"/>
<path d="M26.9248 10.7055L27.0248 9.89833C27.0248 9.76252 27.1347 9.65246 27.2693 9.65283C27.2985 9.65283 27.3277 9.65835 27.3551 9.66866C28.219 9.9966 30.6566 11.1214 30.3803 11.8542C30.1354 12.3551 28.1354 11.8156 27.1434 11.128C27.0062 11.032 26.9244 10.8744 26.9252 10.7059" fill="#202740"/>
<path d="M30.2034 9.4118C29.7169 9.37241 28.6961 9.26862 28.3779 9.0684C27.9541 8.80265 28.1301 7.57075 29.6575 7.74301C30.8213 7.87404 30.9629 8.67641 30.7498 9.13354C30.6385 9.32714 30.4239 9.43609 30.2034 9.41106" fill="white"/>
<path d="M34.4205 9.4118C34.907 9.37241 35.9274 9.26862 36.246 9.0684C36.6701 8.80265 36.4938 7.57075 34.9668 7.74301C33.8029 7.87404 33.6613 8.67641 33.8745 9.13354C33.9858 9.32714 34.2 9.43609 34.4205 9.41106" fill="white"/>
</g>
<defs>
<clipPath id="clip0_72_2854">
<rect width="133" height="47" fill="white"/>
</clipPath>
</defs>
</svg>
