<svg width="400" height="89" viewBox="0 0 400 89" fill="none" xmlns="http://www.w3.org/2000/svg">
<path d="M181.552 33.4572C185.65 33.4572 188.972 30.1351 188.972 26.0372C188.972 21.9392 185.65 18.6172 181.552 18.6172C177.454 18.6172 174.132 21.9392 174.132 26.0372C174.132 30.1351 177.454 33.4572 181.552 33.4572Z" fill="#6FBB3F"/>
<path d="M167.102 26.1597C167.102 18.445 172.762 13.2344 181.712 13.2344C190.715 13.2344 196.376 18.4437 196.376 26.1597C196.376 33.8757 190.716 39.085 181.712 39.085C172.763 39.085 167.102 33.8743 167.102 26.1597ZM181.712 30.6117C185.486 30.6117 187.966 28.601 187.966 25.8677C187.966 23.1344 185.486 21.1237 181.712 21.1237C177.992 21.1237 175.512 23.1344 175.512 25.8677C175.512 28.601 177.992 30.6117 181.712 30.6117Z" fill="white"/>
<path d="M213.47 61.7521H148.695L175.51 25.8682H187.963L213.47 61.7521Z" fill="url(#paint0_linear_421_1573)"/>
<path opacity="0.59" d="M167.102 26.1597C167.102 18.445 172.762 13.2344 181.712 13.2344C190.715 13.2344 196.376 18.4437 196.376 26.1597C196.376 33.8757 190.716 39.085 181.712 39.085C172.763 39.085 167.102 33.8743 167.102 26.1597ZM181.712 30.6117C185.486 30.6117 187.966 28.601 187.966 25.8677C187.966 23.1344 185.486 21.1237 181.712 21.1237C177.992 21.1237 175.512 23.1344 175.512 25.8677C175.512 28.601 177.992 30.6117 181.712 30.6117Z" fill="white"/>
<path d="M145.805 39.2466C135.292 39.2466 129.146 33.1546 129.092 22.5346H137.717C137.825 28.2479 140.737 31.3759 145.804 31.3759C150.817 31.3759 153.837 28.1413 153.837 22.3733V8.40929H142.838V0.754639H162.677V22.4813C162.677 32.7786 156.046 39.2479 145.802 39.2479L145.805 39.2466Z" fill="white"/>
<path d="M210.445 33.8559C210.445 36.5519 208.397 38.4919 205.485 38.4919C202.573 38.4919 200.525 36.5519 200.525 33.8559C200.525 31.16 202.575 29.2733 205.485 29.2733C208.396 29.2733 210.445 31.16 210.445 33.8559ZM209.744 26.632H201.28V0H209.744V26.632Z" fill="white"/>
<path d="M243.33 23.4519V38.4932H234.866V23.9372C234.866 20.4866 233.033 18.4386 230.014 18.4386C226.725 18.4386 224.516 20.9186 224.516 24.4759V38.4932H216.052V11.8599H223.384L223.922 14.9866C225.917 12.6133 228.936 11.2666 232.494 11.2666C239.072 11.2666 243.33 15.7946 243.33 23.4506V23.4519Z" fill="white"/>
<path d="M158.553 64.9893C155.705 63.8066 152.694 63.064 149.624 62.7853C147.752 62.6626 145.918 62.1933 144.217 61.4013C141.896 60.16 141.742 57.432 143.944 55.9907C144.694 55.5013 145.526 55.1533 146.401 54.9613C150.694 54.0413 155.177 54.86 158.87 57.236C159.081 57.364 159.294 57.4853 159.55 57.636L163.677 51.4907C163.618 51.4147 163.554 51.3453 163.482 51.2813C163.229 51.1067 162.977 50.9293 162.714 50.7707C157.686 47.72 151.76 46.5013 145.936 47.3213C142.776 47.6453 139.78 48.8853 137.314 50.888C132.242 55.0733 131.968 64.948 139.78 68.1973C140.401 68.5026 141.049 68.7493 141.716 68.9346C144.318 69.4853 146.93 69.9946 149.553 70.46C151.374 70.7813 153.221 71.0066 154.828 72.0106C155.232 72.2306 155.581 72.5373 155.852 72.9093C156.86 74.2946 156.553 76.2346 155.168 77.2413C154.417 77.816 153.558 78.2346 152.642 78.4706C149.252 79.3066 145.684 79.06 142.438 77.768C140.633 76.992 138.87 76.1226 137.156 75.164L132.713 81.368H132.716C132.776 81.4493 132.842 81.5253 132.914 81.5959C133.2 81.8146 133.48 82.0399 133.777 82.2413C138.968 85.7066 145.194 87.2786 151.408 86.6919C154.342 86.5373 157.194 85.6746 159.722 84.1746C163.882 81.812 166.005 77.004 164.948 72.3386C164.213 68.696 161.8 66.464 158.553 64.9893Z" fill="white"/>
<path d="M224.844 61.4248C224.77 61.4808 224.685 61.5221 224.49 61.6408V47.9795H216.052V85.8888H223.374C223.557 84.8448 223.728 83.8634 223.917 82.7754C224.094 82.9301 224.173 82.9914 224.245 83.0594C224.993 83.7661 225.825 84.3794 226.722 84.8848C232.79 88.2994 240.477 86.1488 243.892 80.0808C245.584 76.8794 246.14 73.1968 245.466 69.6381C243.884 59.6061 232.865 55.2195 224.845 61.4261L224.844 61.4248ZM228.601 78.9274C226.03 78.0448 224.474 75.6408 224.474 72.5488C224.472 69.2741 226.226 66.7635 229.032 66.0275C233.422 64.8768 237.128 67.7635 237.24 72.4221C237.357 77.2888 233.122 80.4848 228.601 78.9274Z" fill="white"/>
<path d="M195.477 67.1798C194.669 63.3838 192.728 60.3772 188.873 59.1678C184.532 57.8065 180.501 58.4385 177.143 61.7825C177.053 61.8372 176.959 61.8812 176.859 61.9132V47.9785H168.42V85.9251H176.88V72.0171C176.812 70.6238 177.181 69.2438 177.939 68.0731C179.181 66.2212 181.452 65.3465 183.616 65.8878C185.456 66.1918 186.881 67.6652 187.123 69.5145C187.263 70.2185 187.328 70.9345 187.319 71.6505C187.336 76.1091 187.328 80.5691 187.328 85.0278V85.8931H195.811C195.824 85.6491 195.841 85.4718 195.841 85.2945C195.841 80.3745 195.861 75.4531 195.823 70.5331C195.819 69.4065 195.703 68.2825 195.473 67.1785L195.477 67.1798Z" fill="white"/>
<path d="M270.145 62.249C269.955 62.0904 269.859 62.009 269.769 61.9264C268.88 61.1037 267.877 60.413 266.791 59.8757C260.551 56.7917 252.993 59.3504 249.909 65.5904C248.188 69.197 247.872 73.3144 249.023 77.141C252.073 88.0757 264.781 88.6037 269.873 83.0077C269.96 82.937 270.053 82.877 270.153 82.8277C270.344 83.897 270.52 84.8983 270.7 85.9103H278.019V59.1584H270.7L270.145 62.249ZM269.635 72.5064C269.647 77.3903 265.596 80.449 261.091 78.953C258.483 78.0863 256.875 75.6517 256.875 72.5504C256.871 69.3077 258.66 66.7584 261.452 66.0304C265.888 64.8717 269.624 67.833 269.636 72.5024V72.505L269.635 72.5064Z" fill="white"/>
<path d="M209.645 59.165H201.224V85.925H209.645V59.165Z" fill="white"/>
<path d="M205.474 47.2022H205.471C202.692 47.1889 200.618 48.9489 200.454 51.4676C200.45 51.5102 200.446 51.5542 200.443 51.5969C200.267 54.0902 202.146 56.2542 204.639 56.4302C207.358 56.8155 209.778 55.3435 210.307 52.9809C211.018 49.8249 208.832 47.2209 205.474 47.2022Z" fill="white"/>
<path d="M399.377 68.4223C399.348 66.0823 398.492 63.8277 396.96 62.057C395.032 59.8583 392.253 58.5917 389.329 58.5783C385.427 58.369 382 59.3957 379.389 62.481C379.315 62.5477 379.232 62.6037 379.144 62.6503C377.491 60.0703 374.625 58.5237 371.561 58.5543C368.488 58.4357 365.531 59.7383 363.543 62.085C363.395 61.2157 363.223 60.5143 363.17 59.8037C363.126 59.2103 362.859 59.1037 362.329 59.117C361.019 59.1503 359.708 59.1277 358.398 59.1277H355.715V85.9636H364.203V85.0623C364.21 80.541 364.21 76.021 364.203 71.4996C364.143 70.2076 364.474 68.929 365.15 67.8263C366.272 66.181 368.304 65.4143 370.233 65.909C371.843 66.2757 372.92 67.5863 373.188 69.5476C373.264 70.1063 373.303 70.6703 373.304 71.2356C373.307 75.8596 373.31 80.4823 373.31 85.1063V85.981H381.808V85.0796C381.808 80.5596 381.764 76.0383 381.839 71.5183C381.855 70.3943 382.089 69.285 382.528 68.2503C383.359 66.3517 385.361 65.5023 387.569 65.8703C389.355 66.169 390.513 67.489 390.799 69.593C390.871 70.153 390.907 70.717 390.904 71.281C390.907 75.8783 390.909 80.477 390.909 85.0743V85.965H399.372C399.401 85.8983 399.423 85.829 399.435 85.7583C399.427 79.9796 399.476 74.1996 399.379 68.421L399.377 68.4223Z" fill="white"/>
<path d="M341.889 60.0651C341.881 64.3798 341.881 68.6944 341.889 73.0091C341.957 74.4557 341.581 75.8877 340.812 77.1144C339.597 78.8864 337.425 79.7384 335.331 79.2637C333.401 78.8584 331.965 77.2384 331.792 75.2744C331.697 74.6664 331.653 74.0517 331.657 73.4357C331.653 68.9664 331.651 64.4971 331.651 60.0291V59.1718H323.147C323.131 59.4398 323.105 59.6651 323.105 59.8904C323.104 64.7184 323.093 69.5477 323.115 74.3757C323.112 75.3251 323.183 76.2744 323.328 77.2131C323.923 80.8744 325.533 83.8917 329.024 85.5744C333.432 87.5837 338.62 86.6944 342.107 83.3331C342.205 83.2371 342.317 83.1531 342.499 82.9984C342.651 83.8491 342.82 84.5984 342.908 85.357C342.968 85.873 343.172 86.0464 343.693 86.0371C345.288 86.0077 346.883 86.0264 348.477 86.0264H350.395V59.1558H341.884L341.888 60.0664L341.889 60.0651Z" fill="white"/>
<path d="M291.742 62.4758C291.495 61.2531 291.284 60.2091 291.074 59.1718H283.678V85.9717H292.16V85.0784C292.16 81.2277 292.155 77.3771 292.166 73.5277C292.166 72.8091 292.208 72.0918 292.288 71.3771C292.606 68.5944 294.252 66.6838 296.732 66.2384C298.287 65.9304 299.9 66.1731 301.296 66.9238C301.607 67.0904 301.918 67.2558 302.271 67.4451L305.848 61.2118C304.031 59.5371 301.659 58.5931 299.188 58.5611C296.179 58.4184 293.328 59.9171 291.74 62.4771L291.742 62.4758Z" fill="white"/>
<path d="M318.152 59.1772H309.669V85.9625H318.152V59.1772Z" fill="white"/>
<path d="M313.936 47.1812C311.156 47.1732 309.085 48.9452 308.921 51.4758C308.917 51.5158 308.914 51.5572 308.912 51.5972C308.744 54.0998 310.636 56.2638 313.138 56.4318C315.837 56.8038 318.241 55.3558 318.792 53.0292C319.544 49.8452 317.341 47.1918 313.938 47.1812H313.936Z" fill="white"/>
<path d="M113.064 38.2932C111.747 38.2932 110.598 38.9839 109.939 40.0185H90.1631L85.8031 44.3785H67.3418C67.7698 45.6492 68.1605 46.9692 68.5151 48.3399H87.4431L91.7991 43.9799H109.935C110.592 45.0185 111.744 45.7119 113.063 45.7119C115.112 45.7119 116.772 44.0505 116.772 42.0025C116.772 39.9545 115.112 38.2932 113.064 38.2932Z" fill="#6FBB3F"/>
<path d="M96.6604 56.5253C97.3378 57.4266 98.4044 58.0173 99.6178 58.0173C101.667 58.0173 103.327 56.356 103.327 54.308C103.327 52.26 101.666 50.5986 99.6178 50.5986C98.2031 50.5986 96.9884 51.4 96.3631 52.564H69.4805C69.7351 53.848 69.9645 55.1693 70.1738 56.5253H96.6604Z" fill="#6FBB3F"/>
<path d="M70.3936 60.3319V60.3372C70.3962 60.3372 70.3989 60.3372 70.4029 60.3372C70.3176 61.6759 70.0389 62.9879 69.5869 64.2372H87.5362L91.9762 68.6772H104.11C104.767 69.7132 105.918 70.4052 107.236 70.4052C109.286 70.4052 110.946 68.7439 110.946 66.6959C110.946 64.6479 109.284 62.9865 107.236 62.9865C105.918 62.9865 104.767 63.6799 104.11 64.7159H93.6202L89.1802 60.2759H70.3869C70.3856 60.2945 70.3869 60.3132 70.3869 60.3319H70.3962H70.3936Z" fill="#6FBB3F"/>
<path d="M67.5405 67.9852C64.5445 72.1638 60.8219 75.7225 56.5739 78.5011C56.4712 78.5691 56.3672 78.6278 56.2645 78.6945C55.8445 78.9638 55.4232 79.2278 54.9939 79.4811C54.5592 79.7411 54.1259 79.9851 53.6912 80.2238C53.6592 80.2411 53.6259 80.2598 53.5939 80.2771C51.0299 81.6745 48.4646 82.7171 45.9966 83.4438C45.8566 83.4865 45.7192 83.5345 45.5779 83.5758C45.4032 83.6265 45.2246 83.6625 45.0486 83.7105C44.7766 83.7825 44.5059 83.8518 44.2366 83.9171C43.8392 84.0131 43.4419 84.1025 43.0406 84.1838C42.7672 84.2398 42.4992 84.2878 42.2299 84.3345C41.9086 84.3905 41.5872 84.4478 41.2646 84.4931C40.7899 84.5625 40.3272 84.6158 39.8686 84.6611C39.7339 84.6745 39.5992 84.6918 39.4646 84.7038C38.8606 84.7558 38.2712 84.7891 37.7006 84.8011C37.6379 84.8025 37.5752 84.8105 37.5126 84.8118V84.8185H37.5099C37.4472 84.8198 37.3806 84.8158 37.3179 84.8158H37.2899C37.2779 84.8158 37.2672 84.8185 37.2552 84.8185V84.8158H37.2446V84.8198H37.1526C37.1459 84.8198 37.1366 84.8198 37.1299 84.8198V84.8131C30.1233 84.7158 20.4273 81.6771 12.2219 73.8372C10.3273 72.0265 8.51129 69.9612 6.82729 67.6158C5.29129 65.4652 4.39396 62.9265 4.23529 60.2878H4.24463C4.24463 60.2878 4.25396 60.2852 4.25796 60.2838C4.17796 59.2372 4.21396 58.1852 4.36729 57.1465C5.12196 51.0985 6.74729 45.1919 9.18995 39.6079C7.07262 34.6852 5.62596 29.4999 4.88862 24.1906C4.41529 20.1146 4.58729 15.9332 6.16062 12.5053C6.52196 11.7319 7.36729 11.3066 8.20462 11.4786C9.61662 11.7533 12.0379 12.6453 15.4073 15.3159C18.8953 18.2092 22.0379 21.4972 24.7713 25.1119C28.7646 23.8279 32.9392 23.1932 37.1339 23.2332V23.2279C37.1926 23.2279 37.2579 23.2332 37.3232 23.2332C37.3886 23.2332 37.4472 23.2279 37.5126 23.2279V23.2332C41.5926 23.1986 45.6526 23.7972 49.5486 25.0066C52.2539 21.4386 55.3592 18.1946 58.8059 15.3359C62.1859 12.6439 64.6112 11.7519 66.0272 11.4786C66.8645 11.3066 67.7099 11.7319 68.0725 12.5066C69.6525 15.9506 69.8219 20.1506 69.3379 24.2466C68.6352 29.3012 67.2845 34.2439 65.3219 38.9545C65.2939 39.0212 65.2685 39.0892 65.2405 39.1559C65.5112 39.7119 65.7672 40.2865 66.0179 40.8679H75.5632L82.5565 33.8786H87.7338C88.3912 34.9146 89.5418 35.6066 90.8605 35.6066C92.9098 35.6066 94.5698 33.9452 94.5698 31.8972C94.5698 29.8492 92.9085 28.1879 90.8605 28.1879C89.5418 28.1879 88.3912 28.8812 87.7338 29.9172H80.9165L73.9218 36.9065H70.5579C71.9325 32.9546 72.9338 28.8812 73.5125 24.7359L73.5232 24.6506C74.1738 19.1319 73.6272 14.4159 71.8885 10.6293L71.8912 10.6239C70.8899 8.49459 68.7525 7.13326 66.3992 7.12793C66.0059 7.12793 65.6139 7.16526 65.2285 7.2426C62.4685 7.77726 59.4245 9.35726 56.1805 11.9426L56.1139 11.9959C53.1605 14.4479 50.4392 17.1639 47.9819 20.1119C44.6592 19.3199 41.2566 18.9199 37.8406 18.9199H36.7592C33.2432 18.9199 29.7406 19.3466 26.3286 20.1919C23.8433 17.2039 21.0886 14.4519 18.0979 11.9693L18.0313 11.9159C14.0033 8.72259 10.9233 7.61726 9.05795 7.25326C6.29929 6.6866 3.51529 8.09459 2.33663 10.6519C0.612631 14.3906 0.0632989 19.0759 0.695298 24.5692L0.708631 24.6706C1.4113 29.7359 2.71796 34.6986 4.59929 39.4532C2.42996 44.9092 0.948631 50.6159 0.189965 56.4385C0.0192989 57.6132 -0.036701 58.8025 0.0232989 59.9878C0.015299 60.1385 0.015299 60.2905 0.0232989 60.4425C0.0366323 60.6585 0.0526322 60.8732 0.0726322 61.0865C0.377965 64.2945 1.52596 67.3652 3.39929 69.9878C5.08329 72.3318 6.96995 74.5238 9.03795 76.5372L9.27262 76.7678C9.45395 76.9412 9.63528 77.1092 9.81795 77.2758L9.93928 77.3865C9.93928 77.3865 10.2366 77.6651 10.3139 77.7358C10.4406 77.8505 10.5686 77.9612 10.6966 78.0732L11.0433 78.3772C11.1513 78.4732 11.2606 78.5692 11.3713 78.6638C11.4819 78.7585 11.5686 78.8278 11.6673 78.9091L11.9953 79.1812C12.1419 79.3038 12.2899 79.4251 12.4366 79.5451C12.5179 79.6091 12.9579 79.9491 12.9579 79.9491C13.1393 80.0945 13.3273 80.2385 13.5166 80.3811L13.8393 80.6158C14.0926 80.8038 14.3459 80.9905 14.5993 81.1691L14.8606 81.3505C15.1379 81.5438 15.4166 81.7371 15.6979 81.9238L15.9113 82.0611C16.2059 82.2545 16.5006 82.4438 16.7926 82.6265L16.9739 82.7385C17.2806 82.9265 17.5859 83.1131 17.8979 83.2945L18.0419 83.3745C18.3619 83.5558 18.6819 83.7385 19.0073 83.9198L19.1153 83.9771C19.4473 84.1585 19.7793 84.3318 20.1059 84.4998L20.2193 84.5558C20.5513 84.7238 20.8846 84.8878 21.2179 85.0451L21.3219 85.0918C21.6579 85.2505 21.9939 85.4038 22.3206 85.5465L22.4326 85.5931C22.7646 85.7385 23.0979 85.8798 23.4259 86.0131L23.5406 86.0585C23.8699 86.1918 24.2006 86.3211 24.5193 86.4411L24.6579 86.4905C24.9779 86.6091 25.2993 86.7251 25.6219 86.8371L25.7833 86.8905C26.0913 86.9945 26.3979 87.0971 26.7033 87.1931L26.8926 87.2491C27.1886 87.3398 27.4833 87.4305 27.7766 87.5131L28.0006 87.5745C28.2819 87.6531 28.5633 87.7305 28.8393 87.8011L29.1219 87.8691C29.3793 87.9331 29.6379 87.9958 29.8966 88.0505L30.2059 88.1171C30.4486 88.1705 30.6913 88.2225 30.9326 88.2691L31.3526 88.3465C31.5539 88.3838 31.7552 88.4225 31.9552 88.4558L32.5006 88.5411C32.6552 88.5651 32.8099 88.5891 32.9619 88.6105C33.0726 88.6265 33.5512 88.6865 33.5512 88.6865C33.6846 88.7038 33.8192 88.7211 33.9526 88.7371C34.0859 88.7531 34.9232 88.8278 34.9232 88.8278C35.0752 88.8411 35.2232 88.8491 35.3779 88.8585L35.8792 88.8918C36.0552 88.9011 36.2286 88.9065 36.4019 88.9131L36.7432 88.9251C36.8699 88.9371 36.9979 88.9425 37.1259 88.9425H37.5099C37.6366 88.9425 37.7606 88.9358 37.8846 88.9265C39.7246 88.8758 41.5566 88.6758 43.3646 88.3318L43.4792 88.3105C43.8192 88.2465 44.1619 88.1758 44.5072 88.0998L44.5646 88.0878C51.4779 86.5131 57.9019 83.2731 63.2765 78.6491C65.8352 76.5012 68.1339 74.0665 70.1592 71.4132H71.1819L78.1072 78.3385H93.6845C94.3418 79.3745 95.4925 80.0665 96.8111 80.0665C98.8605 80.0665 100.52 78.4052 100.52 76.3572C100.52 74.3092 98.8591 72.6478 96.8111 72.6478C95.4925 72.6478 94.3418 73.3412 93.6845 74.3772H79.7445L72.8192 67.4518H67.9232C67.8845 67.5078 67.8512 67.5652 67.8112 67.6212C67.7232 67.7465 67.6299 67.8665 67.5405 67.9905V67.9852Z" fill="#6FBB3F"/>
<path d="M61.0445 30.5947C58.9579 28.4067 56.5019 26.5987 53.7832 25.26C56.4992 26.6013 58.9552 28.4093 61.0445 30.5947Z" fill="#6FBB3F"/>
<path d="M63.5449 33.6093C64.8956 29.3866 66.2636 23.8946 66.1676 19.2866C66.2636 23.8946 64.8956 29.3853 63.5449 33.6079V33.6093Z" fill="#6FBB3F"/>
<path d="M24.3577 64.8386C24.3577 64.8386 24.3577 64.8359 24.3577 64.8346C22.1884 62.3333 19.7164 60.8506 17.2471 60.0266C19.7151 60.8519 22.1884 62.3346 24.3577 64.8386Z" fill="#6FBB3F"/>
<path d="M14.4446 19.092C11.8553 16.7893 9.83926 15.4933 8.69793 15.052C7.0086 20.216 8.96993 28.3466 10.8099 33.9986C11.4246 33.1133 12.0886 32.2626 12.7966 31.4506C14.9739 28.9546 17.6126 26.9013 20.5659 25.4013C18.3099 22.7693 16.2406 20.6907 14.4459 19.0933L14.4446 19.092Z" fill="#E65D02"/>
<path d="M65.5282 15.0547C63.6108 15.7974 59.2348 18.9373 53.7842 25.26C56.5015 26.5987 58.9575 28.4067 61.0455 30.5947C61.3122 30.8747 61.5762 31.1587 61.8308 31.4493H61.8335C62.4295 32.1307 63.0002 32.848 63.5455 33.608C64.8962 29.384 66.2642 23.8947 66.1682 19.2867C66.1362 17.752 65.9402 16.3147 65.5282 15.0547Z" fill="#E65D02"/>
<path d="M66.0141 40.8691C65.7648 40.2864 65.5074 39.7131 65.2368 39.1571C65.2648 39.0904 65.2901 39.0224 65.3181 38.9558C67.2808 34.2451 68.6328 29.3025 69.3341 24.2478C69.8181 20.1518 69.6488 15.9518 68.0688 12.5078C67.7074 11.7332 66.8608 11.3092 66.0234 11.4798C64.6088 11.7518 62.1821 12.6452 58.8021 15.3371C55.3568 18.1958 52.2501 21.4411 49.5448 25.0078C45.6488 23.7985 41.5888 23.2011 37.5088 23.2345V23.2291C37.4448 23.2291 37.3848 23.2345 37.3195 23.2345C37.2542 23.2345 37.1902 23.2291 37.1302 23.2291V23.2345C32.9355 23.1945 28.7608 23.8278 24.7675 25.1131C22.0342 21.4971 18.8915 18.2105 15.4035 15.3171C12.0342 12.6465 9.61287 11.7558 8.20088 11.4798C7.36488 11.3078 6.51955 11.7332 6.15688 12.5065C4.58355 15.9345 4.41155 20.1145 4.88488 24.1918C5.62088 29.4998 7.06754 34.6851 9.18621 39.6091C6.74221 45.1931 5.11821 51.0998 4.36355 57.1477C4.21022 58.1864 4.17422 59.2384 4.25422 60.2851C6.39555 59.5851 11.8142 58.2117 17.2462 60.0277C19.7155 60.8517 22.1875 62.3331 24.3569 64.8357C24.3569 64.8371 24.3595 64.8384 24.3609 64.8397C25.8382 58.9784 31.1982 54.9358 37.2408 55.1251H37.2502C39.4035 55.0864 41.5355 55.5491 43.4782 56.4757C45.1248 57.3424 46.5515 58.5344 47.6835 59.9611C47.7115 59.9957 47.7341 60.0357 47.7621 60.0704C48.0141 60.3944 48.2555 60.7264 48.4768 61.0717C48.5181 61.1357 48.5501 61.2064 48.5901 61.2704C48.7888 61.5944 48.9821 61.9211 49.1528 62.2611C49.2088 62.3717 49.2501 62.4904 49.3035 62.6037C49.4448 62.9064 49.5875 63.2077 49.7048 63.5211C49.7701 63.6944 49.8155 63.8757 49.8741 64.0531C49.9608 64.3144 50.0555 64.5731 50.1248 64.8411C57.1808 56.6904 67.4501 59.3451 70.3808 60.3317C70.3821 60.3131 70.3808 60.2944 70.3808 60.2757C70.4581 59.2304 70.4221 58.1797 70.2648 57.1424H70.2688C70.2381 56.9331 70.2021 56.7318 70.1701 56.5251C69.9608 55.1691 69.7301 53.8478 69.4768 52.5638C69.1874 51.1064 68.8661 49.7011 68.5128 48.3398C68.1568 46.9691 67.7674 45.6491 67.3394 44.3784C66.9301 43.1638 66.4914 41.9891 66.0101 40.8691H66.0141ZM12.7969 31.4505C12.0889 32.2625 11.4249 33.1131 10.8102 33.9985C10.8102 33.9985 10.8102 33.9984 10.8089 34.0011C8.96621 28.3451 7.00754 20.2131 8.69687 15.0518C9.84087 15.4931 11.8555 16.7891 14.4449 19.0931C16.2395 20.6905 18.3089 22.7691 20.5649 25.4011C17.6115 26.9011 14.9742 28.9545 12.7955 31.4505H12.7969ZM30.3808 52.4131C29.4902 54.2184 22.2235 52.2744 18.6195 49.7958C18.1209 49.4491 17.8249 48.8798 17.8275 48.2731L18.1915 45.3664C18.1915 44.8771 18.5875 44.4811 19.0769 44.4811C19.1835 44.4811 19.2902 44.5011 19.3902 44.5384C22.5289 45.7198 31.3848 49.7718 30.3808 52.4131ZM31.7302 42.6051C31.3248 43.3024 30.5462 43.6944 29.7448 43.6038H29.7422C27.9742 43.4651 24.2662 43.0918 23.1115 42.3704C21.5675 41.4131 22.2102 36.9744 27.7608 37.5944C31.9902 38.0664 32.5048 40.9558 31.7302 42.6051ZM43.0782 42.6051C42.3035 40.9558 42.8182 38.0664 47.0475 37.5944C52.5968 36.9744 53.2395 41.4131 51.6955 42.3704C50.5395 43.0918 46.8328 43.4651 45.0648 43.6051H45.0622C44.2608 43.6918 43.4835 43.3011 43.0782 42.6038V42.6051ZM56.1715 49.7931C52.5675 52.2704 45.2995 54.2158 44.4102 52.4104C43.4062 49.7691 52.2621 45.7171 55.4008 44.5358C55.5021 44.4971 55.6101 44.4771 55.7195 44.4771C56.2088 44.4771 56.6048 44.8744 56.6048 45.3638L56.9688 48.2704V48.2731C57.0181 48.8904 56.7075 49.4824 56.1728 49.7931H56.1715ZM63.5461 33.6105C63.0008 32.8491 62.4315 32.1318 61.8341 31.4505H61.8315C61.5768 31.1598 61.3141 30.8758 61.0461 30.5958C58.9568 28.4105 56.5021 26.6025 53.7848 25.2611C59.2341 18.9398 63.6115 15.7998 65.5288 15.0558C65.9408 16.3158 66.1354 17.7531 66.1674 19.2878C66.2648 23.8971 64.8981 29.3878 63.5461 33.6105Z" fill="#F68D36"/>
<path d="M46.0257 74.6917C46.047 73.9437 46.2323 73.2104 46.571 72.5424C46.5843 72.5131 46.5923 72.4811 46.5937 72.4464C46.6017 72.2917 46.4817 72.1584 46.327 72.1517C45.4257 72.1304 43.5017 72.0917 43.1084 72.1157H39.7004C39.3777 71.5891 38.883 71.1891 38.3004 70.9851V68.6957C41.3457 68.3064 42.3857 66.1211 42.683 64.1291C42.7804 63.4744 42.7977 62.8398 42.779 62.2971C42.7497 61.3918 42.007 60.6731 41.1004 60.6731H33.515C32.6084 60.6731 31.8657 61.3918 31.835 62.2971C31.7737 64.0758 32.095 66.8491 34.3897 68.1037C34.919 68.3917 35.5524 68.5997 36.3097 68.6957L36.3137 68.6984V70.9851C35.731 71.1891 35.2364 71.5891 34.9137 72.1157H31.5057C31.1124 72.0904 29.1897 72.1317 28.287 72.1517C28.255 72.1531 28.223 72.1624 28.1924 72.1744C28.051 72.2371 27.9857 72.4011 28.0457 72.5437C28.3804 73.2117 28.567 73.9437 28.591 74.6904C28.6177 74.9184 28.815 75.0891 29.0457 75.0797H29.5204L30.6217 77.9864C30.6324 78.0144 30.6484 78.0397 30.6684 78.0597C30.747 78.1371 30.871 78.1371 30.951 78.0597C31.1657 77.8144 31.3577 77.5491 31.523 77.2691C31.559 77.2104 31.579 77.1437 31.579 77.0744V73.7504H31.5844V73.7464C33.4577 74.0117 35.3484 74.1451 37.2404 74.1451H37.355C38.695 74.1491 40.0324 74.0637 41.367 73.9357C41.9217 73.8824 42.4777 73.8411 43.0297 73.7651H43.0337V77.0717C43.0337 77.1411 43.0524 77.2077 43.0897 77.2664C43.2564 77.5477 43.4484 77.8131 43.6644 78.0597C43.699 78.0971 43.7484 78.1171 43.799 78.1184C43.8844 78.1184 43.959 78.0637 43.987 77.9837L45.0884 75.0771H45.571C45.6284 75.0784 45.683 75.0704 45.735 75.0517C45.8883 74.9971 46.003 74.8597 46.0244 74.6891L46.0257 74.6917Z" fill="#202740"/>
<path d="M70.3936 60.3371C70.3936 60.3371 70.3936 60.3331 70.3936 60.3318H70.3842C67.4536 59.3451 57.1842 56.6891 50.1283 64.8411C50.0576 64.5731 49.9629 64.3144 49.8776 64.0531C49.8189 63.8771 49.7736 63.6944 49.7083 63.5211C49.5896 63.2078 49.4469 62.9064 49.3069 62.6038C49.2536 62.4904 49.2123 62.3718 49.1563 62.2611C48.9856 61.9211 48.7923 61.5931 48.5936 61.2704C48.5536 61.2051 48.5216 61.1358 48.4803 61.0718C48.2589 60.7251 48.0176 60.3944 47.7656 60.0704C47.7376 60.0344 47.7149 59.9958 47.6869 59.9611C46.5549 58.5358 45.1283 57.3424 43.4816 56.4758C41.5376 55.5491 39.4056 55.0865 37.2536 55.1251H37.2443C31.2016 54.9345 25.8416 58.9784 24.3643 64.8398C24.3643 64.8384 24.3616 64.8371 24.3603 64.8358C24.3603 64.8371 24.3603 64.8384 24.3603 64.8398C22.191 62.3358 19.7203 60.8531 17.251 60.0278C11.8176 58.2118 6.40032 59.5851 4.25899 60.2851C4.25899 60.2851 4.24966 60.2878 4.24566 60.2891H4.23633C4.39366 62.9264 5.29233 65.4664 6.82832 67.6171C8.51232 69.9624 10.3283 72.0291 12.223 73.8384C20.427 81.6784 30.1243 84.7171 37.1309 84.8144V84.8211C37.1376 84.8211 37.1469 84.8211 37.1536 84.8211H37.2456V84.8171H37.2563V84.8197C37.2683 84.8197 37.2789 84.8184 37.2909 84.8171H37.3189C37.3816 84.8171 37.4483 84.8211 37.5109 84.8211C37.5109 84.8211 37.5123 84.8197 37.5136 84.8197V84.8131C37.5763 84.8117 37.6389 84.8051 37.7016 84.8024C38.2723 84.7904 38.8629 84.7571 39.4656 84.7051C39.6003 84.6931 39.7349 84.6757 39.8696 84.6624C40.3283 84.6171 40.7909 84.5637 41.2656 84.4944C41.5883 84.4477 41.9096 84.3917 42.2309 84.3357C42.5003 84.2877 42.7683 84.2397 43.0416 84.1851C43.4416 84.1051 43.8403 84.0144 44.2376 83.9184C44.5069 83.8544 44.7776 83.7837 45.0496 83.7117C45.2256 83.6637 45.4043 83.6277 45.5789 83.5771C45.7189 83.5357 45.8576 83.4877 45.9976 83.4451C48.4656 82.7184 51.0296 81.6757 53.5949 80.2784C53.6269 80.2611 53.6603 80.2424 53.6923 80.2251C54.1269 79.9864 54.5616 79.7424 54.9949 79.4824C55.4242 79.2291 55.8469 78.9637 56.2656 78.6957C56.3683 78.6291 56.4722 78.5704 56.5749 78.5024C60.8229 75.7237 64.5456 72.1651 67.5416 67.9864C67.6309 67.8624 67.7242 67.7424 67.8122 67.6171C67.8522 67.5624 67.8856 67.5038 67.9242 67.4478C68.6162 66.4478 69.1749 65.3704 69.5869 64.2371C70.0402 62.9878 70.3176 61.6758 70.4029 60.3371C70.4002 60.3371 70.3976 60.3371 70.3936 60.3371ZM39.2523 76.3864C39.1883 76.3651 39.1176 76.3517 39.0363 76.3517C38.3989 76.3517 38.2429 78.2504 37.3269 78.3104V78.3144C37.3269 78.3144 37.3216 78.3144 37.3176 78.3117C37.3136 78.3117 37.3109 78.3104 37.3083 78.3091C37.3029 78.3091 37.2949 78.3131 37.2896 78.3131L37.2883 78.3091C37.2749 78.3091 37.2616 78.3037 37.2483 78.2997H37.2416C36.3656 78.1757 36.1909 76.3517 35.5829 76.3517C34.9483 76.3517 34.8909 77.1251 34.2949 77.1251C34.2149 77.1224 34.1349 77.1131 34.0563 77.0957C33.5896 76.9557 33.2723 76.5224 33.2829 76.0344V75.4718H41.3443V76.0344C41.3536 76.5224 41.0376 76.9557 40.5709 77.0957C40.4923 77.1131 40.4123 77.1238 40.3323 77.1251C40.2576 77.1251 40.1923 77.1131 40.1323 77.0917C39.7749 76.9651 39.6389 76.5131 39.2576 76.3851L39.2523 76.3864ZM45.5749 75.0798H45.0923L43.9909 77.9864C43.9629 78.0664 43.8869 78.1197 43.8029 78.1211C43.7523 78.1184 43.7029 78.0984 43.6683 78.0624C43.4523 77.8171 43.2603 77.5517 43.0936 77.2691C43.0576 77.2104 43.0389 77.1437 43.0376 77.0744V73.7678C43.0376 73.7678 43.0349 73.7678 43.0336 73.7678C42.4816 73.8424 41.9256 73.8838 41.3709 73.9371C40.0376 74.0638 38.7003 74.1504 37.3589 74.1464H37.2443C35.3523 74.1464 33.4616 74.0131 31.5883 73.7478V73.7518C31.5883 73.7518 31.5843 73.7518 31.583 73.7518V77.0757C31.583 77.1451 31.5643 77.2117 31.527 77.2704C31.3616 77.5517 31.1696 77.8157 30.955 78.0611C30.8763 78.1371 30.751 78.1384 30.6723 78.0611C30.651 78.0397 30.635 78.0157 30.6256 77.9877L29.5243 75.0811H29.0496C28.8203 75.0904 28.6216 74.9211 28.595 74.6918C28.571 73.9451 28.3856 73.2118 28.0496 72.5451C27.9883 72.4024 28.055 72.2384 28.1963 72.1758C28.227 72.1638 28.2576 72.1544 28.291 72.1531C29.1936 72.1344 31.1163 72.0918 31.5096 72.1171H34.9176C35.2403 71.5904 35.7349 71.1904 36.3176 70.9864V68.6998C36.3176 68.6998 36.3149 68.6998 36.3136 68.6998C35.5563 68.6011 34.9216 68.3931 34.3936 68.1051C32.099 66.8504 31.7763 64.0771 31.839 62.2984C31.8683 61.3931 32.6123 60.6744 33.5189 60.6744H41.1043C42.0109 60.6744 42.7536 61.3931 42.7829 62.2984C42.8016 62.8411 42.7829 63.4758 42.6869 64.1304C42.3896 66.1224 41.3496 68.3078 38.3043 68.6971V70.9864C38.8869 71.1904 39.3816 71.5904 39.7043 72.1171H43.1123C43.5056 72.0931 45.4296 72.1318 46.3309 72.1531C46.4869 72.1611 46.6056 72.2931 46.5976 72.4478C46.5963 72.4811 46.5883 72.5144 46.5749 72.5451C46.2363 73.2118 46.0509 73.9451 46.0296 74.6931C46.0083 74.8638 45.8936 74.9998 45.7403 75.0558C45.6896 75.0744 45.6336 75.0824 45.5763 75.0811L45.5749 75.0798Z" fill="white"/>
<path d="M40.5646 77.0959C41.0312 76.9559 41.3486 76.5226 41.3379 76.0346V75.4719H33.2766V76.0359C33.2672 76.5239 33.5832 76.9573 34.0499 77.0973C34.1286 77.1146 34.2086 77.1253 34.2886 77.1266C34.8846 77.1266 34.9419 76.3546 35.5766 76.3533C36.1846 76.3533 36.3592 78.1773 37.2352 78.3013H37.2419C37.2552 78.3066 37.2686 78.3093 37.2819 78.3106V78.3146C37.2872 78.3146 37.2966 78.3106 37.3019 78.3106C37.3046 78.3106 37.3086 78.3106 37.3112 78.3133C37.3152 78.3133 37.3179 78.3159 37.3206 78.3159V78.3119C38.2366 78.2506 38.3939 76.3533 39.0299 76.3533C39.1099 76.3533 39.1819 76.3653 39.2459 76.3879C39.6272 76.5159 39.7632 76.9679 40.1206 77.0946C40.1806 77.1159 40.2459 77.1279 40.3206 77.1279C40.4006 77.1253 40.4806 77.1159 40.5592 77.0986L40.5646 77.0959Z" fill="#202740"/>
<path d="M56.6036 45.3625C56.6036 44.8732 56.2076 44.4758 55.7183 44.4758C55.6089 44.4758 55.5009 44.4958 55.3996 44.5345C52.2609 45.7158 43.4049 49.7678 44.4089 52.4092C45.2983 54.2145 52.5663 52.2705 56.1703 49.7918C56.7063 49.4798 57.0156 48.8892 56.9676 48.2718V48.2692L56.6036 45.3625Z" fill="#202740"/>
<path d="M19.3898 44.5385C19.2898 44.5012 19.1832 44.4812 19.0765 44.4812C18.5872 44.4812 18.1912 44.8772 18.1912 45.3665L17.8272 48.2732C17.8245 48.8799 18.1205 49.4492 18.6192 49.7959C22.2232 52.2732 29.4898 54.2185 30.3805 52.4132C31.3845 49.7719 22.5285 45.7199 19.3898 44.5385Z" fill="#202740"/>
<path d="M27.7608 37.5945C22.2102 36.9745 21.5675 41.4132 23.1115 42.3705C24.2675 43.0919 27.9742 43.4652 29.7422 43.6052H29.7448C30.5462 43.6932 31.3248 43.3012 31.7302 42.6039C32.5048 40.9545 31.9902 38.0665 27.7608 37.5945Z" fill="white"/>
<path d="M45.0636 43.6052C46.8316 43.4639 50.5396 43.0905 51.6943 42.3705C53.2382 41.4132 52.5956 36.9745 47.0463 37.5945C42.8169 38.0665 42.3023 40.9559 43.0769 42.6052C43.4823 43.3012 44.2596 43.6932 45.0609 43.6039L45.0636 43.6052Z" fill="white"/>
<path d="M172.623 47.9795H176.858V61.9141C176.858 61.9141 180.108 58.5168 184.858 58.5168C189.607 58.5168 195.779 61.7461 195.779 68.9635" stroke="#6FBB3F" stroke-width="1.63866" stroke-linecap="round" stroke-linejoin="round"/>
<path d="M195.801 71.7882C196.873 71.7882 197.741 70.9196 197.741 69.8482C197.741 68.7768 196.873 67.9082 195.801 67.9082C194.73 67.9082 193.861 68.7768 193.861 69.8482C193.861 70.9196 194.73 71.7882 195.801 71.7882Z" fill="#6FBB3F"/>
<path d="M171.889 49.7945C172.961 49.7945 173.829 48.926 173.829 47.8545C173.829 46.7831 172.961 45.9146 171.889 45.9146C170.818 45.9146 169.949 46.7831 169.949 47.8545C169.949 48.926 170.818 49.7945 171.889 49.7945Z" fill="#6FBB3F"/>
<defs>
<linearGradient id="paint0_linear_421_1573" x1="181.082" y1="61.8441" x2="181.082" y2="26.9962" gradientUnits="userSpaceOnUse">
<stop offset="0.149" stop-color="#6FBB3F" stop-opacity="0"/>
<stop offset="0.965" stop-color="#6FBB3F"/>
</linearGradient>
</defs>
</svg>
