<svg width="16" height="16" viewBox="0 0 16 16" fill="none" xmlns="http://www.w3.org/2000/svg">
<g clip-path="url(#clip0_72_2476)">
<path d="M0.000700147 15.932C0.0632643 15.6508 0.131162 15.3706 0.187239 15.088C0.451768 13.7549 0.712116 12.4212 0.977941 11.0884C0.990195 11.0272 1.03085 10.9633 1.07597 10.9182C4.54324 7.45402 8.01108 3.99022 11.4824 0.530013C12.1882 -0.173513 13.2177 -0.17524 13.9316 0.520226C14.4576 1.03261 14.9688 1.5604 15.4933 2.07437C16.1808 2.74811 16.161 3.85535 15.48 4.53297C12.0088 7.98598 8.54662 11.4481 5.07921 14.9047C5.02789 14.9559 4.95221 14.9979 4.88143 15.0125C3.36951 15.3213 1.85643 15.6255 0.343938 15.9317C0.269986 15.9467 0.198484 15.9733 0.125829 15.9945C0.0866178 15.9686 -0.00910254 16.0558 0.000700147 15.932ZM12.1906 4.66927C9.45236 7.40148 6.70386 10.1439 3.97756 12.8642C4.22465 13.113 4.48255 13.3727 4.71925 13.6112C7.45204 10.8836 10.1965 8.1443 12.9345 5.41166C12.69 5.1677 12.4325 4.91079 12.1906 4.66927ZM10.5921 3.09095C7.85871 5.81898 5.1115 8.56083 2.37482 11.2922C2.61557 11.5318 2.8726 11.7876 3.12401 12.0379C5.86011 9.30567 8.60472 6.56511 11.3391 3.83477C11.0896 3.58635 10.8322 3.33016 10.5921 3.09095ZM13.785 4.5999C14.0996 4.28916 14.4223 3.98662 14.7253 3.66551C14.9471 3.43062 14.9191 3.1134 14.6776 2.87059C14.1677 2.35791 13.6563 1.84682 13.1426 1.33774C12.8745 1.07205 12.5559 1.07133 12.2879 1.33415C12.0094 1.60732 11.7349 1.88467 11.4595 2.16087C11.4357 2.18462 11.4174 2.21384 11.4073 2.22665C12.2037 3.02143 12.9911 3.80757 13.785 4.5999ZM1.4538 14.5466C2.17156 14.4013 2.85487 14.263 3.52938 14.1266C2.97409 13.5723 2.42427 13.0236 1.86552 12.4659C1.73159 13.1431 1.59652 13.8258 1.4538 14.5466Z" fill="white"/>
</g>
<defs>
<clipPath id="clip0_72_2476">
<rect width="16" height="16" fill="white"/>
</clipPath>
</defs>
</svg>
