<svg width="421" height="134" viewBox="0 0 421 134" fill="none" xmlns="http://www.w3.org/2000/svg">
<g clip-path="url(#clip0_484_1888)">
<path d="M81.7091 52.2904C88.0903 52.2904 93.2633 47.0985 93.2633 40.694C93.2633 34.2895 88.0903 29.0977 81.7091 29.0977C75.3278 29.0977 70.1548 34.2895 70.1548 40.694C70.1548 47.0985 75.3278 52.2904 81.7091 52.2904Z" fill="#6FBB3F"/>
<path d="M59.2068 40.8859C59.2068 28.829 68.0204 20.6855 81.9582 20.6855C95.977 20.6855 104.793 28.827 104.793 40.8859C104.793 52.9449 95.9791 61.0863 81.9582 61.0863C68.0225 61.0863 59.2068 52.9428 59.2068 40.8859ZM81.9582 47.8437C87.834 47.8437 91.6958 44.7014 91.6958 40.4296C91.6958 36.1578 87.834 33.0154 81.9582 33.0154C76.1655 33.0154 72.3037 36.1578 72.3037 40.4296C72.3037 44.7014 76.1655 47.8437 81.9582 47.8437Z" fill="white"/>
<path d="M131.412 96.5111H30.5464L72.3016 40.4297H91.6937L131.412 96.5111Z" fill="url(#paint0_linear_484_1888)"/>
<path opacity="0.59" d="M59.2068 40.8859C59.2068 28.829 68.0204 20.6855 81.9582 20.6855C95.977 20.6855 104.793 28.827 104.793 40.8859C104.793 52.9449 95.9791 61.0863 81.9582 61.0863C68.0225 61.0863 59.2068 52.9428 59.2068 40.8859ZM81.9582 47.8437C87.834 47.8437 91.6958 44.7014 91.6958 40.4296C91.6958 36.1578 87.834 33.0154 81.9582 33.0154C76.1655 33.0154 72.3037 36.1578 72.3037 40.4296C72.3037 44.7014 76.1655 47.8437 81.9582 47.8437Z" fill="white"/>
<path d="M26.0452 61.3389C9.67404 61.3389 0.104657 51.818 0.0195312 35.2205H13.4507C13.6189 44.1496 18.1534 49.0382 26.0431 49.0382C33.8498 49.0382 38.5525 43.9829 38.5525 34.9684V13.1447H21.4256V1.18164H52.3179V35.1372C52.3179 51.2304 41.9928 61.341 26.041 61.341L26.0452 61.3389Z" fill="white"/>
<path d="M126.701 52.9139C126.701 57.1273 123.512 60.1592 118.978 60.1592C114.443 60.1592 111.254 57.1273 111.254 52.9139C111.254 48.7004 114.445 45.7518 118.978 45.7518C123.51 45.7518 126.701 48.7004 126.701 52.9139ZM125.609 41.6238H112.429V0.00195312H125.609V41.6238Z" fill="white"/>
<path d="M177.91 36.6532V60.1606H164.73V37.4117C164.73 32.0189 161.875 28.8181 157.174 28.8181C152.052 28.8181 148.612 32.694 148.612 38.2536V60.1606H135.432V18.5367H146.849L147.688 23.4232C150.794 19.714 155.495 17.6094 161.036 17.6094C171.278 17.6094 177.91 24.686 177.91 36.6512V36.6532Z" fill="white"/>
<path d="M45.8962 101.57C41.4614 99.7218 36.7732 98.5611 31.9916 98.1256C29.0766 97.9339 26.2218 97.2004 23.5725 95.9626C19.9578 94.0226 19.719 89.7591 23.1469 87.5065C24.3158 86.7418 25.6114 86.1979 26.9734 85.8978C33.6589 84.46 40.6392 85.7394 46.3904 89.4528C46.7184 89.6528 47.0506 89.8425 47.4493 90.0779L53.8752 80.4737C53.7839 80.3549 53.6842 80.2465 53.5721 80.1465C53.1776 79.8735 52.7852 79.5964 52.3762 79.3484C44.5467 74.5807 35.3178 72.6761 26.2488 73.9576C21.3281 74.464 16.6628 76.4019 12.8238 79.5318C4.92577 86.0729 4.49806 101.505 16.6628 106.584C17.6303 107.061 18.6393 107.446 19.6775 107.736C23.7303 108.597 27.7976 109.393 31.8816 110.12C34.7177 110.622 37.5933 110.974 40.0952 112.543C40.7243 112.887 41.2683 113.366 41.6898 113.948C43.2594 116.113 42.7819 119.145 40.6246 120.718C39.4557 121.616 38.1186 122.271 36.6923 122.639C31.4124 123.946 25.8564 123.56 20.8028 121.541C17.9916 120.328 15.2468 118.97 12.5767 117.472L5.65869 127.168H5.66284C5.75627 127.295 5.86007 127.413 5.97219 127.524C6.41651 127.866 6.85252 128.218 7.31552 128.532C15.3983 133.948 25.0944 136.405 34.7696 135.488C39.3395 135.246 43.7805 133.898 47.7171 131.554C54.195 127.861 57.5003 120.347 55.8539 113.056C54.7099 107.363 50.9519 103.875 45.8962 101.57Z" fill="white"/>
<path d="M149.123 95.9994C149.008 96.0869 148.876 96.1515 148.572 96.337V74.9863H135.432V134.233H146.835C147.119 132.601 147.385 131.068 147.68 129.367C147.956 129.609 148.078 129.705 148.19 129.811C149.355 130.916 150.651 131.874 152.048 132.664C161.497 138.001 173.467 134.639 178.784 125.156C181.419 120.153 182.284 114.397 181.236 108.836C178.771 93.1571 161.613 86.3014 149.125 96.0015L149.123 95.9994ZM154.973 123.353C150.97 121.974 148.547 118.217 148.547 113.385C148.543 108.267 151.276 104.343 155.644 103.193C162.481 101.394 168.251 105.906 168.425 113.187C168.608 120.792 162.014 125.787 154.973 123.353Z" fill="white"/>
<path d="M103.393 104.993C102.135 99.0606 99.1122 94.3616 93.1098 92.4716C86.3495 90.3441 80.0731 91.3318 74.843 96.558C74.7039 96.6434 74.5565 96.7122 74.4008 96.7622V74.9844H61.2603V134.289H74.434V112.553C74.3281 110.376 74.9032 108.219 76.0825 106.389C78.0176 103.495 81.5534 102.128 84.9232 102.974C87.7884 103.449 90.0079 105.752 90.3837 108.642C90.6017 109.742 90.7034 110.861 90.6889 111.98C90.7159 118.948 90.7034 125.919 90.7034 132.887V134.239H103.912C103.933 133.858 103.96 133.581 103.96 133.304C103.96 125.615 103.991 117.923 103.931 110.234C103.925 108.473 103.744 106.717 103.387 104.991L103.393 104.993Z" fill="white"/>
<path d="M219.665 97.2875C219.368 97.0395 219.218 96.9124 219.079 96.7832C217.694 95.4975 216.133 94.4181 214.441 93.5784C204.724 88.7585 192.956 92.7573 188.154 102.51C185.473 108.146 184.981 114.581 186.773 120.562C191.523 137.651 211.312 138.476 219.241 129.73C219.376 129.62 219.522 129.526 219.677 129.449C219.974 131.12 220.248 132.685 220.529 134.267H231.925V92.4573H220.529L219.665 97.2875ZM218.87 113.318C218.888 120.951 212.581 125.731 205.565 123.393C201.504 122.039 199 118.234 199 113.387C198.994 108.319 201.78 104.335 206.128 103.197C213.035 101.386 218.853 106.014 218.872 113.312V113.316L218.87 113.318Z" fill="white"/>
<path d="M125.456 92.4668H112.342V134.289H125.456V92.4668Z" fill="white"/>
<path d="M118.961 73.7716H118.957C114.63 73.7508 111.399 76.5014 111.144 80.4377C111.138 80.5044 111.132 80.5731 111.127 80.6398C110.853 84.5365 113.779 87.9185 117.661 88.1936C121.895 88.7958 125.663 86.4953 126.487 82.8028C127.594 77.8704 124.191 73.8008 118.961 73.7716Z" fill="white"/>
<path d="M420.904 106.936C420.859 103.279 419.526 99.755 417.14 96.9878C414.138 93.5516 409.811 91.572 405.258 91.5511C399.181 91.224 393.845 92.8285 389.78 97.6504C389.663 97.7546 389.535 97.8421 389.398 97.915C386.823 93.8829 382.361 91.4657 377.59 91.5136C372.804 91.3282 368.199 93.364 365.103 97.0315C364.873 95.6729 364.605 94.5768 364.522 93.4661C364.454 92.5388 364.038 92.3721 363.214 92.393C361.173 92.4451 359.132 92.4096 357.091 92.4096H352.914V134.35H366.131V132.942C366.142 125.876 366.142 118.811 366.131 111.745C366.038 109.726 366.553 107.728 367.605 106.004C369.354 103.433 372.518 102.235 375.522 103.008C378.028 103.581 379.706 105.629 380.123 108.695C380.241 109.568 380.302 110.449 380.304 111.333C380.308 118.559 380.312 125.784 380.312 133.01V134.377H393.546V132.969C393.546 125.905 393.477 118.839 393.594 111.774C393.619 110.018 393.984 108.284 394.667 106.667C395.961 103.7 399.079 102.372 402.517 102.947C405.297 103.414 407.102 105.477 407.546 108.765C407.658 109.641 407.714 110.522 407.71 111.403C407.714 118.588 407.718 125.775 407.718 132.96V134.352H420.896C420.942 134.248 420.975 134.14 420.994 134.029C420.981 124.998 421.058 115.965 420.907 106.934L420.904 106.936Z" fill="white"/>
<path d="M331.383 93.8743C331.371 100.617 331.371 107.361 331.383 114.104C331.489 116.365 330.904 118.603 329.706 120.52C327.814 123.289 324.432 124.621 321.17 123.879C318.166 123.245 315.93 120.714 315.66 117.644C315.512 116.694 315.444 115.733 315.45 114.771C315.444 107.786 315.44 100.801 315.44 93.818V92.4781H302.198C302.173 92.897 302.133 93.2491 302.133 93.6013C302.131 101.147 302.114 108.694 302.148 116.24C302.144 117.723 302.254 119.207 302.48 120.674C303.406 126.396 305.914 131.112 311.35 133.742C318.214 136.882 326.292 135.492 331.722 130.239C331.875 130.089 332.05 129.957 332.332 129.716C332.569 131.045 332.832 132.216 332.97 133.402C333.063 134.208 333.381 134.479 334.192 134.465C336.676 134.419 339.159 134.448 341.642 134.448H344.628V92.4531H331.375L331.381 93.8764L331.383 93.8743Z" fill="white"/>
<path d="M253.296 97.6424C252.912 95.7316 252.584 94.1 252.256 92.4788H240.739V134.363H253.948V132.967C253.948 126.949 253.939 120.931 253.956 114.915C253.956 113.792 254.023 112.671 254.147 111.554C254.641 107.205 257.205 104.219 261.067 103.523C263.488 103.042 266 103.421 268.174 104.594C268.658 104.854 269.142 105.113 269.692 105.409L275.262 95.667C272.433 93.0497 268.739 91.5744 264.892 91.5244C260.206 91.3014 255.767 93.6436 253.294 97.6445L253.296 97.6424Z" fill="white"/>
<path d="M294.42 92.4863H281.211V134.348H294.42V92.4863Z" fill="white"/>
<path d="M287.855 73.7383C283.526 73.7258 280.302 76.4952 280.046 80.4502C280.04 80.5128 280.036 80.5774 280.032 80.6399C279.77 84.5512 282.716 87.9332 286.613 88.1957C290.816 88.7771 294.559 86.5141 295.417 82.8779C296.588 77.9018 293.158 73.755 287.859 73.7383H287.855Z" fill="white"/>
<path d="M67.8066 74.9863H74.4008V96.7641C74.4008 96.7641 79.4626 91.4546 86.8582 91.4546C94.2538 91.4546 103.865 96.5016 103.865 107.781" stroke="#6FBB3F" stroke-width="1.63866" stroke-linecap="round" stroke-linejoin="round"/>
<path d="M103.898 112.195C105.566 112.195 106.919 110.837 106.919 109.163C106.919 107.488 105.566 106.131 103.898 106.131C102.229 106.131 100.877 107.488 100.877 109.163C100.877 110.837 102.229 112.195 103.898 112.195Z" fill="#6FBB3F"/>
<path d="M66.6626 77.8236C68.331 77.8236 69.6835 76.4662 69.6835 74.7917C69.6835 73.1172 68.331 71.7598 66.6626 71.7598C64.9941 71.7598 63.6416 73.1172 63.6416 74.7917C63.6416 76.4662 64.9941 77.8236 66.6626 77.8236Z" fill="#6FBB3F"/>
</g>
<defs>
<linearGradient id="paint0_linear_484_1888" x1="80.9783" y1="96.6548" x2="80.9783" y2="42.1926" gradientUnits="userSpaceOnUse">
<stop offset="0.149" stop-color="#6FBB3F" stop-opacity="0"/>
<stop offset="0.965" stop-color="#6FBB3F"/>
</linearGradient>
<clipPath id="clip0_484_1888">
<rect width="421" height="134" fill="white"/>
</clipPath>
</defs>
</svg>
