<svg width="162" height="36" viewBox="0 0 162 36" fill="none" xmlns="http://www.w3.org/2000/svg">
<g clip-path="url(#clip0_469_4232)">
<path d="M73.6316 13.5439C75.2936 13.5439 76.6409 12.1992 76.6409 10.5405C76.6409 8.88177 75.2936 7.53711 73.6316 7.53711C71.9696 7.53711 70.6223 8.88177 70.6223 10.5405C70.6223 12.1992 71.9696 13.5439 73.6316 13.5439Z" fill="#6FBB3F"/>
<path d="M67.7708 10.5892C67.7708 7.46653 70.0663 5.35742 73.6964 5.35742C77.3476 5.35742 79.6436 7.46599 79.6436 10.5892C79.6436 13.7124 77.3481 15.8209 73.6964 15.8209C70.0668 15.8209 67.7708 13.7118 67.7708 10.5892ZM73.6964 12.3912C75.2267 12.3912 76.2325 11.5773 76.2325 10.471C76.2325 9.36462 75.2267 8.55077 73.6964 8.55077C72.1877 8.55077 71.1819 9.36462 71.1819 10.471C71.1819 11.5773 72.1877 12.3912 73.6964 12.3912Z" fill="white"/>
<path d="M86.5769 24.9954H60.3064L71.1816 10.4707H76.2322L86.5769 24.9954Z" fill="url(#paint0_linear_469_4232)"/>
<path opacity="0.59" d="M67.7708 10.5892C67.7708 7.46653 70.0663 5.35742 73.6964 5.35742C77.3476 5.35742 79.6436 7.46599 79.6436 10.5892C79.6436 13.7124 77.3481 15.8209 73.6964 15.8209C70.0668 15.8209 67.7708 13.7118 67.7708 10.5892ZM73.6964 12.3912C75.2267 12.3912 76.2325 11.5773 76.2325 10.471C76.2325 9.36462 75.2267 8.55077 73.6964 8.55077C72.1877 8.55077 71.1819 9.36462 71.1819 10.471C71.1819 11.5773 72.1877 12.3912 73.6964 12.3912Z" fill="white"/>
<path d="M59.1341 15.885C54.8702 15.885 52.3779 13.4191 52.3557 9.12052H55.8539C55.8977 11.4331 57.0787 12.6992 59.1336 12.6992C61.1668 12.6992 62.3916 11.3899 62.3916 9.05522V3.40305H57.9309V0.304688H65.9768V9.09893C65.9768 13.267 63.2877 15.8855 59.133 15.8855L59.1341 15.885Z" fill="white"/>
<path d="M85.3499 13.7038C85.3499 14.7951 84.5193 15.5803 83.3383 15.5803C82.1573 15.5803 81.3267 14.7951 81.3267 13.7038C81.3267 12.6125 82.1578 11.8489 83.3383 11.8489C84.5187 11.8489 85.3499 12.6125 85.3499 13.7038ZM85.0655 10.7798H81.6327V0H85.0655V10.7798Z" fill="white"/>
<path d="M98.6869 9.49277V15.581H95.2542V9.68922C95.2542 8.2925 94.5106 7.46354 93.2863 7.46354C91.9523 7.46354 91.0563 8.46736 91.0563 9.90725V15.581H87.6235V4.80071H90.5972L90.8156 6.06628C91.6246 5.10563 92.8489 4.56055 94.2922 4.56055C96.9597 4.56055 98.6869 6.39333 98.6869 9.49223V9.49277Z" fill="white"/>
<path d="M64.3041 26.305C63.149 25.8263 61.928 25.5257 60.6826 25.4129C59.9234 25.3632 59.1799 25.1733 58.4899 24.8527C57.5484 24.3502 57.4862 23.246 58.379 22.6626C58.6835 22.4645 59.0209 22.3237 59.3756 22.246C61.1169 21.8736 62.9349 22.205 64.4328 23.1667C64.5182 23.2185 64.6048 23.2676 64.7086 23.3286L66.3822 20.8412C66.3584 20.8104 66.3325 20.7823 66.3033 20.7564C66.2005 20.6857 66.0983 20.614 65.9918 20.5497C63.9526 19.3149 61.5489 18.8216 59.1869 19.1536C57.9053 19.2847 56.6902 19.7866 55.6904 20.5972C53.6333 22.2913 53.5219 26.2883 56.6902 27.6035C56.9422 27.7271 57.205 27.8269 57.4754 27.9019C58.531 28.1248 59.5903 28.331 60.654 28.5193C61.3927 28.6494 62.1416 28.7406 62.7932 29.147C62.9571 29.236 63.0987 29.3602 63.2085 29.5107C63.6173 30.0715 63.493 30.8567 62.9311 31.2642C62.6267 31.4968 62.2784 31.6663 61.9069 31.7618C60.5318 32.1002 59.0847 32.0003 57.7685 31.4774C57.0363 31.1633 56.3214 30.8114 55.626 30.4234L53.8242 32.9345H53.8253C53.8496 32.9675 53.8767 32.9982 53.9059 33.0268C54.0216 33.1153 54.1352 33.2065 54.2557 33.288C56.3609 34.6907 58.8862 35.327 61.4062 35.0895C62.5964 35.0269 63.7531 34.6777 64.7783 34.0706C66.4655 33.1142 67.3264 31.1681 66.8976 29.2798C66.5996 27.8053 65.6208 26.9019 64.3041 26.305Z" fill="white"/>
<path d="M91.1895 24.8641C91.1598 24.8868 91.1252 24.9035 91.0462 24.9515V19.4219H87.6238V34.7663H90.5936C90.6677 34.3438 90.7369 33.9465 90.8137 33.5062C90.8856 33.5688 90.9175 33.5936 90.9467 33.6211C91.2501 33.9071 91.5875 34.1554 91.9515 34.3599C94.4124 35.7421 97.5299 34.8716 98.9148 32.4154C99.601 31.1197 99.8265 29.629 99.5534 28.1886C98.9115 24.128 94.4427 22.3524 91.1901 24.8646L91.1895 24.8641ZM92.7134 31.9486C91.6708 31.5913 91.0397 30.6183 91.0397 29.3667C91.0387 28.0413 91.7503 27.025 92.888 26.7271C94.6688 26.2614 96.1715 27.4298 96.2169 29.3155C96.2645 31.2853 94.5471 32.579 92.7134 31.9486Z" fill="white"/>
<path d="M79.2792 27.192C78.9515 25.6555 78.1642 24.4385 76.6009 23.949C74.8402 23.398 73.2055 23.6538 71.8433 25.0073C71.8071 25.0295 71.7687 25.0473 71.7281 25.0602V19.4199H68.3057V34.7795H71.7368V29.15C71.7092 28.586 71.859 28.0274 72.1661 27.5536C72.6701 26.804 73.591 26.4499 74.4687 26.669C75.2149 26.7921 75.793 27.3884 75.8909 28.137C75.9476 28.4219 75.9741 28.7118 75.9704 29.0016C75.9774 30.8063 75.9741 32.6116 75.9741 34.4163V34.7665H79.4144C79.4198 34.6678 79.4269 34.596 79.4269 34.5242C79.4269 32.5328 79.435 30.5408 79.4193 28.5493C79.4177 28.0933 79.3706 27.6383 79.2776 27.1915L79.2792 27.192Z" fill="white"/>
<path d="M109.562 25.1969C109.485 25.1326 109.446 25.0997 109.41 25.0662C109.049 24.7333 108.642 24.4537 108.202 24.2362C105.671 22.9879 102.606 24.0236 101.355 26.5493C100.657 28.0092 100.529 29.6757 100.996 31.2246C102.233 35.6506 107.387 35.8644 109.452 33.5993C109.487 33.5707 109.525 33.5464 109.566 33.5264C109.643 33.9593 109.714 34.3646 109.787 34.7742H112.755V23.9459H109.787L109.562 25.1969ZM109.355 29.3487C109.36 31.3256 107.717 32.5636 105.89 31.9581C104.832 31.6073 104.18 30.6218 104.18 29.3665C104.178 28.054 104.904 27.0221 106.037 26.7274C107.836 26.2584 109.351 27.4571 109.356 29.3471V29.3481L109.355 29.3487Z" fill="white"/>
<path d="M85.0253 23.9492H81.6099V34.7808H85.0253V23.9492Z" fill="white"/>
<path d="M83.334 19.1075H83.3329C82.206 19.1021 81.3645 19.8144 81.298 20.8339C81.2964 20.8512 81.2948 20.869 81.2937 20.8863C81.2223 21.8955 81.9842 22.7714 82.9955 22.8426C84.0981 22.9986 85.0795 22.4028 85.2942 21.4465C85.5824 20.169 84.6961 19.115 83.334 19.1075Z" fill="white"/>
<path d="M161.975 27.6965C161.963 26.7493 161.616 25.8367 160.995 25.12C160.213 24.2301 159.086 23.7173 157.9 23.712C156.317 23.6272 154.928 24.0428 153.869 25.2916C153.838 25.3186 153.805 25.3413 153.769 25.3602C153.099 24.3159 151.937 23.6898 150.694 23.7022C149.448 23.6542 148.248 24.1815 147.442 25.1313C147.382 24.7795 147.312 24.4956 147.29 24.2079C147.273 23.9678 147.164 23.9246 146.95 23.93C146.418 23.9435 145.887 23.9343 145.355 23.9343H144.267V34.7966H147.71V34.4318C147.712 32.6017 147.712 30.7722 147.71 28.9421C147.685 28.4191 147.819 27.9016 148.093 27.4552C148.549 26.7893 149.373 26.4789 150.155 26.6792C150.808 26.8276 151.245 27.3581 151.354 28.152C151.385 28.3781 151.4 28.6064 151.401 28.8352C151.402 30.7069 151.403 32.578 151.403 34.4496V34.8037H154.85V34.4388C154.85 32.6093 154.832 30.7792 154.862 28.9496C154.869 28.4947 154.964 28.0457 155.142 27.6269C155.479 26.8583 156.291 26.5146 157.186 26.6635C157.91 26.7844 158.38 27.3187 158.496 28.1703C158.525 28.397 158.54 28.6253 158.539 28.8536C158.54 30.7144 158.541 32.5758 158.541 34.4367V34.7972H161.973C161.985 34.7702 161.994 34.7421 161.999 34.7135C161.995 32.3745 162.015 30.035 161.976 27.6959L161.975 27.6965Z" fill="white"/>
<path d="M138.659 24.3134C138.656 26.0598 138.656 27.8063 138.659 29.5527C138.687 30.1383 138.534 30.7179 138.222 31.2144C137.73 31.9316 136.849 32.2765 135.999 32.0844C135.217 31.9203 134.634 31.2646 134.564 30.4696C134.526 30.2235 134.508 29.9747 134.51 29.7254C134.508 27.9163 134.507 26.1073 134.507 24.2988V23.9518H131.058C131.051 24.0603 131.041 24.1515 131.041 24.2427C131.041 26.1969 131.036 28.1517 131.045 30.1059C131.044 30.4901 131.072 30.8744 131.131 31.2543C131.373 32.7363 132.026 33.9576 133.442 34.6387C135.229 35.452 137.333 35.0921 138.747 33.7315C138.787 33.6926 138.833 33.6586 138.906 33.596C138.968 33.9404 139.037 34.2437 139.072 34.5508C139.097 34.7596 139.179 34.8298 139.391 34.826C140.038 34.8141 140.684 34.8217 141.331 34.8217H142.109V23.9453H138.657L138.659 24.3139L138.659 24.3134Z" fill="white"/>
<path d="M118.322 25.2895C118.221 24.7946 118.136 24.372 118.051 23.9521H115.051V34.7999H118.491V34.4383C118.491 32.8797 118.489 31.3211 118.493 29.763C118.493 29.4721 118.511 29.1817 118.543 28.8925C118.672 27.7661 119.34 26.9927 120.346 26.8125C120.976 26.6878 121.63 26.786 122.197 27.0899C122.323 27.1574 122.449 27.2243 122.592 27.3009L124.043 24.7779C123.306 24.1 122.344 23.7179 121.342 23.705C120.121 23.6472 118.965 24.2538 118.321 25.29L118.322 25.2895Z" fill="white"/>
<path d="M129.032 23.9531H125.592V34.795H129.032V23.9531Z" fill="white"/>
<path d="M127.322 19.0977C126.195 19.0944 125.355 19.8117 125.289 20.836C125.287 20.8522 125.286 20.8689 125.285 20.8851C125.217 21.8981 125.984 22.774 126.999 22.842C128.093 22.9926 129.068 22.4065 129.292 21.4647C129.597 20.176 128.703 19.102 127.323 19.0977H127.322Z" fill="white"/>
<path d="M45.8549 15.5C45.3207 15.5 44.8545 15.7796 44.5874 16.1984H36.5669L34.7986 17.9631H27.3113C27.4849 18.4775 27.6433 19.0118 27.7871 19.5666H35.4637L37.2304 17.8018H44.5858C44.8524 18.2222 45.3196 18.5028 45.8544 18.5028C46.6855 18.5028 47.3588 17.8304 47.3588 17.0014C47.3588 16.1725 46.6855 15.5 45.8549 15.5Z" fill="#6FBB3F"/>
<path d="M39.2023 22.8794C39.477 23.2442 39.9096 23.4833 40.4017 23.4833C41.2328 23.4833 41.9061 22.8108 41.9061 21.9819C41.9061 21.1529 41.2323 20.4805 40.4017 20.4805C39.8279 20.4805 39.3353 20.8048 39.0817 21.276H28.179C28.2822 21.7957 28.3753 22.3305 28.4601 22.8794H39.2023Z" fill="#6FBB3F"/>
<path d="M28.5493 24.4211V24.4233C28.5504 24.4233 28.5515 24.4233 28.5531 24.4233C28.5185 24.9651 28.4055 25.4962 28.2222 26.0019H35.5018L37.3026 27.799H42.2235C42.49 28.2184 42.9567 28.4985 43.4915 28.4985C44.3227 28.4985 44.9959 27.826 44.9959 26.997C44.9959 26.1681 44.3221 25.4956 43.4915 25.4956C42.9567 25.4956 42.49 25.7763 42.2235 26.1956H37.9693L36.1686 24.3984H28.5466C28.5461 24.406 28.5466 24.4135 28.5466 24.4211H28.5504H28.5493Z" fill="#6FBB3F"/>
<path d="M27.3921 27.5178C26.177 29.2092 24.6672 30.6496 22.9443 31.7744C22.9027 31.8019 22.8605 31.8256 22.8189 31.8526C22.6485 31.9616 22.4777 32.0685 22.3035 32.171C22.1273 32.2763 21.9515 32.375 21.7752 32.4716C21.7622 32.4787 21.7487 32.4862 21.7357 32.4932C20.6959 33.0588 19.6555 33.4809 18.6545 33.775C18.5977 33.7923 18.542 33.8117 18.4847 33.8284C18.4139 33.8489 18.3414 33.8635 18.27 33.8829C18.1597 33.9121 18.0499 33.9401 17.9407 33.9666C17.7796 34.0054 17.6184 34.0416 17.4557 34.0745C17.3448 34.0972 17.2361 34.1166 17.1269 34.1355C16.9965 34.1582 16.8662 34.1814 16.7354 34.1997C16.5429 34.2278 16.3552 34.2494 16.1692 34.2677C16.1146 34.2731 16.06 34.2801 16.0053 34.285C15.7604 34.306 15.5214 34.3195 15.2899 34.3244C15.2645 34.3249 15.2391 34.3282 15.2137 34.3287V34.3314H15.2126C15.1872 34.3319 15.1601 34.3303 15.1347 34.3303H15.1234C15.1185 34.3303 15.1142 34.3314 15.1093 34.3314V34.3303H15.105V34.3319H15.0677C15.065 34.3319 15.0612 34.3319 15.0585 34.3319V34.3293C12.2168 34.2899 8.28441 33.0599 4.95659 29.8865C4.18818 29.1536 3.45167 28.3176 2.76869 27.3683C2.14574 26.4978 1.78181 25.4702 1.71746 24.4022H1.72124C1.72124 24.4022 1.72503 24.4011 1.72665 24.4006C1.6942 23.9769 1.7088 23.5511 1.77099 23.1307C2.07706 20.6827 2.73624 18.2918 3.72691 16.0316C2.86819 14.0391 2.28147 11.9402 1.98243 9.79118C1.79046 8.14134 1.86022 6.44888 2.49831 5.06133C2.64486 4.74831 2.9877 4.57615 3.32729 4.64577C3.89995 4.75695 4.88197 5.118 6.24846 6.199C7.66308 7.37013 8.93765 8.701 10.0462 10.1641C11.6658 9.64438 13.3589 9.38749 15.0601 9.40368V9.40152C15.0839 9.40152 15.1104 9.40368 15.1369 9.40368C15.1634 9.40368 15.1872 9.40152 15.2137 9.40152V9.40368C16.8684 9.38965 18.515 9.63197 20.0951 10.1215C21.1923 8.67726 22.4517 7.36419 23.8496 6.2071C25.2204 5.11746 26.204 4.75641 26.7783 4.64577C27.1179 4.57615 27.4607 4.74831 27.6078 5.06187C28.2486 6.45589 28.3173 8.15592 28.121 9.81384C27.836 11.8598 27.2882 13.8604 26.4922 15.7672C26.4809 15.7941 26.4706 15.8217 26.4593 15.8487C26.569 16.0737 26.6729 16.3063 26.7745 16.5416H30.6458L33.4821 13.7126H35.5818C35.8484 14.1319 36.3151 14.412 36.8499 14.412C37.681 14.412 38.3543 13.7395 38.3543 12.9106C38.3543 12.0816 37.6805 11.4092 36.8499 11.4092C36.3151 11.4092 35.8484 11.6898 35.5818 12.1091H32.8169L29.9801 14.9382H28.6158C29.1733 13.3386 29.5794 11.6898 29.8141 10.0119L29.8184 9.97737C30.0823 7.74359 29.8606 5.83471 29.1555 4.30199L29.1566 4.29983C28.7504 3.43795 27.8836 2.88692 26.9292 2.88477C26.7697 2.88477 26.6107 2.89988 26.4544 2.93118C25.335 3.14759 24.1005 3.78713 22.7848 4.83359L22.7578 4.85517C21.56 5.84766 20.4563 6.94701 19.4597 8.14026C18.1121 7.81969 16.7321 7.65778 15.3467 7.65778H14.9081C13.4822 7.65778 12.0616 7.83048 10.6778 8.17265C9.66983 6.9632 8.55263 5.84928 7.33971 4.84438L7.31267 4.82279C5.67904 3.53023 4.42989 3.08283 3.67338 2.9355C2.55455 2.70613 1.42545 3.27604 0.947419 4.31117C0.24822 5.82446 0.0254279 7.72093 0.281747 9.94445L0.287154 9.98546C0.572133 12.0357 1.10208 14.0445 1.86508 15.969C0.985272 18.1774 0.384491 20.4873 0.0767998 22.8441C0.0075829 23.3196 -0.0151289 23.801 0.00920518 24.2808C0.00596063 24.3418 0.00596063 24.4033 0.00920518 24.4648C0.0146127 24.5522 0.0211018 24.6391 0.0292132 24.7255C0.153047 26.024 0.618638 27.2669 1.3784 28.3284C2.06138 29.2772 2.82655 30.1645 3.66526 30.9794L3.76044 31.0728C3.83398 31.1429 3.90752 31.2109 3.98161 31.2784L4.03082 31.3232C4.03082 31.3232 4.1514 31.436 4.18277 31.4646C4.23414 31.511 4.28605 31.5558 4.33797 31.6011L4.47856 31.7242C4.52236 31.763 4.56671 31.8019 4.61159 31.8402C4.65647 31.8785 4.69162 31.9066 4.73164 31.9395L4.86466 32.0496C4.92415 32.0993 4.98417 32.1484 5.04365 32.1969C5.07664 32.2228 5.25509 32.3605 5.25509 32.3605C5.32863 32.4193 5.40488 32.4776 5.48167 32.5353L5.61253 32.6303C5.71527 32.7064 5.81802 32.782 5.92076 32.8543L6.02675 32.9277C6.13923 33.0059 6.25225 33.0842 6.36635 33.1597L6.45287 33.2153C6.57237 33.2936 6.69188 33.3702 6.81031 33.4442L6.88385 33.4895C7.00822 33.5656 7.13206 33.6411 7.25859 33.7145L7.317 33.7469C7.44678 33.8203 7.57656 33.8943 7.70851 33.9677L7.75231 33.9909C7.88695 34.0643 8.0216 34.1344 8.15409 34.2024L8.20005 34.2251C8.3347 34.2931 8.46989 34.3595 8.60508 34.4232L8.64726 34.442C8.78353 34.5063 8.9198 34.5683 9.05229 34.6261L9.09771 34.645C9.23236 34.7038 9.36755 34.761 9.50058 34.815L9.54708 34.8333C9.68065 34.8873 9.81475 34.9396 9.944 34.9882L10.0002 35.0082C10.13 35.0562 10.2603 35.1032 10.3912 35.1485L10.4566 35.1701C10.5815 35.2122 10.7059 35.2537 10.8298 35.2926L10.9065 35.3153C11.0266 35.352 11.1461 35.3887 11.2651 35.4221L11.3559 35.4469C11.47 35.4788 11.5841 35.5101 11.696 35.5387L11.8107 35.5662C11.9151 35.5921 12.02 35.6175 12.1249 35.6396L12.2503 35.6666C12.3487 35.6882 12.4472 35.7092 12.545 35.7281L12.7154 35.7594C12.797 35.7745 12.8787 35.7902 12.9598 35.8037L13.181 35.8382C13.2437 35.8479 13.3064 35.8577 13.3681 35.8663C13.413 35.8728 13.6071 35.897 13.6071 35.897C13.6612 35.9041 13.7158 35.9111 13.7699 35.9176C13.8239 35.924 14.1635 35.9543 14.1635 35.9543C14.2252 35.9597 14.2852 35.9629 14.3479 35.9667L14.5512 35.9802C14.6226 35.9839 14.6929 35.9861 14.7632 35.9888L14.9017 35.9937C14.953 35.9985 15.0049 36.0007 15.0569 36.0007H15.2126C15.264 36.0007 15.3143 35.998 15.3645 35.9942C16.1108 35.9737 16.8538 35.8927 17.5871 35.7535L17.6336 35.7449C17.7715 35.719 17.9104 35.6903 18.0505 35.6596L18.0737 35.6547C20.8776 35.0174 23.4829 33.7059 25.6627 31.8343C26.7004 30.9648 27.6327 29.9794 28.4541 28.9054H28.8689L31.6776 31.7085H37.9952C38.2618 32.1279 38.7285 32.408 39.2633 32.408C40.0944 32.408 40.7677 31.7355 40.7677 30.9065C40.7677 30.0776 40.0939 29.4051 39.2633 29.4051C38.7285 29.4051 38.2618 29.6858 37.9952 30.1051H32.3416L29.5329 27.302H27.5473C27.5316 27.3246 27.5181 27.3478 27.5018 27.3705C27.4661 27.4212 27.4283 27.4698 27.3921 27.52V27.5178Z" fill="#6FBB3F"/>
<path d="M24.7575 12.3839C23.9112 11.4983 22.9151 10.7665 21.8125 10.2246C22.914 10.7675 23.9101 11.4994 24.7575 12.3839Z" fill="#6FBB3F"/>
<path d="M25.7715 13.604C26.3193 11.8948 26.8741 9.67181 26.8352 7.80664C26.8741 9.67181 26.3193 11.8943 25.7715 13.6034V13.604Z" fill="#6FBB3F"/>
<path d="M9.87873 26.2446C9.87873 26.2446 9.87873 26.2435 9.87873 26.243C8.99892 25.2305 7.99636 24.6304 6.99487 24.2969C7.99581 24.6309 8.99892 25.2311 9.87873 26.2446Z" fill="#6FBB3F"/>
<path d="M5.85805 7.7251C4.8079 6.79306 3.99028 6.26848 3.52739 6.08984C2.84225 8.18006 3.6377 11.4711 4.38395 13.7588C4.63324 13.4005 4.90253 13.0562 5.18967 12.7275C6.07273 11.7172 7.14289 10.8861 8.34066 10.2789C7.4257 9.21357 6.58645 8.37219 5.85859 7.72564L5.85805 7.7251Z" fill="#E65D02"/>
<path d="M26.5762 6.0918C25.7986 6.3924 24.0238 7.66337 21.8132 10.2226C22.9153 10.7644 23.9114 11.4963 24.7582 12.3819C24.8663 12.4952 24.9734 12.6102 25.0767 12.7278H25.0778C25.3195 13.0036 25.5509 13.294 25.7721 13.6016C26.3199 11.8918 26.8747 9.66994 26.8358 7.80477C26.8228 7.18359 26.7433 6.6018 26.5762 6.0918Z" fill="#E65D02"/>
<path d="M26.7731 16.5421C26.672 16.3062 26.5676 16.0741 26.4579 15.8491C26.4692 15.8221 26.4795 15.7946 26.4908 15.7676C27.2868 13.8609 27.8352 11.8602 28.1196 9.81428C28.3159 8.15635 28.2472 6.45633 27.6064 5.06231C27.4599 4.74875 27.1165 4.57713 26.7769 4.64621C26.2032 4.75631 25.219 5.1179 23.8482 6.20753C22.4509 7.36463 21.1909 8.67823 20.0937 10.1219C18.5136 9.6324 16.867 9.39062 15.2123 9.40412V9.40196C15.1863 9.40196 15.162 9.40412 15.1355 9.40412C15.109 9.40412 15.083 9.40196 15.0587 9.40196V9.40412C13.3575 9.38792 11.6644 9.64428 10.0448 10.1645C8.93625 8.7009 7.66169 7.37056 6.24707 6.19944C4.88057 5.11844 3.89856 4.75793 3.3259 4.64621C2.98684 4.57659 2.644 4.74875 2.49692 5.06177C1.85882 6.44931 1.78907 8.14124 1.98103 9.79161C2.27953 11.9401 2.86625 14.039 3.72552 16.032C2.73431 18.2923 2.07567 20.6831 1.7696 23.1311C1.70741 23.5515 1.69281 23.9774 1.72526 24.401C2.59371 24.1177 4.79135 23.5618 6.99439 24.2969C7.99588 24.6304 8.99844 25.23 9.87825 26.243C9.87825 26.2435 9.87933 26.2441 9.87987 26.2446C10.479 23.8721 12.6529 22.2358 15.1036 22.3124H15.1074C15.9807 22.2968 16.8454 22.484 17.6333 22.8591C18.3011 23.2099 18.8797 23.6924 19.3388 24.2699C19.3502 24.2839 19.3593 24.3001 19.3707 24.3141C19.4729 24.4453 19.5708 24.5797 19.6605 24.7194C19.6773 24.7453 19.6903 24.7739 19.7065 24.7998C19.7871 24.931 19.8655 25.0632 19.9347 25.2008C19.9574 25.2456 19.9742 25.2937 19.9958 25.3395C20.0531 25.462 20.111 25.584 20.1586 25.7108C20.1851 25.781 20.2035 25.8544 20.2273 25.9262C20.2624 26.032 20.3008 26.1367 20.3289 26.2451C23.1906 22.946 27.3555 24.0205 28.5441 24.4199C28.5446 24.4123 28.5441 24.4048 28.5441 24.3972C28.5755 23.9741 28.5609 23.5488 28.4971 23.129H28.4987C28.4862 23.0442 28.4716 22.9627 28.4587 22.8791C28.3738 22.3302 28.2802 21.7954 28.1775 21.2757C28.0601 20.6858 27.9298 20.117 27.7865 19.5659C27.6421 19.0111 27.4842 18.4768 27.3106 17.9625C27.1446 17.4709 26.9667 16.9954 26.7715 16.5421H26.7731ZM5.18989 12.7297C4.90274 13.0584 4.63345 13.4027 4.38416 13.761C4.38416 13.761 4.38416 13.761 4.38362 13.7621C3.63629 11.4727 2.84192 8.18118 3.52706 6.09204C3.99103 6.27068 4.80811 6.79525 5.85826 7.72784C6.58612 8.37439 7.42538 9.21576 8.34034 10.2811C7.14256 10.8883 6.07294 11.7194 5.18935 12.7297H5.18989ZM12.3214 21.2147C11.9602 21.9454 9.01304 21.1586 7.55137 20.1553C7.34913 20.015 7.22908 19.7845 7.23016 19.539L7.37779 18.3624C7.37779 18.1644 7.5384 18.0041 7.73685 18.0041C7.78011 18.0041 7.82337 18.0122 7.86393 18.0273C9.13687 18.5054 12.7286 20.1456 12.3214 21.2147ZM12.8686 17.2447C12.7042 17.527 12.3884 17.6857 12.0635 17.649H12.0624C11.3453 17.5928 9.84148 17.4417 9.37318 17.1497C8.74699 16.7622 9.00763 14.9656 11.2588 15.2166C12.9741 15.4076 13.1828 16.5771 12.8686 17.2447ZM17.471 17.2447C17.1568 16.5771 17.3656 15.4076 19.0809 15.2166C21.3315 14.9656 21.5921 16.7622 20.9659 17.1497C20.4971 17.4417 18.9938 17.5928 18.2768 17.6495H18.2757C17.9507 17.6846 17.6354 17.5264 17.471 17.2442V17.2447ZM22.7813 20.1542C21.3196 21.1569 18.3719 21.9443 18.0112 21.2136C17.604 20.1445 21.1958 18.5044 22.4687 18.0262C22.5098 18.0105 22.5536 18.0025 22.5979 18.0025C22.7964 18.0025 22.957 18.1633 22.957 18.3613L23.1046 19.5379V19.539C23.1246 19.7888 22.9986 20.0284 22.7818 20.1542H22.7813ZM25.7722 13.604C25.551 13.2958 25.3201 13.0055 25.0779 12.7297H25.0768C24.9735 12.612 24.867 12.4971 24.7583 12.3837C23.9109 11.4992 22.9154 10.7674 21.8133 10.2244C24.0234 7.66577 25.7987 6.39481 26.5763 6.09366C26.7434 6.60366 26.8223 7.18545 26.8353 7.80663C26.8748 9.67234 26.3205 11.8948 25.7722 13.604Z" fill="#F68D36"/>
<path d="M18.6664 30.2329C18.675 29.9301 18.7502 29.6333 18.8875 29.3629C18.893 29.351 18.8962 29.3381 18.8967 29.3241C18.9 29.2614 18.8513 29.2075 18.7886 29.2048C18.423 29.1961 17.6427 29.1805 17.4832 29.1902H16.101C15.9702 28.977 15.7695 28.8151 15.5332 28.7326V27.8059C16.7683 27.6483 17.1901 26.7638 17.3107 25.9575C17.3502 25.6925 17.3572 25.4356 17.3496 25.2159C17.3377 24.8495 17.0365 24.5586 16.6688 24.5586H13.5925C13.2247 24.5586 12.9235 24.8495 12.9111 25.2159C12.8862 25.9359 13.0165 27.0584 13.9472 27.5663C14.1619 27.6829 14.4187 27.767 14.7259 27.8059L14.7275 27.807V28.7326C14.4912 28.8151 14.2906 28.977 14.1597 29.1902H12.7775C12.618 29.18 11.8382 29.1967 11.4721 29.2048C11.4592 29.2053 11.4462 29.2091 11.4337 29.214C11.3764 29.2393 11.3499 29.3057 11.3743 29.3635C11.51 29.6338 11.5857 29.9301 11.5954 30.2324C11.6063 30.3246 11.6863 30.3937 11.7798 30.3899H11.9723L12.419 31.5665C12.4233 31.5778 12.4298 31.5881 12.4379 31.5961C12.4698 31.6274 12.5201 31.6274 12.5526 31.5961C12.6396 31.4968 12.7175 31.3894 12.7846 31.2761C12.7992 31.2524 12.8073 31.2254 12.8073 31.1973V29.8519H12.8094V29.8503C13.5692 29.9577 14.336 30.0116 15.1033 30.0116H15.1498C15.6933 30.0132 16.2357 29.9787 16.777 29.9269C17.0019 29.9053 17.2274 29.8886 17.4513 29.8578H17.4529V31.1962C17.4529 31.2243 17.4605 31.2513 17.4756 31.275C17.5432 31.3889 17.6211 31.4963 17.7087 31.5961C17.7228 31.6113 17.7428 31.6194 17.7633 31.6199C17.7979 31.6199 17.8282 31.5978 17.8396 31.5654L18.2862 30.3889H18.482C18.5052 30.3894 18.5274 30.3862 18.5485 30.3786C18.6107 30.3565 18.6572 30.3009 18.6658 30.2318L18.6664 30.2329Z" fill="#202740"/>
<path d="M28.5493 24.4209C28.5493 24.4209 28.5493 24.4192 28.5493 24.4187H28.5455C27.3569 24.0193 23.192 22.9443 20.3303 26.2439C20.3017 26.1355 20.2633 26.0308 20.2287 25.925C20.2049 25.8537 20.1865 25.7798 20.16 25.7096C20.1119 25.5828 20.054 25.4608 19.9972 25.3383C19.9756 25.2925 19.9588 25.2444 19.9361 25.1996C19.8669 25.062 19.7885 24.9292 19.7079 24.7986C19.6917 24.7722 19.6787 24.7441 19.662 24.7182C19.5722 24.5779 19.4743 24.4441 19.3721 24.3129C19.3608 24.2983 19.3516 24.2827 19.3402 24.2687C18.8811 23.6917 18.3025 23.2087 17.6347 22.8579C16.8462 22.4828 15.9816 22.2956 15.1088 22.3112H15.105C12.6543 22.234 10.4804 23.8709 9.88129 26.2434C9.88129 26.2429 9.88021 26.2423 9.87967 26.2418C9.87967 26.2423 9.87967 26.2429 9.87967 26.2434C8.99985 25.2299 7.99783 24.6297 6.99635 24.2956C4.79276 23.5606 2.59567 24.1165 1.72721 24.3998C1.72721 24.3998 1.72343 24.4009 1.7218 24.4014H1.71802C1.78183 25.4689 2.1463 26.497 2.76925 27.3676C3.45223 28.3169 4.18874 29.1534 4.95715 29.8858C8.28443 33.0591 12.2174 34.2891 15.059 34.3285V34.3312C15.0617 34.3312 15.0655 34.3312 15.0682 34.3312H15.1055V34.3296H15.1099V34.3306C15.1147 34.3306 15.1191 34.3301 15.1239 34.3296H15.1353C15.1607 34.3296 15.1877 34.3312 15.2132 34.3312C15.2132 34.3312 15.2137 34.3306 15.2142 34.3306V34.3279C15.2396 34.3274 15.2651 34.3247 15.2905 34.3236C15.5219 34.3188 15.7615 34.3053 16.0059 34.2842C16.0605 34.2794 16.1151 34.2724 16.1698 34.267C16.3558 34.2486 16.5434 34.227 16.7359 34.199C16.8668 34.1801 16.9971 34.1574 17.1274 34.1347C17.2367 34.1153 17.3454 34.0959 17.4562 34.0737C17.6184 34.0414 17.7801 34.0047 17.9413 33.9658C18.0505 33.9399 18.1603 33.9113 18.2706 33.8822C18.342 33.8627 18.4144 33.8482 18.4853 33.8277C18.5421 33.8109 18.5983 33.7915 18.6551 33.7742C19.656 33.4801 20.6959 33.0581 21.7363 32.4925C21.7493 32.4854 21.7628 32.4779 21.7758 32.4709C21.9521 32.3743 22.1284 32.2755 22.3041 32.1703C22.4782 32.0677 22.6496 31.9603 22.8194 31.8518C22.8611 31.8249 22.9033 31.8011 22.9449 31.7736C24.6677 30.6489 26.1775 29.2084 27.3926 27.5171C27.4289 27.4669 27.4667 27.4183 27.5024 27.3676C27.5186 27.3454 27.5321 27.3217 27.5478 27.299C27.8285 26.8943 28.0551 26.4582 28.2221 25.9995C28.406 25.4938 28.5185 24.9627 28.5531 24.4209C28.552 24.4209 28.5509 24.4209 28.5493 24.4209ZM15.9194 30.9171C15.8934 30.9085 15.8648 30.9031 15.8318 30.9031C15.5733 30.9031 15.51 31.6716 15.1385 31.6959V31.6975C15.1385 31.6975 15.1364 31.6975 15.1347 31.6964C15.1331 31.6964 15.132 31.6959 15.131 31.6953C15.1288 31.6953 15.1255 31.697 15.1234 31.697L15.1228 31.6953C15.1174 31.6953 15.112 31.6932 15.1066 31.6916H15.1039C14.7486 31.6414 14.6778 30.9031 14.4312 30.9031C14.1738 30.9031 14.1506 31.2161 13.9088 31.2161C13.8764 31.215 13.844 31.2112 13.8121 31.2042C13.6228 31.1476 13.4941 30.9722 13.4984 30.7746V30.5469H16.7678V30.7746C16.7716 30.9722 16.6435 31.1476 16.4542 31.2042C16.4223 31.2112 16.3898 31.2156 16.3574 31.2161C16.3271 31.2161 16.3006 31.2112 16.2763 31.2026C16.1314 31.1513 16.0762 30.9684 15.9215 30.9166L15.9194 30.9171ZM18.4837 30.3882H18.2879L17.8412 31.5647C17.8299 31.5971 17.7991 31.6187 17.765 31.6192C17.7444 31.6182 17.7244 31.6101 17.7104 31.5955C17.6228 31.4962 17.5449 31.3888 17.4773 31.2744C17.4627 31.2506 17.4551 31.2236 17.4546 31.1956V29.8572C17.4546 29.8572 17.4535 29.8572 17.453 29.8572C17.2291 29.8874 17.0036 29.9041 16.7786 29.9257C16.2379 29.977 15.6955 30.012 15.1515 30.0104H15.105C14.3377 30.0104 13.5709 29.9565 12.8111 29.8491V29.8507C12.8111 29.8507 12.8095 29.8507 12.8089 29.8507V31.1961C12.8089 31.2242 12.8014 31.2512 12.7862 31.2749C12.7192 31.3888 12.6413 31.4957 12.5542 31.595C12.5223 31.6257 12.4715 31.6263 12.4396 31.595C12.431 31.5863 12.4245 31.5766 12.4207 31.5653L11.974 30.3887H11.7815C11.6885 30.3925 11.6079 30.324 11.5971 30.2312C11.5874 29.9289 11.5122 29.6321 11.3759 29.3623C11.3511 29.3045 11.3781 29.2381 11.4354 29.2128C11.4479 29.2079 11.4603 29.2041 11.4738 29.2036C11.8399 29.196 12.6197 29.1788 12.7792 29.189H14.1614C14.2922 28.9758 14.4929 28.8139 14.7292 28.7314V27.8058C14.7292 27.8058 14.7281 27.8058 14.7276 27.8058C14.4204 27.7659 14.163 27.6817 13.9489 27.5651C13.0182 27.0572 12.8874 25.9347 12.9128 25.2147C12.9247 24.8483 13.2264 24.5574 13.5941 24.5574H16.6705C17.0382 24.5574 17.3394 24.8483 17.3513 25.2147C17.3589 25.4344 17.3513 25.6913 17.3124 25.9563C17.1918 26.7626 16.77 27.6471 15.5349 27.8047V28.7314C15.7712 28.8139 15.9718 28.9758 16.1027 29.189H17.4849C17.6444 29.1793 18.4247 29.195 18.7903 29.2036C18.8535 29.2068 18.9017 29.2603 18.8984 29.3229C18.8979 29.3364 18.8946 29.3498 18.8892 29.3623C18.7519 29.6321 18.6767 29.9289 18.668 30.2317C18.6594 30.3008 18.6129 30.3558 18.5507 30.3785C18.5302 30.386 18.5074 30.3893 18.4842 30.3887L18.4837 30.3882Z" fill="white"/>
<path d="M16.4517 31.2042C16.641 31.1475 16.7697 30.9722 16.7653 30.7746V30.5469H13.4959V30.7752C13.4921 30.9727 13.6203 31.1481 13.8096 31.2048C13.8415 31.2118 13.8739 31.2161 13.9064 31.2166C14.1481 31.2166 14.1713 30.9041 14.4287 30.9036C14.6753 30.9036 14.7462 31.6419 15.1014 31.6921H15.1041C15.1095 31.6943 15.115 31.6953 15.1204 31.6959V31.6975C15.1225 31.6975 15.1263 31.6959 15.1285 31.6959C15.1296 31.6959 15.1312 31.6959 15.1323 31.697C15.1339 31.697 15.135 31.698 15.136 31.698V31.6964C15.5075 31.6716 15.5714 30.9036 15.8293 30.9036C15.8617 30.9036 15.8909 30.9085 15.9169 30.9176C16.0716 30.9695 16.1267 31.1524 16.2716 31.2037C16.296 31.2123 16.3225 31.2172 16.3528 31.2172C16.3852 31.2161 16.4176 31.2123 16.4495 31.2053L16.4517 31.2042Z" fill="#202740"/>
<path d="M22.9563 18.3608C22.9563 18.1628 22.7957 18.002 22.5972 18.002C22.5529 18.002 22.5091 18.01 22.468 18.0257C21.195 18.5039 17.6033 20.144 18.0105 21.2131C18.3712 21.9438 21.3189 21.157 22.7805 20.1537C22.9979 20.0274 23.1234 19.7883 23.1039 19.5385V19.5374L22.9563 18.3608Z" fill="#202740"/>
<path d="M7.86351 18.0271C7.82295 18.012 7.77969 18.0039 7.73643 18.0039C7.53798 18.0039 7.37737 18.1642 7.37737 18.3623L7.22974 19.5388C7.22866 19.7843 7.34871 20.0148 7.55095 20.1551C9.01262 21.1579 11.9597 21.9453 12.321 21.2145C12.7282 20.1454 9.13645 18.5053 7.86351 18.0271Z" fill="#202740"/>
<path d="M11.2586 15.2173C9.00741 14.9663 8.74676 16.763 9.37296 17.1505C9.8418 17.4424 11.3451 17.5935 12.0621 17.6502H12.0632C12.3882 17.6858 12.704 17.5272 12.8684 17.2449C13.1826 16.5773 12.9739 15.4083 11.2586 15.2173Z" fill="white"/>
<path d="M18.2759 17.6502C18.993 17.593 20.4968 17.4419 20.9651 17.1505C21.5913 16.763 21.3307 14.9663 19.08 15.2173C17.3647 15.4083 17.156 16.5779 17.4702 17.2454C17.6346 17.5272 17.9498 17.6858 18.2748 17.6497L18.2759 17.6502Z" fill="white"/>
<path d="M70.0107 19.4219H71.7282V25.0622C71.7282 25.0622 73.0465 23.687 74.9727 23.687C76.8989 23.687 79.4021 24.9942 79.4021 27.9155" stroke="#6FBB3F" stroke-width="1.05343" stroke-linecap="round" stroke-linejoin="round"/>
<path d="M79.4108 29.0568C79.8454 29.0568 80.1976 28.7053 80.1976 28.2716C80.1976 27.8379 79.8454 27.4863 79.4108 27.4863C78.9763 27.4863 78.624 27.8379 78.624 28.2716C78.624 28.7053 78.9763 29.0568 79.4108 29.0568Z" fill="#6FBB3F"/>
<path d="M69.7128 20.1564C70.1474 20.1564 70.4996 19.8049 70.4996 19.3712C70.4996 18.9375 70.1474 18.5859 69.7128 18.5859C69.2783 18.5859 68.926 18.9375 68.926 19.3712C68.926 19.8049 69.2783 20.1564 69.7128 20.1564Z" fill="#6FBB3F"/>
</g>
<defs>
<linearGradient id="paint0_linear_469_4232" x1="73.4414" y1="25.0326" x2="73.4414" y2="10.9273" gradientUnits="userSpaceOnUse">
<stop offset="0.149" stop-color="#6FBB3F" stop-opacity="0"/>
<stop offset="0.965" stop-color="#6FBB3F"/>
</linearGradient>
<clipPath id="clip0_469_4232">
<rect width="162" height="36" fill="white"/>
</clipPath>
</defs>
</svg>
