<svg width="252" height="56" viewBox="0 0 252 56" fill="none" xmlns="http://www.w3.org/2000/svg">
<g clip-path="url(#clip0_343_1460)">
<path d="M114.538 21.0664C117.123 21.0664 119.219 18.9747 119.219 16.3945C119.219 13.8143 117.123 11.7226 114.538 11.7226C111.953 11.7226 109.857 13.8143 109.857 16.3945C109.857 18.9747 111.953 21.0664 114.538 21.0664Z" fill="#6FBB3F"/>
<path d="M105.421 16.4717C105.421 11.6143 108.992 8.33347 114.639 8.33347C120.319 8.33347 123.89 11.6135 123.89 16.4717C123.89 21.33 120.319 24.61 114.639 24.61C108.993 24.61 105.421 21.3292 105.421 16.4717ZM114.639 19.2749C117.02 19.2749 118.584 18.0089 118.584 16.2879C118.584 14.5669 117.02 13.3009 114.639 13.3009C112.292 13.3009 110.728 14.5669 110.728 16.2879C110.728 18.0089 112.292 19.2749 114.639 19.2749Z" fill="white"/>
<path d="M134.675 38.8818H93.8101L110.727 16.2879H118.584L134.675 38.8818Z" fill="url(#paint0_linear_343_1460)"/>
<path opacity="0.59" d="M105.421 16.4717C105.421 11.6143 108.992 8.33347 114.639 8.33347C120.319 8.33347 123.89 11.6135 123.89 16.4717C123.89 21.33 120.319 24.61 114.639 24.61C108.993 24.61 105.421 21.3292 105.421 16.4717ZM114.639 19.2749C117.02 19.2749 118.584 18.0089 118.584 16.2879C118.584 14.5669 117.02 13.3009 114.639 13.3009C112.292 13.3009 110.728 14.5669 110.728 16.2879C110.728 18.0089 112.292 19.2749 114.639 19.2749Z" fill="white"/>
<path d="M91.9861 24.7116C85.3534 24.7116 81.4764 20.8759 81.4419 14.1891H86.8835C86.9516 17.7864 88.7887 19.7559 91.9852 19.7559C95.148 19.7559 97.0533 17.7193 97.0533 14.0875V5.29526H90.1144V0.475586H102.63V14.1555C102.63 20.6391 98.4471 24.7125 91.9844 24.7125L91.9861 24.7116Z" fill="white"/>
<path d="M132.766 21.3175C132.766 23.015 131.474 24.2365 129.637 24.2365C127.8 24.2365 126.508 23.015 126.508 21.3175C126.508 19.62 127.801 18.432 129.637 18.432C131.473 18.432 132.766 19.62 132.766 21.3175ZM132.324 16.7689H126.984V0.000427246H132.324V16.7689Z" fill="white"/>
<path d="M153.513 14.7667V24.2373H148.174V15.0723C148.174 12.8996 147.017 11.6101 145.113 11.6101C143.037 11.6101 141.644 13.1716 141.644 15.4115V24.2373H136.304V7.46795H140.929L141.269 9.43661C142.528 7.94227 144.432 7.09436 146.677 7.09436C150.827 7.09436 153.513 9.94536 153.513 14.7659V14.7667Z" fill="white"/>
<path d="M100.029 40.9202C98.2318 40.1755 96.3324 39.7079 94.3952 39.5325C93.2142 39.4552 92.0576 39.1597 90.9842 38.661C89.5198 37.8795 89.423 36.1618 90.8118 35.2543C91.2854 34.9462 91.8103 34.7271 92.3621 34.6062C95.0707 34.0269 97.8987 34.5424 100.229 36.0384C100.362 36.119 100.496 36.1954 100.658 36.2903L103.261 32.4209C103.224 32.3731 103.184 32.3294 103.138 32.2891C102.979 32.1791 102.82 32.0675 102.654 31.9676C99.4818 30.0468 95.7428 29.2794 92.0685 29.7957C90.0749 29.9997 88.1848 30.7805 86.6295 32.0415C83.4296 34.6767 83.2563 40.8942 88.1848 42.9401C88.5768 43.1323 88.9856 43.2876 89.4062 43.4043C91.0482 43.751 92.696 44.0717 94.3506 44.3647C95.4997 44.5671 96.6647 44.7089 97.6783 45.3411C97.9332 45.4796 98.1536 45.6727 98.3244 45.9069C98.9603 46.7792 98.7668 48.0007 97.8928 48.6345C97.4192 48.9963 96.8775 49.26 96.2996 49.4086C94.1605 49.9349 91.9095 49.7796 89.8621 48.9661C88.7232 48.4775 87.6111 47.9302 86.5294 47.3265L83.7266 51.2328H83.7282C83.7661 51.284 83.8082 51.3319 83.8536 51.3764C84.0336 51.5141 84.2102 51.6559 84.3978 51.7827C87.6725 53.9646 91.6008 54.9544 95.5207 54.585C97.3721 54.4876 99.1714 53.9445 100.766 53C103.391 51.5124 104.73 48.4851 104.063 45.5476C103.599 43.254 102.077 41.8487 100.029 40.9202Z" fill="white"/>
<path d="M141.85 38.6761C141.804 38.7114 141.75 38.7374 141.628 38.8121V30.2104H136.304V54.0796H140.923C141.039 53.4223 141.146 52.8044 141.266 52.1193C141.378 52.2167 141.427 52.2553 141.473 52.2981C141.945 52.7431 142.47 53.1293 143.036 53.4475C146.864 55.5975 151.713 54.2433 153.868 50.4227C154.935 48.407 155.286 46.0882 154.861 43.8476C153.862 37.531 146.911 34.769 141.851 38.677L141.85 38.6761ZM144.221 49.6965C142.599 49.1407 141.617 47.6271 141.617 45.6802C141.616 43.6184 142.723 42.0376 144.493 41.5742C147.263 40.8497 149.6 42.6672 149.671 45.6005C149.745 48.6647 147.073 50.677 144.221 49.6965Z" fill="white"/>
<path d="M123.323 42.2995C122.814 39.9094 121.589 38.0163 119.157 37.2549C116.418 36.3977 113.875 36.7956 111.756 38.9011C111.7 38.9356 111.64 38.9633 111.577 38.9834V30.2096H106.253V54.1023H111.591V45.3453C111.548 44.468 111.781 43.5991 112.259 42.862C113.043 41.6959 114.475 41.1452 115.84 41.486C117.001 41.6774 117.9 42.6051 118.053 43.7695C118.141 44.2128 118.182 44.6636 118.176 45.1144C118.187 47.9218 118.182 50.7299 118.182 53.5373V54.0821H123.534C123.542 53.9285 123.553 53.8169 123.553 53.7052C123.553 50.6074 123.566 47.5087 123.541 44.4109C123.539 43.7015 123.466 42.9938 123.321 42.2987L123.323 42.2995Z" fill="white"/>
<path d="M170.43 39.195C170.31 39.0951 170.249 39.0439 170.193 38.9918C169.632 38.4738 168.999 38.039 168.314 37.7006C164.377 35.7588 159.609 37.3699 157.664 41.2988C156.578 43.5697 156.378 46.1621 157.104 48.5715C159.029 55.4564 167.046 55.7889 170.259 52.2654C170.313 52.2209 170.372 52.1831 170.435 52.1521C170.556 52.8254 170.667 53.4559 170.78 54.093H175.397V37.249H170.78L170.43 39.195ZM170.108 45.6534C170.116 48.7285 167.56 50.6544 164.718 49.7124C163.072 49.1668 162.058 47.6338 162.058 45.6811C162.055 43.6394 163.184 42.0342 164.946 41.5758C167.744 40.8463 170.101 42.7109 170.109 45.6509V45.6525L170.108 45.6534Z" fill="white"/>
<path d="M132.262 37.2532H126.949V54.1023H132.262V37.2532Z" fill="white"/>
<path d="M129.631 29.721H129.629C127.876 29.7126 126.567 30.8208 126.464 32.4066C126.461 32.4335 126.459 32.4612 126.457 32.488C126.346 34.0579 127.531 35.4205 129.104 35.5313C130.819 35.7739 132.346 34.8471 132.68 33.3595C133.128 31.3723 131.75 29.7327 129.631 29.721Z" fill="white"/>
<path d="M251.961 43.0819C251.943 41.6086 251.403 40.1889 250.436 39.0741C249.22 37.6897 247.467 36.8922 245.622 36.8838C243.16 36.752 240.998 37.3984 239.351 39.341C239.304 39.383 239.252 39.4183 239.196 39.4476C238.153 37.8232 236.345 36.8493 234.412 36.8686C232.474 36.7939 230.608 37.6141 229.354 39.0917C229.26 38.5443 229.152 38.1027 229.118 37.6553C229.09 37.2817 228.922 37.2145 228.588 37.2229C227.761 37.2439 226.934 37.2296 226.108 37.2296H224.415V54.1266H229.77V53.5591C229.774 50.7123 229.774 47.8663 229.77 45.0195C229.732 44.206 229.941 43.4009 230.367 42.7067C231.076 41.6707 232.357 41.188 233.575 41.4994C234.59 41.7303 235.27 42.5555 235.439 43.7905C235.487 44.1422 235.511 44.4973 235.512 44.8533C235.514 47.7647 235.515 50.6754 235.515 53.5868V54.1375H240.877V53.57C240.877 50.724 240.849 47.8772 240.896 45.0313C240.906 44.3236 241.054 43.6251 241.331 42.9736C241.855 41.7781 243.119 41.2434 244.512 41.4751C245.638 41.6631 246.369 42.4943 246.549 43.819C246.594 44.1716 246.617 44.5267 246.615 44.8818C246.617 47.7765 246.619 50.672 246.619 53.5667V54.1274H251.958C251.976 54.0855 251.99 54.0418 251.997 53.9973C251.992 50.3589 252.023 46.7195 251.962 43.0811L251.961 43.0819Z" fill="white"/>
<path d="M215.692 37.8198C215.687 40.5365 215.687 43.2532 215.692 45.9699C215.735 46.8807 215.498 47.7824 215.013 48.5547C214.246 49.6705 212.876 50.2069 211.555 49.908C210.337 49.6528 209.431 48.6328 209.322 47.3962C209.262 47.0134 209.235 46.6264 209.237 46.2385C209.235 43.4245 209.233 40.6104 209.233 37.7972V37.2574H203.868C203.858 37.4261 203.842 37.568 203.842 37.7099C203.841 40.7497 203.834 43.7905 203.848 46.8304C203.846 47.4281 203.891 48.0258 203.982 48.6169C204.357 50.9222 205.374 52.822 207.576 53.8815C210.357 55.1466 213.63 54.5867 215.829 52.4703C215.892 52.4098 215.962 52.3569 216.077 52.2595C216.173 52.7951 216.279 53.267 216.335 53.7446C216.373 54.0695 216.501 54.1787 216.83 54.1728C217.836 54.1543 218.843 54.1661 219.849 54.1661H221.058V37.2473H215.689L215.691 37.8207L215.692 37.8198Z" fill="white"/>
<path d="M184.056 39.3377C183.9 38.5678 183.767 37.9105 183.634 37.2574H178.968V54.1317H184.32V53.5692C184.32 51.1447 184.316 48.7201 184.323 46.2964C184.323 45.8439 184.35 45.3923 184.401 44.9423C184.601 43.1902 185.64 41.9872 187.204 41.7068C188.185 41.5129 189.203 41.6657 190.084 42.1383C190.28 42.2433 190.476 42.3474 190.698 42.4666L192.955 38.5418C191.809 37.4874 190.312 36.893 188.754 36.8729C186.855 36.783 185.057 37.7266 184.055 39.3385L184.056 39.3377Z" fill="white"/>
<path d="M200.717 37.2607H195.365V54.1258H200.717V37.2607Z" fill="white"/>
<path d="M198.057 29.7076C196.303 29.7025 194.997 30.8182 194.893 32.4117C194.891 32.4368 194.889 32.4629 194.887 32.488C194.781 34.0638 195.975 35.4264 197.554 35.5321C199.256 35.7664 200.773 34.8546 201.121 33.3897C201.595 31.3849 200.205 29.7143 198.059 29.7076H198.057Z" fill="white"/>
<path d="M71.33 24.1113C70.499 24.1113 69.7739 24.5462 69.3583 25.1977H56.882L54.1313 27.9429H42.4844C42.7544 28.7429 43.0009 29.5741 43.2246 30.4371H55.166L57.9141 27.6919H69.3558C69.7705 28.3459 70.4973 28.7824 71.3292 28.7824C72.6221 28.7824 73.6694 27.7364 73.6694 26.4469C73.6694 25.1574 72.6221 24.1113 71.33 24.1113Z" fill="#6FBB3F"/>
<path d="M60.9809 35.5909C61.4082 36.1584 62.0812 36.5303 62.8466 36.5303C64.1395 36.5303 65.1868 35.4843 65.1868 34.1948C65.1868 32.9053 64.1387 31.8593 62.8466 31.8593C61.9541 31.8593 61.1878 32.3638 60.7933 33.0967H43.8335C43.9942 33.9052 44.1388 34.7371 44.2709 35.5909H60.9809Z" fill="#6FBB3F"/>
<path d="M44.4098 37.9877V37.9911C44.4115 37.9911 44.4132 37.9911 44.4157 37.9911C44.3618 38.8339 44.186 39.66 43.9009 40.4467H55.2248L58.0259 43.2423H65.6807C66.0954 43.8946 66.8213 44.3303 67.6532 44.3303C68.9461 44.3303 69.9934 43.2842 69.9934 41.9947C69.9934 40.7052 68.9453 39.6592 67.6532 39.6592C66.8213 39.6592 66.0954 40.0957 65.6807 40.748H59.0631L56.262 37.9525H44.4056C44.4047 37.9642 44.4056 37.976 44.4056 37.9877H44.4115H44.4098Z" fill="#6FBB3F"/>
<path d="M42.6098 42.8066C40.7196 45.4376 38.3711 47.6783 35.6911 49.4278C35.6263 49.4706 35.5607 49.5076 35.4959 49.5496C35.231 49.7191 34.9651 49.8854 34.6943 50.0449C34.4201 50.2086 34.1467 50.3622 33.8725 50.5125C33.8523 50.5234 33.8312 50.5352 33.811 50.5461C32.1935 51.4259 30.575 52.0824 29.018 52.5399C28.9297 52.5668 28.8431 52.597 28.7539 52.623C28.6437 52.6549 28.531 52.6776 28.4199 52.7078C28.2483 52.7532 28.0776 52.7968 27.9077 52.838C27.657 52.8984 27.4063 52.9546 27.1531 53.0059C26.9807 53.0411 26.8116 53.0713 26.6417 53.1007C26.439 53.136 26.2362 53.1721 26.0327 53.2006C25.7332 53.2443 25.4413 53.2779 25.152 53.3064C25.067 53.3148 24.982 53.3257 24.8971 53.3333C24.516 53.366 24.1442 53.387 23.7842 53.3946C23.7447 53.3954 23.7051 53.4004 23.6656 53.4013V53.4055H23.6639C23.6244 53.4063 23.5823 53.4038 23.5428 53.4038H23.5251C23.5176 53.4038 23.5108 53.4055 23.5033 53.4055V53.4038H23.4965V53.4063H23.4385C23.4343 53.4063 23.4284 53.4063 23.4242 53.4063V53.4021C19.0038 53.3408 12.8868 51.4276 7.71015 46.4912C6.51483 45.3511 5.36915 44.0507 4.30674 42.574C3.3377 41.2199 2.77159 39.6214 2.67149 37.96H2.67738C2.67738 37.96 2.68327 37.9583 2.68579 37.9575C2.63532 37.2985 2.65803 36.6361 2.75477 35.9821C3.23087 32.1741 4.25627 28.455 5.79731 24.9391C4.46152 21.8396 3.54884 18.5747 3.08367 15.2318C2.78505 12.6654 2.89356 10.0326 3.88615 7.87424C4.11411 7.38732 4.64742 7.11951 5.17568 7.22781C6.06648 7.40075 7.59406 7.96239 9.71972 9.64394C11.9202 11.4657 13.9029 13.5359 15.6273 15.8119C18.1466 15.0034 20.7804 14.6038 23.4267 14.629V14.6256C23.4637 14.6256 23.5049 14.629 23.5462 14.629C23.5874 14.629 23.6244 14.6256 23.6656 14.6256V14.629C26.2396 14.6072 28.801 14.9841 31.2589 15.7456C32.9657 13.499 34.9248 11.4565 37.0992 9.65653C39.2316 7.96155 40.7617 7.39991 41.655 7.22781C42.1833 7.11951 42.7166 7.38732 42.9454 7.87508C43.9422 10.0436 44.049 12.688 43.7437 15.267C43.3004 18.4496 42.4483 21.5617 41.21 24.5277C41.1924 24.5697 41.1764 24.6125 41.1587 24.6545C41.3295 25.0046 41.491 25.3664 41.6491 25.7325H47.6711L52.0831 21.3317H55.3494C55.7641 21.984 56.49 22.4197 57.322 22.4197C58.6149 22.4197 59.6621 21.3737 59.6621 20.0842C59.6621 18.7947 58.614 17.7486 57.322 17.7486C56.49 17.7486 55.7641 18.1852 55.3494 18.8375H51.0485L46.6356 23.2382H44.5134C45.3806 20.7499 46.0123 18.1852 46.3774 15.5751L46.3841 15.5214C46.7946 12.0466 46.4497 9.07727 45.3528 6.69304L45.3545 6.68968C44.7228 5.34897 43.3744 4.49182 41.8897 4.48846C41.6416 4.48846 41.3943 4.51197 41.1512 4.56066C39.4099 4.89731 37.4895 5.89214 35.4429 7.51996L35.4009 7.55354C33.5377 9.09741 31.8208 10.8075 30.2705 12.6637C28.1743 12.165 26.0276 11.9132 23.8725 11.9132H23.1903C20.9722 11.9132 18.7624 12.1818 16.6098 12.7141C15.0419 10.8327 13.304 9.09993 11.4172 7.53675L11.3752 7.50317C8.83396 5.49253 6.89084 4.79657 5.71403 4.56738C3.97363 4.21058 2.21726 5.09711 1.47365 6.70731C0.386011 9.06132 0.039446 12.0114 0.438164 15.4702L0.446576 15.534C0.889877 18.7233 1.71423 21.848 2.90113 24.8417C1.53254 28.277 0.597988 31.8702 0.119358 35.5363C0.0116871 36.2759 -0.0236423 37.0248 0.0142107 37.7711C0.00916359 37.866 0.00916359 37.9617 0.0142107 38.0574C0.0226224 38.1934 0.0327166 38.3286 0.0453342 38.4629C0.237964 40.4828 0.962218 42.4162 2.14407 44.0675C3.20648 45.5434 4.39675 46.9235 5.70141 48.1912L5.84946 48.3365C5.96386 48.4456 6.07826 48.5514 6.1935 48.6563L6.27005 48.726C6.27005 48.726 6.45763 48.9015 6.50642 48.9459C6.58633 49.0181 6.66709 49.0878 6.74784 49.1583L6.96654 49.3498C7.03468 49.4102 7.10366 49.4706 7.17347 49.5303C7.24329 49.5899 7.29797 49.6335 7.36022 49.6847L7.56715 49.856C7.65967 49.9332 7.75305 50.0096 7.84557 50.0852C7.89689 50.1255 8.17448 50.3396 8.17448 50.3396C8.28888 50.4311 8.40748 50.5217 8.52693 50.6115L8.73049 50.7593C8.89032 50.8777 9.05014 50.9952 9.20997 51.1077L9.37484 51.2219C9.5498 51.3436 9.72561 51.4653 9.9031 51.5829L10.0377 51.6693C10.2236 51.7911 10.4095 51.9103 10.5937 52.0253L10.7081 52.0958C10.9016 52.2142 11.0942 52.3317 11.291 52.4459L11.3819 52.4963C11.5838 52.6104 11.7857 52.7255 11.9909 52.8396L12.059 52.8757C12.2685 52.9899 12.4779 53.099 12.684 53.2048L12.7555 53.2401C12.965 53.3459 13.1753 53.4491 13.3856 53.5482L13.4512 53.5776C13.6632 53.6775 13.8751 53.774 14.0812 53.8638L14.1519 53.8932C14.3613 53.9847 14.5716 54.0737 14.7786 54.1577L14.8509 54.1862C15.0587 54.2702 15.2673 54.3516 15.4683 54.4272L15.5558 54.4582C15.7577 54.5329 15.9604 54.606 16.164 54.6765L16.2658 54.7101C16.4601 54.7756 16.6535 54.8402 16.8462 54.9006L16.9656 54.9359C17.1524 54.993 17.3383 55.0501 17.5233 55.1021L17.6646 55.1407C17.8421 55.1903 18.0196 55.239 18.1937 55.2835L18.3721 55.3263C18.5344 55.3666 18.6976 55.406 18.8608 55.4405L19.056 55.4824C19.209 55.516 19.3621 55.5488 19.5144 55.5781L19.7794 55.6268C19.9064 55.6503 20.0334 55.6747 20.1596 55.6957L20.5036 55.7494C20.6012 55.7645 20.6988 55.7796 20.7947 55.7931C20.8645 55.8031 21.1665 55.8409 21.1665 55.8409C21.2506 55.8518 21.3355 55.8627 21.4197 55.8728C21.5038 55.8829 22.032 55.9299 22.032 55.9299C22.1279 55.9383 22.2213 55.9433 22.3189 55.9492L22.6352 55.9702C22.7462 55.9761 22.8556 55.9794 22.9649 55.9836L23.1802 55.9912C23.2602 55.9987 23.3409 56.0021 23.4217 56.0021H23.6639C23.7438 56.0021 23.8221 55.9979 23.9003 55.992C25.0611 55.9601 26.2169 55.8342 27.3575 55.6176L27.4299 55.6042C27.6444 55.5639 27.8606 55.5194 28.0784 55.4715L28.1146 55.464C32.4761 54.4725 36.5289 52.4325 39.9197 49.521C41.5339 48.1686 42.9841 46.6356 44.2618 44.965H44.907L49.2761 49.3254H59.1036C59.5183 49.9777 60.2442 50.4134 61.0761 50.4134C62.369 50.4134 63.4163 49.3674 63.4163 48.0779C63.4163 46.7884 62.3682 45.7423 61.0761 45.7423C60.2442 45.7423 59.5183 46.1789 59.1036 46.8312H50.3091L45.94 42.4707H42.8512C42.8268 42.506 42.8058 42.5421 42.7805 42.5774C42.725 42.6563 42.6661 42.7318 42.6098 42.8099V42.8066Z" fill="#6FBB3F"/>
<path d="M38.5117 19.264C37.1953 17.8863 35.6458 16.7479 33.9307 15.9051C35.6441 16.7496 37.1936 17.888 38.5117 19.264Z" fill="#6FBB3F"/>
<path d="M40.0889 21.1621C40.941 18.5034 41.804 15.0454 41.7435 12.144C41.804 15.0454 40.941 18.5025 40.0889 21.1613V21.1621Z" fill="#6FBB3F"/>
<path d="M15.3664 40.8253C15.3664 40.8253 15.3664 40.8236 15.3664 40.8228C13.9978 39.2478 12.4382 38.3143 10.8804 37.7955C12.4374 38.3151 13.9978 39.2487 15.3664 40.8253Z" fill="#6FBB3F"/>
<path d="M9.11247 12.0215C7.4789 10.5716 6.20704 9.7556 5.48699 9.47772C4.42122 12.7292 5.65859 17.8486 6.81942 21.4073C7.2072 20.8498 7.62611 20.3142 8.07277 19.8029C9.44642 18.2314 11.1111 16.9385 12.9743 15.9941C11.551 14.3368 10.2455 13.028 9.11331 12.0223L9.11247 12.0215Z" fill="#E65D02"/>
<path d="M41.3402 9.4794C40.1306 9.94701 37.3699 11.9241 33.9312 15.9051C35.6455 16.7479 37.1949 17.8863 38.5122 19.264C38.6804 19.4403 38.847 19.6191 39.0077 19.8021H39.0093C39.3853 20.2311 39.7454 20.6828 40.0894 21.1613C40.9415 18.5017 41.8046 15.0454 41.744 12.144C41.7238 11.1777 41.6002 10.2727 41.3402 9.4794Z" fill="#E65D02"/>
<path d="M41.6466 25.7333C41.4893 25.3664 41.327 25.0054 41.1562 24.6554C41.1739 24.6134 41.1899 24.5706 41.2076 24.5286C42.4458 21.5626 43.2987 18.4505 43.7412 15.2679C44.0465 12.6889 43.9397 10.0444 42.9429 7.87592C42.7149 7.38816 42.1808 7.12119 41.6525 7.22865C40.76 7.39991 39.2291 7.96239 37.0967 9.65738C34.9231 11.4573 32.9632 13.5007 31.2564 15.7464C28.7985 14.985 26.2371 14.6089 23.6631 14.6298V14.6265C23.6227 14.6265 23.5849 14.6298 23.5437 14.6298C23.5024 14.6298 23.4621 14.6265 23.4242 14.6265V14.6298C20.7779 14.6047 18.1441 15.0034 15.6248 15.8127C13.9004 13.5359 11.9177 11.4665 9.71723 9.64478C7.59157 7.96323 6.06399 7.40243 5.17318 7.22865C4.64577 7.12035 4.11246 7.38816 3.88366 7.87508C2.89107 10.0335 2.78256 12.6654 3.08117 15.2326C3.5455 18.5747 4.45818 21.8396 5.79481 24.94C4.25294 28.4559 3.22838 32.1749 2.75227 35.983C2.65554 36.6369 2.63283 37.2993 2.6833 37.9583C4.03423 37.5176 7.45278 36.6529 10.8797 37.7963C12.4376 38.3151 13.9971 39.2478 15.3657 40.8236C15.3657 40.8245 15.3674 40.8253 15.3683 40.8261C16.3003 37.1356 19.6818 34.5902 23.494 34.7094H23.4999C24.8584 34.6851 26.2035 34.9764 27.4291 35.5598C28.4679 36.1055 29.368 36.8561 30.0821 37.7543C30.0998 37.7762 30.1141 37.8014 30.1318 37.8232C30.2907 38.0272 30.443 38.2362 30.5826 38.4537C30.6087 38.494 30.6289 38.5385 30.6541 38.5788C30.7795 38.7828 30.9014 38.9884 31.0091 39.2025C31.0444 39.2722 31.0705 39.3469 31.1042 39.4183C31.1933 39.6088 31.2833 39.7986 31.3574 39.9959C31.3986 40.105 31.4272 40.2192 31.4642 40.3308C31.5189 40.4954 31.5786 40.6582 31.6223 40.827C36.0738 35.695 42.5526 37.3665 44.4015 37.9877C44.4023 37.976 44.4015 37.9642 44.4015 37.9525C44.4503 37.2943 44.4276 36.6327 44.3283 35.9796H44.3308C44.3115 35.8478 44.2888 35.721 44.2686 35.5909C44.1365 34.7371 43.991 33.9052 43.8312 33.0967C43.6486 32.1791 43.4459 31.2943 43.223 30.4371C42.9984 29.5741 42.7528 28.743 42.4828 27.9429C42.2245 27.1781 41.9478 26.4385 41.6441 25.7333H41.6466ZM8.07272 19.8029C7.62606 20.3142 7.20715 20.8498 6.81937 21.4073C6.81937 21.4073 6.81937 21.4073 6.81853 21.4089C5.65602 17.8477 4.42033 12.7275 5.4861 9.47772C6.20783 9.7556 7.47885 10.5716 9.11242 12.0223C10.2446 13.028 11.5502 14.3368 12.9734 15.9941C11.1102 16.9385 9.44637 18.2314 8.07188 19.8029H8.07272ZM19.1662 33.0018C18.6043 34.1385 14.0198 32.9145 11.7461 31.3539C11.4315 31.1356 11.2448 30.7771 11.2465 30.3951L11.4761 28.565C11.4761 28.2569 11.726 28.0075 12.0347 28.0075C12.102 28.0075 12.1693 28.0201 12.2323 28.0436C14.2125 28.7875 19.7996 31.3388 19.1662 33.0018ZM20.0174 26.8263C19.7617 27.2654 19.2705 27.5122 18.7649 27.4551H18.7633C17.6478 27.3678 15.3085 27.1328 14.5801 26.6786C13.606 26.0758 14.0114 23.2811 17.5133 23.6714C20.1815 23.9686 20.5062 25.7879 20.0174 26.8263ZM27.1767 26.8263C26.688 25.7879 27.0127 23.9686 29.6809 23.6714C33.1819 23.2811 33.5873 26.0758 32.6132 26.6786C31.8839 27.1328 29.5455 27.3678 28.4301 27.456H28.4284C27.9228 27.5106 27.4324 27.2646 27.1767 26.8255V26.8263ZM35.4371 31.3522C33.1634 32.912 28.5781 34.1369 28.017 33.0002C27.3836 31.3371 32.9707 28.7858 34.9509 28.042C35.0148 28.0176 35.0829 28.005 35.1519 28.005C35.4606 28.005 35.7105 28.2552 35.7105 28.5633L35.9401 30.3935V30.3951C35.9712 30.7838 35.7752 31.1566 35.4379 31.3522H35.4371ZM40.0896 21.163C39.7456 20.6836 39.3864 20.2319 39.0096 19.8029H39.0079C38.8472 19.6199 38.6815 19.4411 38.5124 19.2648C37.1943 17.8888 35.6457 16.7505 33.9314 15.9059C37.3693 11.9258 40.1308 9.94869 41.3405 9.48024C41.6004 10.2736 41.7232 11.1786 41.7434 12.1449C41.8048 15.0471 40.9426 18.5042 40.0896 21.163Z" fill="#F68D36"/>
<path d="M29.0365 47.0293C29.05 46.5584 29.1669 46.0966 29.3806 45.676C29.389 45.6576 29.394 45.6374 29.3949 45.6156C29.3999 45.5182 29.3242 45.4342 29.2266 45.43C28.658 45.4166 27.4442 45.3923 27.196 45.4074H25.046C24.8424 45.0758 24.5303 44.8239 24.1627 44.6955V43.254C26.084 43.0089 26.7401 41.6329 26.9277 40.3787C26.9891 39.9665 27 39.5669 26.9883 39.2252C26.9698 38.6551 26.5012 38.2026 25.9292 38.2026H21.1438C20.5718 38.2026 20.1032 38.6551 20.0839 39.2252C20.0452 40.3451 20.2479 42.0913 21.6956 42.8813C22.0295 43.0626 22.4291 43.1936 22.9069 43.254L22.9094 43.2557V44.6955C22.5418 44.8239 22.2297 45.0758 22.0262 45.4074H19.8761C19.628 45.3914 18.415 45.4174 17.8455 45.43C17.8253 45.4309 17.8051 45.4368 17.7858 45.4443C17.6966 45.4838 17.6554 45.587 17.6933 45.6769C17.9044 46.0975 18.0222 46.5584 18.0373 47.0285C18.0541 47.172 18.1786 47.2795 18.3241 47.2736H18.6236L19.3184 49.1038C19.3251 49.1214 19.3352 49.1373 19.3478 49.1499C19.3975 49.1986 19.4757 49.1986 19.5262 49.1499C19.6616 48.9955 19.7827 48.8284 19.887 48.6521C19.9098 48.6152 19.9224 48.5732 19.9224 48.5295V46.4366H19.9257V46.4341C21.1076 46.6012 22.3004 46.6851 23.494 46.6851H23.5664C24.4117 46.6876 25.2554 46.6339 26.0975 46.5533C26.4474 46.5197 26.7982 46.4937 27.1464 46.4459H27.1489V48.5279C27.1489 48.5715 27.1607 48.6135 27.1843 48.6504C27.2894 48.8276 27.4105 48.9946 27.5468 49.1499C27.5687 49.1734 27.5998 49.186 27.6318 49.1869C27.6856 49.1869 27.7327 49.1525 27.7504 49.1021L28.4452 47.2719H28.7497C28.7859 47.2728 28.8203 47.2677 28.8532 47.256C28.9499 47.2216 29.0222 47.1351 29.0357 47.0276L29.0365 47.0293Z" fill="#202740"/>
<path d="M44.4099 37.9911C44.4099 37.9911 44.4099 37.9886 44.4099 37.9877H44.404C42.5551 37.3665 36.0764 35.6942 31.6249 40.827C31.5803 40.6582 31.5206 40.4954 31.4667 40.3308C31.4297 40.22 31.4011 40.105 31.3599 39.9959C31.285 39.7986 31.195 39.6088 31.1067 39.4183C31.073 39.3469 31.047 39.2722 31.0116 39.2025C30.904 38.9884 30.782 38.7819 30.6567 38.5788C30.6314 38.5376 30.6112 38.494 30.5852 38.4537C30.4455 38.2354 30.2933 38.0272 30.1343 37.8232C30.1166 37.8005 30.1023 37.7762 30.0847 37.7544C29.3705 36.8569 28.4704 36.1055 27.4316 35.5599C26.2052 34.9764 24.8601 34.6851 23.5024 34.7094H23.4966C19.6843 34.5894 16.3028 37.1356 15.3708 40.8261C15.3708 40.8253 15.3691 40.8245 15.3683 40.8236C15.3683 40.8245 15.3683 40.8253 15.3683 40.8261C13.9997 39.2495 12.441 38.316 10.8831 37.7963C7.4553 36.6529 4.03759 37.5176 2.68666 37.9584C2.68666 37.9584 2.68078 37.96 2.67825 37.9609H2.67236C2.77162 39.6214 3.33858 41.2207 4.30761 42.5749C5.37002 44.0516 6.5157 45.3528 7.71102 46.4921C12.8868 51.4284 19.0047 53.3417 23.4251 53.403V53.4072C23.4293 53.4072 23.4352 53.4072 23.4394 53.4072H23.4974V53.4046H23.5041V53.4063C23.5117 53.4063 23.5184 53.4055 23.526 53.4046H23.5437C23.5832 53.4046 23.6253 53.4072 23.6648 53.4072C23.6648 53.4072 23.6656 53.4063 23.6665 53.4063V53.4021C23.706 53.4013 23.7455 53.3971 23.7851 53.3954C24.1451 53.3878 24.5177 53.3669 24.898 53.3341C24.9829 53.3266 25.0679 53.3156 25.1528 53.3073C25.4422 53.2787 25.7341 53.2451 26.0336 53.2015C26.2371 53.1721 26.4398 53.1368 26.6426 53.1016C26.8125 53.0713 26.9816 53.0411 27.154 53.0067C27.4064 52.9563 27.6579 52.8992 27.9085 52.8388C28.0785 52.7985 28.2492 52.754 28.4208 52.7087C28.5318 52.6785 28.6446 52.6558 28.7548 52.6239C28.8431 52.5979 28.9306 52.5676 29.0189 52.5408C30.5759 52.0832 32.1935 51.4267 33.8119 50.5469C33.8321 50.536 33.8531 50.5243 33.8733 50.5133C34.1476 50.3631 34.4218 50.2094 34.6952 50.0457C34.966 49.8862 35.2327 49.7192 35.4968 49.5504C35.5616 49.5084 35.6272 49.4715 35.692 49.4287C38.3719 47.6791 40.7205 45.4385 42.6106 42.8074C42.667 42.7293 42.7259 42.6538 42.7814 42.5749C42.8066 42.5404 42.8277 42.5035 42.8521 42.4682C43.2886 41.8386 43.6411 41.1603 43.901 40.4467C44.187 39.6601 44.362 38.834 44.4158 37.9911C44.4141 37.9911 44.4124 37.9911 44.4099 37.9911ZM24.7634 48.0964C24.723 48.0829 24.6784 48.0745 24.6271 48.0745C24.225 48.0745 24.1266 49.27 23.5487 49.3078V49.3103C23.5487 49.3103 23.5453 49.3103 23.5428 49.3086C23.5403 49.3086 23.5386 49.3078 23.5369 49.307C23.5336 49.307 23.5285 49.3095 23.5252 49.3095L23.5243 49.307C23.5159 49.307 23.5075 49.3036 23.4991 49.3011H23.4949C22.9422 49.223 22.832 48.0745 22.4485 48.0745C22.048 48.0745 22.0119 48.5615 21.6359 48.5615C21.5854 48.5598 21.5349 48.5539 21.4853 48.543C21.1909 48.4548 20.9907 48.182 20.9974 47.8747V47.5205H26.0832V47.8747C26.0891 48.182 25.8897 48.4548 25.5953 48.543C25.5457 48.5539 25.4952 48.5606 25.4447 48.5615C25.3976 48.5615 25.3564 48.5539 25.3186 48.5405C25.0931 48.4607 25.0073 48.1761 24.7667 48.0955L24.7634 48.0964ZM28.7522 47.2736H28.4477L27.7529 49.1038C27.7353 49.1542 27.6873 49.1877 27.6343 49.1886C27.6023 49.1869 27.5712 49.1743 27.5494 49.1516C27.4131 48.9972 27.292 48.8301 27.1868 48.6521C27.1641 48.6152 27.1523 48.5732 27.1515 48.5296V46.4476C27.1515 46.4476 27.1498 46.4476 27.149 46.4476C26.8007 46.4946 26.4499 46.5206 26.1 46.5542C25.2588 46.6339 24.4151 46.6885 23.5689 46.686H23.4966C22.3029 46.686 21.1101 46.602 19.9283 46.435V46.4375C19.9283 46.4375 19.9258 46.4375 19.9249 46.4375V48.5304C19.9249 48.5741 19.9131 48.616 19.8896 48.653C19.7853 48.8301 19.6642 48.9963 19.5287 49.1508C19.4791 49.1987 19.4 49.1995 19.3504 49.1508C19.3369 49.1374 19.3268 49.1223 19.321 49.1046L18.6261 47.2745H18.3267C18.182 47.2804 18.0567 47.1737 18.0398 47.0293C18.0247 46.5592 17.9078 46.0975 17.6958 45.6777C17.6571 45.5879 17.6992 45.4846 17.7883 45.4452C17.8077 45.4376 17.827 45.4317 17.8481 45.4309C18.4175 45.4191 19.6305 45.3923 19.8787 45.4082H22.0287C22.2323 45.0766 22.5443 44.8248 22.9119 44.6963V43.2566C22.9119 43.2566 22.9103 43.2566 22.9094 43.2566C22.4316 43.1944 22.0312 43.0635 21.6981 42.8821C20.2505 42.0921 20.0469 40.3459 20.0864 39.226C20.1049 38.656 20.5743 38.2035 21.1463 38.2035H25.9318C26.5038 38.2035 26.9723 38.656 26.9908 39.226C27.0026 39.5677 26.9908 39.9673 26.9302 40.3795C26.7427 41.6338 26.0865 43.0097 24.1653 43.2549V44.6963C24.5329 44.8248 24.845 45.0766 25.0485 45.4082H27.1986C27.4467 45.3931 28.6605 45.4175 29.2292 45.4309C29.3276 45.4359 29.4025 45.519 29.3974 45.6164C29.3966 45.6374 29.3915 45.6584 29.3831 45.6777C29.1695 46.0975 29.0525 46.5592 29.0391 47.0302C29.0256 47.1376 28.9533 47.2233 28.8565 47.2585C28.8246 47.2703 28.7892 47.2753 28.7531 47.2745L28.7522 47.2736Z" fill="white"/>
<path d="M25.5912 48.543C25.8856 48.4548 26.0858 48.182 26.0791 47.8747V47.5204H20.9933V47.8756C20.9874 48.1828 21.1868 48.4557 21.4812 48.5438C21.5308 48.5547 21.5813 48.5614 21.6317 48.5623C22.0078 48.5623 22.0439 48.0762 22.4443 48.0754C22.8279 48.0754 22.9381 49.2238 23.4907 49.3019H23.495C23.5034 49.3053 23.5118 49.3069 23.5202 49.3078V49.3103C23.5236 49.3103 23.5294 49.3078 23.5328 49.3078C23.5345 49.3078 23.537 49.3078 23.5387 49.3095C23.5412 49.3095 23.5429 49.3111 23.5446 49.3111V49.3086C24.1225 49.27 24.2217 48.0754 24.623 48.0754C24.6734 48.0754 24.7189 48.0829 24.7592 48.0972C24.9998 48.1778 25.0856 48.4624 25.3111 48.5421C25.3489 48.5556 25.3901 48.5631 25.4372 48.5631C25.4877 48.5614 25.5382 48.5556 25.5878 48.5447L25.5912 48.543Z" fill="#202740"/>
<path d="M35.7095 28.5625C35.7095 28.2544 35.4596 28.0042 35.1509 28.0042C35.082 28.0042 35.0138 28.0168 34.9499 28.0411C32.9698 28.7849 27.3827 31.3362 28.0161 32.9993C28.5771 34.136 33.1624 32.912 35.4361 31.3513C35.7742 31.1549 35.9694 30.783 35.9391 30.3943V30.3926L35.7095 28.5625Z" fill="#202740"/>
<path d="M12.2325 28.0436C12.1694 28.0201 12.1021 28.0075 12.0348 28.0075C11.7261 28.0075 11.4762 28.2569 11.4762 28.565L11.2466 30.3951C11.2449 30.7771 11.4317 31.1356 11.7463 31.3539C14.02 32.9137 18.6044 34.1385 19.1663 33.0018C19.7997 31.3387 14.2126 28.7874 12.2325 28.0436Z" fill="#202740"/>
<path d="M17.5131 23.6714C14.0113 23.2811 13.6059 26.0758 14.5799 26.6786C15.3092 27.1328 17.6477 27.3678 18.7631 27.456H18.7648C19.2704 27.5114 19.7616 27.2646 20.0173 26.8255C20.506 25.787 20.1813 23.9686 17.5131 23.6714Z" fill="white"/>
<path d="M28.4294 27.456C29.5448 27.367 31.8841 27.1319 32.6126 26.6786C33.5867 26.0758 33.1812 23.2811 29.6803 23.6714C27.012 23.9686 26.6874 25.7879 27.1761 26.8264C27.4318 27.2646 27.9222 27.5114 28.4277 27.4552L28.4294 27.456Z" fill="white"/>
<path d="M108.906 30.2104H111.577V38.9842C111.577 38.9842 113.628 36.8452 116.624 36.8452C119.621 36.8452 123.514 38.8785 123.514 43.4228" stroke="#6FBB3F" stroke-width="1.63866" stroke-linecap="round" stroke-linejoin="round"/>
<path d="M123.528 45.2009C124.204 45.2009 124.752 44.654 124.752 43.9794C124.752 43.3048 124.204 42.7579 123.528 42.7579C122.852 42.7579 122.304 43.3048 122.304 43.9794C122.304 44.654 122.852 45.2009 123.528 45.2009Z" fill="#6FBB3F"/>
<path d="M108.442 31.353C109.118 31.353 109.666 30.8061 109.666 30.1315C109.666 29.4569 109.118 28.91 108.442 28.91C107.766 28.91 107.218 29.4569 107.218 30.1315C107.218 30.8061 107.766 31.353 108.442 31.353Z" fill="#6FBB3F"/>
</g>
<defs>
<linearGradient id="paint0_linear_343_1460" x1="114.242" y1="38.9398" x2="114.242" y2="16.9981" gradientUnits="userSpaceOnUse">
<stop offset="0.149" stop-color="#6FBB3F" stop-opacity="0"/>
<stop offset="0.965" stop-color="#6FBB3F"/>
</linearGradient>
<clipPath id="clip0_343_1460">
<rect width="252" height="56" fill="white"/>
</clipPath>
</defs>
</svg>
