<svg width="14" height="15" viewBox="0 0 14 15" fill="none" xmlns="http://www.w3.org/2000/svg">
<g clip-path="url(#clip0_490_1899)">
<path d="M8.66829 14.1268H2.81205C1.26012 14.1268 0 12.8667 0 11.3148V5.45854C0 3.9066 1.26012 2.64648 2.81205 2.64648H4.72213V3.97292H2.81205C1.98966 3.97292 1.32644 4.64278 1.32644 5.45854V11.3081C1.32644 12.1305 1.99629 12.7938 2.81205 12.7938H8.66165C9.48405 12.7938 10.1473 12.1239 10.1473 11.3081V9.46439H11.4737V11.3081C11.4737 12.8601 10.2136 14.1202 8.66165 14.1202L8.66829 14.1268Z" fill="#E65D02"/>
<path d="M4.40374 10.912C4.13182 10.912 3.87979 10.7992 3.69409 10.5936C3.47523 10.3482 3.39564 10.0166 3.48186 9.70489L3.81347 8.49783C3.93285 8.06674 4.16498 7.66881 4.47669 7.35046L10.6579 1.17588C11.3742 0.459602 12.6277 0.459602 13.3439 1.17588C14.0868 1.91869 14.0868 3.12575 13.3439 3.86192L7.24232 9.96355C6.85765 10.3482 6.3735 10.6002 5.83629 10.6865L4.56291 10.8987C4.50985 10.9053 4.45679 10.912 4.40374 10.912ZM12.0042 1.94522C11.8517 1.94522 11.7058 2.00491 11.5997 2.11102L5.41846 8.2856C5.26592 8.43814 5.15317 8.63047 5.09349 8.8427L4.91442 9.48603L5.61743 9.37328C5.88272 9.33349 6.11484 9.20748 6.30718 9.02177L12.4088 2.92678C12.6343 2.70129 12.6343 2.33652 12.4088 2.11102C12.3027 2.00491 12.1568 1.94522 12.0042 1.94522Z" fill="#E65D02"/>
</g>
<defs>
<clipPath id="clip0_490_1899">
<rect width="13.9011" height="13.4899" fill="white" transform="translate(0 0.638672)"/>
</clipPath>
</defs>
</svg>
