<svg width="230" height="117" viewBox="0 0 230 117" fill="none" xmlns="http://www.w3.org/2000/svg">
<path d="M16.2944 47.0218C13.3188 47.0218 10.7375 46.4661 8.55054 45.3547C6.39946 44.2074 4.73237 42.5583 3.54928 40.4072C2.40204 38.2561 1.82842 35.639 1.82842 32.5558V30.566H10.5403V33.0397C10.5403 34.7606 11.0422 36.1588 12.046 37.2344C13.0857 38.274 14.5019 38.7939 16.2944 38.7939C18.0511 38.7939 19.4314 38.274 20.4353 37.2344C21.4749 36.1588 21.9948 34.7606 21.9948 33.0397V13.3574H30.8142V32.5558C30.8142 35.639 30.2227 38.2561 29.0396 40.4072C27.8923 42.5583 26.2252 44.2074 24.0383 45.3547C21.8872 46.4661 19.3059 47.0218 16.2944 47.0218ZM6.39946 14.4329V6.74281H30.8142V14.4329H6.39946ZM57.7876 47.0218C54.2383 47.0218 51.1371 46.4123 48.4841 45.1933C45.867 43.9385 43.698 42.3073 41.9771 40.2996C40.2563 38.2561 38.9656 36.0513 38.1052 33.6851C37.2806 31.3189 36.8683 29.0423 36.8683 26.8554V25.6723C36.8683 23.2344 37.2985 20.8324 38.159 18.4662C39.0552 16.0641 40.3817 13.8951 42.1385 11.9592C43.8952 10.0232 46.0821 8.48159 48.6993 7.33435C51.3164 6.15126 54.3458 5.55971 57.7876 5.55971C61.2293 5.55971 64.2587 6.15126 66.8759 7.33435C69.493 8.48159 71.68 10.0232 73.4367 11.9592C75.1934 13.8951 76.5199 16.0641 77.4162 18.4662C78.3124 20.8324 78.7606 23.2344 78.7606 25.6723V26.8554C78.7606 29.0423 78.3304 31.3189 77.4699 33.6851C76.6095 36.0513 75.3189 38.2561 73.598 40.2996C71.8771 42.3073 69.6902 43.9385 67.0372 45.1933C64.4201 46.4123 61.3368 47.0218 57.7876 47.0218ZM57.7876 38.7939C59.6518 38.7939 61.3189 38.4712 62.7888 37.8259C64.2946 37.1806 65.5673 36.2843 66.607 35.1371C67.6825 33.9898 68.4892 32.6633 69.027 31.1576C69.5647 29.6518 69.8336 28.0385 69.8336 26.3176C69.8336 24.4892 69.5468 22.8221 68.9732 21.3164C68.4354 19.7748 67.6287 18.4483 66.5532 17.3369C65.5135 16.1896 64.2587 15.3113 62.7888 14.7018C61.3189 14.0923 59.6518 13.7876 57.7876 13.7876C55.9233 13.7876 54.2562 14.0923 52.7863 14.7018C51.3164 15.3113 50.0437 16.1896 48.9681 17.3369C47.9285 18.4483 47.1397 19.7748 46.602 21.3164C46.0642 22.8221 45.7953 24.4892 45.7953 26.3176C45.7953 28.0385 46.0642 29.6518 46.602 31.1576C47.1397 32.6633 47.9285 33.9898 48.9681 35.1371C50.0437 36.2843 51.3164 37.1806 52.7863 37.8259C54.2562 38.4712 55.9233 38.7939 57.7876 38.7939ZM85.5503 46V6.74281H94.3698V46H85.5503ZM103.298 46V6.74281H117.764L132.553 38.8477H134.382L133.306 39.8156V6.74281H141.588V46H127.014L112.225 13.8951H110.397L111.473 12.9272V46H103.298ZM13.5518 87.7663C10.8898 87.7663 8.64465 87.3496 6.81623 86.516C4.98782 85.6556 3.60306 84.4994 2.66196 83.0474C1.72086 81.5685 1.25031 79.8745 1.25031 77.9655H7.66322C7.66322 78.7183 7.86488 79.4174 8.26821 80.0628C8.69843 80.7081 9.34375 81.2324 10.2042 81.6357C11.0646 82.0122 12.1805 82.2004 13.5518 82.2004C14.7887 82.2004 15.8239 82.0391 16.6574 81.7164C17.491 81.3937 18.1228 80.9501 18.5531 80.3854C18.9833 79.7939 19.1984 79.1217 19.1984 78.3688C19.1984 77.4277 18.7951 76.6883 17.9884 76.1505C17.1817 75.5858 15.8777 75.2228 14.0761 75.0615L11.8578 74.8598C8.92698 74.6178 6.58768 73.7036 4.83993 72.1172C3.09218 70.5308 2.2183 68.4335 2.2183 65.8253C2.2183 63.9431 2.66196 62.3164 3.54928 60.9451C4.46349 59.5737 5.72725 58.5251 7.34056 57.7991C8.95387 57.0462 10.863 56.6698 13.0678 56.6698C15.3802 56.6698 17.3565 57.0731 18.9967 57.8798C20.6638 58.6595 21.941 59.7754 22.8283 61.2274C23.7157 62.6525 24.1593 64.333 24.1593 66.269H17.7061C17.7061 65.543 17.5313 64.8842 17.1817 64.2927C16.8322 63.6742 16.3079 63.1768 15.6088 62.8004C14.9366 62.4239 14.0896 62.2357 13.0678 62.2357C12.0998 62.2357 11.2797 62.397 10.6075 62.7197C9.96219 63.0424 9.47819 63.486 9.15553 64.0507C8.83287 64.5884 8.67154 65.18 8.67154 65.8253C8.67154 66.6589 8.96731 67.3848 9.55886 68.0033C10.1504 68.6217 11.1184 68.9847 12.4628 69.0923L14.7214 69.2939C16.8725 69.4821 18.7682 69.9527 20.4084 70.7056C22.0486 71.4316 23.3258 72.4399 24.24 73.7305C25.1811 74.9943 25.6516 76.5404 25.6516 78.3688C25.6516 80.251 25.1542 81.9046 24.1593 83.3297C23.1913 84.7279 21.8066 85.8169 20.005 86.5967C18.2035 87.3764 16.0524 87.7663 13.5518 87.7663ZM49.246 87V57.5571H55.8605V87H49.246ZM30.2089 87V57.5571H36.8235V87H30.2089ZM35.6538 75.1018V69.2939H50.4156V75.1018H35.6538ZM62.5479 87V57.5571H69.1625V87H62.5479ZM81.5055 87.2017V82.0391H88.4024C89.6393 82.0391 90.567 81.7164 91.1854 81.0711C91.8038 80.4258 92.113 79.5116 92.113 78.3285C92.113 77.1454 91.8038 76.2446 91.1854 75.6262C90.567 74.9808 89.6393 74.6582 88.4024 74.6582H81.5055V70.6652H88.0798C90.1233 70.6652 91.9383 70.9207 93.5247 71.4316C95.1111 71.9156 96.3614 72.7088 97.2756 73.8112C98.1898 74.9136 98.6469 76.4059 98.6469 78.2881V78.8528C98.6469 80.6005 98.2436 82.1063 97.437 83.3701C96.6303 84.6069 95.4472 85.5615 93.8877 86.2337C92.3282 86.879 90.3922 87.2017 88.0798 87.2017H81.5055ZM75.859 87.2017V57.3151H82.3122V87.2017H75.859ZM81.5055 73.6095V69.6569H87.3134C88.5772 69.6569 89.4914 69.3343 90.0561 68.6889C90.6207 68.0436 90.9031 67.1832 90.9031 66.1076C90.9031 64.9783 90.6207 64.091 90.0561 63.4457C89.4914 62.8004 88.5772 62.4777 87.3134 62.4777H81.5055V57.3151H86.9101C90.2981 57.3151 92.8928 58.0276 94.6943 59.4527C96.5228 60.8778 97.437 62.9079 97.437 65.543V66.148C97.437 67.9764 96.9664 69.4418 96.0253 70.5442C95.1111 71.6467 93.8608 72.4399 92.2744 72.9239C90.7148 73.381 88.9268 73.6095 86.9101 73.6095H81.5055ZM100.49 87L110.21 57.5571H120.898L130.981 87H124.125L115.977 62.1147L118.075 62.9617H112.872L115.05 62.1147L107.104 87H100.49ZM107.871 79.6998L109.887 74.2145H121.422L123.479 79.6998H107.871ZM143.371 87V57.5571H149.985V87H143.371ZM156.682 87V57.5571H167.531L178.623 81.6357H179.994L179.188 82.3617V57.5571H185.399V87H174.469L163.377 62.9214H162.006L162.813 62.1954V87H156.682ZM204.354 87.7663C201.585 87.7663 199.232 87.2554 197.296 86.2337C195.387 85.185 193.935 83.7062 192.94 81.7971C191.945 79.888 191.448 77.6294 191.448 75.0212V57.5571H198.062V75.2632C198.062 76.5538 198.304 77.6831 198.788 78.6511C199.299 79.5922 200.012 80.3182 200.926 80.8291C201.867 81.34 203.01 81.5954 204.354 81.5954C205.726 81.5954 206.868 81.34 207.783 80.8291C208.724 80.3182 209.436 79.5922 209.92 78.6511C210.404 77.71 210.646 76.5807 210.646 75.2632V57.5571H217.261V75.0212C217.261 77.6294 216.763 79.888 215.768 81.7971C214.774 83.7062 213.322 85.185 211.413 86.2337C209.503 87.2554 207.151 87.7663 204.354 87.7663Z" fill="white"/>
<g clip-path="url(#clip0_22_1363)">
<path d="M57.901 3.97215C69.8773 3.97215 79.586 13.7373 79.586 25.7831C79.586 37.8289 69.8773 47.594 57.901 47.594C45.9248 47.594 36.2161 37.8307 36.2161 25.7849C36.2161 13.7391 45.9248 3.97215 57.901 3.97215Z" fill="white"/>
<path fill-rule="evenodd" clip-rule="evenodd" d="M56.4832 3.84021C55.7327 3.88294 54.7008 3.9773 54.6052 4.01469C54.5662 4.02893 54.3273 4.07166 54.0759 4.10905C53.8246 4.14643 53.4777 4.20696 53.306 4.24613C53.1343 4.2853 52.8422 4.34939 52.6564 4.39034C52.4705 4.43129 52.1997 4.49716 52.0545 4.53633C51.9094 4.5755 51.6191 4.65383 51.412 4.7108C51.0385 4.81228 50.0384 5.16123 49.8756 5.24846C49.8296 5.27339 49.7694 5.29297 49.7411 5.29297C49.7127 5.29297 49.5871 5.33748 49.4632 5.39267C49.1251 5.54222 48.9658 5.61165 48.7817 5.68465C48.6153 5.7523 47.3108 6.38254 47.1001 6.49826C46.9709 6.56948 46.9054 6.49292 48.5852 8.22341C49.0507 8.70232 49.6366 9.31476 49.888 9.58181C50.4208 10.1497 50.4243 10.1515 50.5695 10.091C50.8562 9.97171 52.4917 9.48923 52.8971 9.40556C54.4246 9.08688 55.4672 8.96938 57.4231 8.89282C58.5011 8.85009 60.7119 9.04237 61.9527 9.28628C62.7138 9.43582 62.8218 9.45897 62.9882 9.50704C63.0802 9.53374 63.3741 9.6103 63.6378 9.67617C63.9033 9.74204 64.3582 9.87379 64.6485 9.96815C64.9388 10.0625 65.1813 10.1391 65.1866 10.1391C65.1919 10.1391 65.4079 9.88269 65.6663 9.56935C65.9265 9.25601 66.215 8.91062 66.3088 8.80202C66.4026 8.69342 66.5867 8.47444 66.7195 8.31777C67.0522 7.92075 67.8399 7.06263 68.1355 6.77244C68.27 6.64069 68.3816 6.50894 68.3816 6.48224C68.3816 6.42349 67.5709 6.01935 66.4787 5.5351C66.0345 5.33748 65.9229 5.29297 65.8787 5.29297C65.8504 5.29297 65.7902 5.27161 65.7442 5.24668C65.3866 5.05085 63.236 4.43307 62.1686 4.22299C60.3738 3.86692 58.3878 3.73517 56.485 3.84021M75.8069 13.13C75.7769 13.2279 75.6671 13.6588 75.5627 14.0843C75.3538 14.9317 75.1945 15.521 74.975 16.2652C74.8954 16.5323 74.7874 16.9026 74.7325 17.0877C74.6777 17.2747 74.4953 17.8462 74.3254 18.3589L74.0157 19.2918L74.1059 19.4734C74.1555 19.5731 74.3821 20.0146 74.6104 20.4544C75.3839 21.9498 75.9521 23.4168 76.2565 24.7076C76.3238 24.9924 76.3999 25.3022 76.4247 25.3948C76.7398 26.5752 76.9557 28.5531 76.961 30.3121C76.961 30.8444 76.9416 31.391 76.915 31.5227C76.7929 32.1156 76.7592 32.2473 76.6406 32.5785C76.5716 32.7707 76.4955 32.9933 76.4707 33.0734C76.361 33.4348 75.7751 34.5351 75.3892 35.1083C74.7485 36.0573 74.5307 36.335 73.7484 37.1913C73.5289 37.4317 73.3112 37.672 73.2616 37.7272C72.9536 38.0762 71.4951 39.3331 70.9092 39.7532C69.1197 41.0369 67.4664 41.9965 65.6804 42.7887C65.0627 43.0629 63.6378 43.6112 63.544 43.6112C63.5227 43.6112 63.4378 43.6415 63.3546 43.6789C63.1652 43.7643 62.5598 43.9495 62.4713 43.9495C62.4359 43.9495 62.3687 43.9691 62.3226 43.994C62.2448 44.035 61.8801 44.124 61.011 44.3145C60.8128 44.359 60.519 44.4249 60.3579 44.4622C60.1968 44.4996 59.9915 44.5299 59.9012 44.5317C59.8109 44.5317 59.5189 44.5655 59.2534 44.6064C57.8887 44.8183 55.9611 44.6492 54.1237 44.1578C53.7308 44.0528 52.7661 43.7554 52.6546 43.7056C52.6015 43.6807 52.4493 43.6255 52.3183 43.5828C51.0757 43.1733 48.2277 41.8327 47.2736 41.2096C47.1745 41.1455 47.0824 41.0921 47.0665 41.0921C47.0506 41.0921 46.8736 40.9835 46.6736 40.8499C46.4718 40.7164 46.3018 40.6078 46.2948 40.6078C46.1939 40.6078 44.5619 39.4292 43.8185 38.8203C42.3688 37.6311 41.8342 37.1148 40.6624 35.7688C40.4571 35.5321 39.9172 34.8128 39.9172 34.7754C39.9172 34.7629 39.8181 34.6063 39.696 34.4282C39.5739 34.2502 39.4623 34.0686 39.4482 34.0259C39.4323 33.9832 39.3809 33.8906 39.3331 33.8211C38.4764 32.5749 38.2941 31.318 38.5667 28.5211C38.6463 27.7075 38.9473 25.9289 39.0942 25.3966C39.3544 24.4601 39.611 23.5967 39.6765 23.4346C39.6978 23.3812 39.7509 23.221 39.7951 23.0768C39.8995 22.7367 40.3456 21.5902 40.5438 21.1576C40.6288 20.9706 40.8271 20.5398 40.9846 20.1998C41.3581 19.3897 41.3598 19.3452 41.0023 18.3731C40.6217 17.337 40.3403 16.4753 40.204 15.9269C40.1845 15.8468 40.119 15.6065 40.0606 15.3946C39.873 14.7199 39.7243 14.0861 39.6163 13.5164C39.5508 13.1621 39.5544 13.1603 39.1437 13.7888C38.4817 14.8018 37.7578 16.137 37.3914 17.0183C37.3418 17.1376 37.2409 17.3672 37.1683 17.5293C37.0958 17.6913 37.0214 17.8924 37.002 17.9761C36.9843 18.0616 36.9489 18.1417 36.9241 18.1577C36.8993 18.172 36.8798 18.2182 36.8798 18.2592C36.8798 18.3001 36.8497 18.4016 36.8126 18.4871C36.6356 18.8877 36.3541 19.89 36.0337 21.2555C35.8125 22.2044 35.6532 23.5539 35.547 25.3912C35.501 26.1942 35.6833 28.3448 35.8921 29.4682C36.0231 30.1714 36.209 31.0046 36.3258 31.4052C36.6763 32.6212 36.7488 32.8402 36.9577 33.3262C36.9931 33.4099 37.0232 33.5025 37.0232 33.5327C37.0232 33.563 37.0444 33.6235 37.0692 33.6716C37.094 33.7179 37.2055 33.9743 37.3153 34.2395C38.4092 36.8958 40.4553 39.7568 42.7617 41.8523C43.6202 42.6321 44.0326 42.9579 45.2823 43.8409C45.5797 44.051 46.2983 44.4907 46.847 44.8005C47.1745 44.9839 48.8065 45.7939 48.8507 45.7939C48.8737 45.7939 48.9764 45.8384 49.472 46.0592C49.7588 46.1874 50.7465 46.5203 51.6156 46.7838C55.2141 47.8734 59.9278 47.9036 63.6325 46.8604C63.8449 46.7998 64.0909 46.734 64.1777 46.7126C64.2662 46.6912 64.3954 46.6521 64.4662 46.6254C64.537 46.5987 64.7565 46.5274 64.9565 46.4687C65.1547 46.4099 65.3494 46.3441 65.3902 46.3245C65.4291 46.3049 65.5707 46.2497 65.7035 46.2052C65.8362 46.1589 66.0097 46.093 66.0893 46.0592C66.169 46.0254 66.4292 45.915 66.6664 45.8135C68.8559 44.8931 71.1517 43.4047 72.9253 41.7561C73.7926 40.9496 74.2281 40.4974 75.0016 39.5966C75.1662 39.4061 75.8778 38.4536 76.2583 37.9177C77.5204 36.1391 78.6975 33.5292 79.3382 31.0919C80.0993 28.1988 80.2073 24.1717 79.5984 21.4994C79.5736 21.3926 79.5064 21.0882 79.4497 20.8211C79.3931 20.5541 79.3152 20.2389 79.2816 20.1179C78.9807 19.0942 78.9081 18.8574 78.8426 18.6883C78.8019 18.5814 78.7399 18.4176 78.7045 18.3251C78.2992 17.2337 77.7363 15.9839 77.3327 15.2736C76.8247 14.3798 76.3627 13.6339 76.0778 13.2529L75.853 12.952L75.7981 13.1318M69.2524 22.0905C69.325 22.1012 69.4436 22.1012 69.5179 22.0905C69.5905 22.0798 69.5303 22.0709 69.3852 22.0709C69.24 22.0709 69.1799 22.0798 69.2524 22.0905ZM63.8573 26.933C63.9033 26.9455 63.9794 26.9455 64.0254 26.933C64.0715 26.9205 64.0343 26.9116 63.9405 26.9116C63.8467 26.9116 63.8095 26.9223 63.8555 26.933" fill="#F30504"/>
<path fill-rule="evenodd" clip-rule="evenodd" d="M40.0498 2.56847C39.2073 3.1275 38.6462 5.96536 38.9028 8.35814C38.9294 8.60382 38.9719 9.07561 38.9984 9.40854C39.0799 10.4447 39.2108 11.4648 39.3631 12.2428C39.4002 12.4298 39.4445 12.7235 39.4622 12.8962C39.4799 13.0689 39.51 13.222 39.5294 13.2345C39.5489 13.2487 39.5879 13.3787 39.6162 13.5247C39.7419 14.1638 39.8781 14.7407 40.0587 15.3905C40.1171 15.6041 40.1826 15.8427 40.2021 15.9228C40.3384 16.4711 40.6198 17.3311 41.0004 18.369C41.3561 19.3411 41.3561 19.3856 40.9827 20.1956C40.8251 20.5357 40.6269 20.9683 40.5419 21.1534C40.3437 21.5861 39.8958 22.7344 39.7932 23.0727C39.7489 23.2151 39.6958 23.3771 39.6746 23.4305C39.6091 23.5925 39.3542 24.456 39.0922 25.3924C39.0108 25.6844 38.8108 26.7562 38.6834 27.5733C38.5772 28.2534 38.4037 30.1388 38.4409 30.178C38.4515 30.1869 38.6179 30.1709 38.8126 30.1406C39.5383 30.0284 39.9649 30.0017 40.9968 30C42.181 30 42.7492 30.0569 43.7758 30.2812C45.5512 30.6694 47.6399 31.8889 49.0878 33.3826C49.3834 33.687 49.3586 33.6906 49.5214 33.3256C50.9003 30.2617 52.5217 28.4813 54.821 27.5039C56.2813 26.8826 58.3257 26.7811 60.0958 27.2422C62.4641 27.86 64.4696 29.7311 65.5387 32.3215C65.6201 32.5209 65.7086 32.7292 65.7334 32.7808C65.7582 32.8343 65.8343 33.0301 65.9033 33.2152C65.9723 33.4004 66.0396 33.5713 66.0538 33.5945C66.0679 33.6176 66.2237 33.4983 66.3989 33.3292C67.5265 32.2485 68.5566 31.572 70.1762 30.8527C70.2771 30.8082 70.3816 30.7708 70.4099 30.7708C70.4382 30.7708 70.5302 30.7406 70.6134 30.7032C71.0595 30.5038 71.9144 30.2955 72.8844 30.1531C73.7995 30.0178 76.4759 30.0729 76.8812 30.235C77.0104 30.2866 76.9715 29.1294 76.7892 27.5004C76.7024 26.7277 76.5608 25.9159 76.421 25.3924C76.3962 25.2999 76.3201 24.9901 76.2528 24.7052C75.9466 23.4145 75.3802 21.9475 74.6067 20.452C74.3801 20.0122 74.1536 19.5707 74.1022 19.471L74.0119 19.2894L74.3217 18.3565C74.4916 17.8438 74.6757 17.2705 74.7288 17.0854C74.7837 16.8984 74.8917 16.5281 74.9713 16.2628C75.1943 15.5133 75.3519 14.9276 75.559 14.0819C75.6634 13.6564 75.7802 13.2096 75.8174 13.0885C75.8864 12.8713 75.9395 12.6363 76.0688 11.9989C76.2936 10.8809 76.4139 10.1812 76.4953 9.50468C76.5325 9.19846 76.5874 8.74091 76.6175 8.4881C76.6865 7.90415 76.6918 5.70721 76.6228 5.29061C76.4953 4.50904 76.4635 4.35949 76.3467 4.00164C76.0404 3.05806 75.7077 2.51328 75.4616 2.54889C75.3678 2.56313 75.182 2.58805 75.0492 2.60586C74.8315 2.63256 74.5005 2.71446 73.8686 2.89249C72.3977 3.30909 69.9921 4.84909 68.6929 6.20571C68.5885 6.31431 68.4734 6.4051 68.4398 6.4051C68.4062 6.4051 68.3778 6.43359 68.3778 6.46742C68.3778 6.50124 68.2681 6.63833 68.1318 6.77007C67.8362 7.06027 67.0485 7.91839 66.7158 8.31541C66.583 8.47386 66.3989 8.69106 66.3051 8.79966C66.2113 8.90826 65.9228 9.25365 65.6626 9.56699C65.4024 9.88033 65.1864 10.1367 65.1829 10.1367C65.1794 10.1367 64.9369 10.0601 64.6448 9.96579C64.3545 9.87143 63.8978 9.73968 63.6341 9.67381C63.3686 9.60794 63.0765 9.53138 62.9845 9.50468C62.8181 9.45661 62.7101 9.43346 61.949 9.28391C60.7082 9.04001 58.4974 8.84951 57.4212 8.89046C55.4653 8.96701 54.4227 9.0863 52.8952 9.4032C52.4898 9.48687 50.8543 9.96935 50.5675 10.0886C50.4206 10.1492 50.4188 10.1474 49.8861 9.57945C49.6347 9.3124 49.0488 8.69996 48.5833 8.22105C47.1956 6.79144 46.992 6.5689 47.031 6.52083C47.0504 6.4959 47.0469 6.49234 47.0239 6.51192C46.9991 6.53151 46.8362 6.41223 46.661 6.24487C44.8927 4.57135 43.5988 3.59929 42.3474 3.01C41.4358 2.57915 40.3472 2.37085 40.0498 2.56847ZM56.7379 3.82539C56.8105 3.83607 56.9203 3.83607 56.9787 3.82539C57.0371 3.81471 56.9787 3.80403 56.8459 3.80581C56.7132 3.80759 56.6654 3.81471 56.7379 3.82717M49.5834 17.5714C51.0242 17.9577 52.0544 19.9464 51.164 20.6282C50.6702 21.0075 48.9125 21.1855 47.5974 20.9897C46.4663 20.8205 46.307 19.1648 47.3319 18.2177C47.9956 17.6052 48.8223 17.3684 49.5834 17.5714ZM66.799 17.5767C68.3424 17.9791 69.1372 19.7505 68.2062 20.7137C67.6592 21.2798 64.5705 21.1499 64.0076 20.5357C63.7934 20.3007 63.6695 19.8396 63.758 19.6045C63.7828 19.5369 63.804 19.4372 63.804 19.382C63.804 19.2004 64.0571 18.7535 64.328 18.4616C65.0785 17.6462 65.9139 17.3471 66.799 17.5785M69.7178 22.3231C69.8523 22.8145 69.87 22.9694 69.8718 23.7367V24.5201L69.5496 24.8174C68.8876 25.4209 68.2185 25.793 67.0326 26.2132C66.3759 26.4464 66.1847 26.4998 65.082 26.7597C64.3651 26.9289 63.1473 27.0054 62.5296 26.92L62.2995 26.8879L62.3296 26.5995C62.3986 25.9408 62.9827 25.2732 64.1899 24.4738C65.5068 23.6032 66.2609 23.1795 67.7052 22.5065C68.2185 22.2679 69.0275 22.0614 69.4133 22.0739L69.6505 22.081L69.7178 22.3231ZM47.0433 22.2341C47.4505 22.3178 47.7372 22.4086 48.0558 22.551C48.5975 22.7949 49.3816 23.1955 49.9338 23.5124C50.2648 23.7029 50.6525 23.9219 50.7941 24.0002C52.481 24.9331 53.4952 25.9087 53.497 26.5995C53.4987 27.7087 47.9549 26.425 46.2486 24.9206C45.7246 24.4578 45.6238 23.37 46.0185 22.4175C46.1654 22.0614 46.1973 22.0561 47.0433 22.2323M35.7362 22.8287C35.7362 22.9213 35.7468 22.9605 35.7575 22.9142C35.7698 22.8679 35.7698 22.7914 35.7575 22.7451C35.7451 22.6988 35.7362 22.7362 35.7362 22.8305M79.9045 23.4839C79.9045 23.5907 79.9151 23.6281 79.9257 23.5676C79.9381 23.5071 79.9363 23.4198 79.9257 23.3735C79.9133 23.3272 79.9045 23.3771 79.9045 23.4839ZM35.5415 24.9598C35.5415 25.0542 35.5521 25.0916 35.5627 25.0453C35.5751 24.999 35.5751 24.9224 35.5627 24.8761C35.5504 24.8298 35.5415 24.8672 35.5415 24.9598ZM80.0054 25.6132C80.0054 25.9337 80.0124 26.0565 80.0231 25.8891C80.0319 25.7218 80.0319 25.4601 80.0231 25.3088C80.0142 25.1574 80.0054 25.2945 80.0054 25.6132ZM35.5415 26.5586C35.5415 26.6511 35.5521 26.6903 35.5627 26.644C35.5751 26.5977 35.5751 26.5212 35.5627 26.4749C35.5504 26.4286 35.5415 26.466 35.5415 26.5603M79.9027 27.9401C79.9027 28.0469 79.9133 28.0843 79.9239 28.0238C79.9363 27.9632 79.9346 27.876 79.9239 27.8297C79.9116 27.7834 79.9027 27.8333 79.9027 27.9401ZM76.9662 30.5323C76.9662 30.6516 76.975 30.7014 76.9874 30.6409C76.9998 30.5803 76.9998 30.4824 76.9874 30.4219C76.975 30.3614 76.9662 30.4112 76.9662 30.5305M42.2748 37.4738C42.2748 37.4738 42.3456 37.5522 42.4306 37.6305L42.5863 37.7729L42.4447 37.6145C42.312 37.4685 42.273 37.4347 42.273 37.472M72.734 38.1949L72.5924 38.3533L72.7481 38.2109C72.8349 38.1325 72.9057 38.0613 72.9057 38.0542C72.9057 38.0168 72.8649 38.0489 72.734 38.1966M41.4305 40.5592C41.5332 40.666 41.6287 40.7532 41.6429 40.7532C41.6571 40.7532 41.5827 40.666 41.4783 40.5592C41.3756 40.4523 41.28 40.3651 41.2659 40.3651C41.2517 40.3651 41.3261 40.4523 41.4305 40.5592ZM42.6341 41.7698C42.7386 41.8766 42.8324 41.9638 42.8465 41.9638C42.8607 41.9638 42.7864 41.8766 42.6819 41.7698C42.5793 41.663 42.4837 41.5757 42.4695 41.5757C42.4554 41.5757 42.5297 41.663 42.6341 41.7698ZM72.6384 42.0244L72.4968 42.181L72.6525 42.0386C72.7393 41.9603 72.8101 41.8891 72.8101 41.8802C72.8101 41.8428 72.7694 41.8766 72.6384 42.0226M57.7221 44.7091C57.7823 44.7198 57.869 44.7198 57.915 44.7091C57.9611 44.6967 57.9133 44.6878 57.8071 44.6878C57.7009 44.6878 57.6637 44.6984 57.7239 44.7091M56.5432 47.6146C56.5893 47.6271 56.6654 47.6271 56.7114 47.6146C56.7574 47.6022 56.7202 47.5933 56.6264 47.5933C56.5326 47.5933 56.4955 47.604 56.5415 47.6146" fill="#FBA10B"/>
<path fill-rule="evenodd" clip-rule="evenodd" d="M46.1427 22.1651C45.8842 22.5158 45.7072 23.682 45.8382 24.1804C45.863 24.2766 45.8949 24.4137 45.909 24.4831C45.9621 24.7502 46.6843 25.3092 47.5198 25.7347C49.1889 26.5821 52.4759 27.2462 53.2831 26.899L53.5096 26.8011L53.4831 26.5412C53.4194 25.9109 52.8441 25.2985 51.513 24.4386C51.2564 24.273 51.0351 24.1377 51.0192 24.1377C51.0032 24.1377 50.759 23.9989 50.474 23.8297C49.3854 23.1817 48.2189 22.5942 47.6384 22.4019C47.0312 22.1989 46.2099 22.0707 46.1391 22.1669M68.8826 22.1366C67.9763 22.3253 66.7461 22.8933 65.1743 23.8493C63.1423 25.0849 62.4077 25.8006 62.3228 26.632L62.2962 26.8919L62.8555 26.9275C65.038 27.0646 68.1958 26.064 69.5694 24.7982L69.8703 24.5205V23.7371C69.8667 22.9858 69.8526 22.8541 69.7198 22.336L69.6614 22.1064L69.3198 22.1117C69.1322 22.1153 68.9357 22.1259 68.8826 22.1384M56.1435 29.9327C55.5063 30.1321 55.2284 30.9831 55.4195 32.1599C55.5647 33.0626 56.648 34.0613 57.9383 34.4797C58.0144 34.5046 58.0233 34.5848 58.0233 35.231V35.9538L57.8604 36.05C57.7702 36.1034 57.6268 36.2529 57.5401 36.3811C57.4533 36.5111 57.3754 36.625 57.3666 36.6357C57.2905 36.7301 55.5222 36.6517 54.8213 36.5235C54.4354 36.4523 53.299 36.4203 53.2406 36.479C53.2247 36.4968 53.2742 36.5841 53.3521 36.6749C53.5574 36.9099 53.6636 37.1467 53.7575 37.5757L53.8389 37.9514H54.03C54.2407 37.9514 54.2424 37.9532 54.3876 38.4356C54.4849 38.7614 54.7646 39.3721 54.8867 39.5288L54.977 39.6427L55.0673 39.4397C55.1469 39.2599 55.1576 39.1228 55.1505 38.2629L55.1434 37.2891L55.3912 37.3087C55.5275 37.3194 55.8355 37.3496 56.0727 37.3745C57.487 37.5241 59.2358 37.5241 60.4801 37.3745C60.6784 37.3514 61.0076 37.3176 61.2112 37.2998L61.5811 37.2695L61.5723 38.2042C61.5634 39.0872 61.5687 39.1495 61.6714 39.3418C61.7829 39.5519 61.8767 39.6463 61.8767 39.5483C61.8767 39.5181 61.9086 39.4237 61.9475 39.34C61.9864 39.2564 62.1139 38.9359 62.2325 38.6297L62.4467 38.0724L62.7016 37.9941L62.9564 37.9158L63.1087 37.3621C63.1919 37.0577 63.2751 36.7265 63.2928 36.6286L63.3264 36.4488H62.6131C62.0254 36.4506 61.8661 36.4666 61.705 36.5396C61.42 36.6695 61.0271 36.7034 60.2571 36.666L59.5703 36.6321L59.3508 36.3491C59.2234 36.1853 59.08 36.0518 59.0092 36.034L58.8871 36.0037L58.9012 35.2702L58.9136 34.5367L59.1066 34.4477C60.5846 33.7622 61.0253 33.1053 61.0306 31.5813C61.0342 30.4223 60.889 30.1571 60.135 29.9398C59.7597 29.833 56.4851 29.8295 56.1453 29.9363M56.2674 38.06C56.3116 38.2736 56.3966 38.3591 56.6887 38.4855L56.9365 38.5923L57.0958 38.4178C57.3737 38.1134 57.5949 38.2006 57.9029 38.7401C58.0994 39.0819 58.3384 39.0178 58.8074 38.4944C59.0234 38.2523 59.0057 38.254 59.2747 38.4588L59.4907 38.6226L59.6694 38.4944C59.8783 38.3431 59.9279 38.2736 59.9739 38.0618L60.0075 37.9051H56.2355L56.2692 38.0618" fill="#060505"/>
</g>
<defs>
<clipPath id="clip0_22_1363">
<rect width="44.4886" height="45.1334" fill="white" transform="translate(35.5415 2.49414)"/>
</clipPath>
</defs>
</svg>
