<svg width="104" height="87" viewBox="0 0 104 87" fill="none" xmlns="http://www.w3.org/2000/svg">
<path d="M98.5582 46.3864H94.4178V43.8488C94.4178 42.0056 92.922 40.5098 91.0788 40.5098H83.6796C81.8364 40.5098 80.3406 42.0056 80.3406 43.8488V46.3864H22.2685V43.8488C22.2685 42.0056 20.7726 40.5098 18.9295 40.5098H11.5302C9.6871 40.5098 8.19123 42.0056 8.19123 43.8488V46.3864H4.61181C2.76867 46.3864 1.2728 47.8823 1.2728 49.7254V79.1622C1.2728 81.0053 2.76867 82.5012 4.61181 82.5012H98.5582C100.401 82.5012 101.897 81.0053 101.897 79.1622V49.7254C101.897 47.8823 100.401 46.3864 98.5582 46.3864ZM48.1258 75.8231H7.95082V53.0644H48.1258V75.8231ZM95.2192 75.8231H55.0175V53.0644H95.2192V75.8231Z" fill="white"/>
<path d="M75.0779 10.3767H70.9375V7.83901C70.9375 5.99588 69.4416 4.5 67.5985 4.5H60.2259C58.3561 4.5 56.8869 5.99588 56.8869 7.83901V10.3767H45.8816V7.83901C45.8816 5.99588 44.3857 4.5 42.5426 4.5H35.1433C33.3002 4.5 31.8043 5.99588 31.8043 7.83901V10.3767H28.2249C26.355 10.3767 24.8859 11.8725 24.8859 13.7157V43.1524C24.8859 44.9955 26.355 46.4914 28.2249 46.4914H75.0779C76.921 46.4914 78.4169 44.9955 78.4169 43.1524V13.7157C78.4169 11.8725 76.921 10.3767 75.0779 10.3767ZM71.7389 39.8134H31.5639V17.0547H71.7389V39.8134Z" fill="#EF6402"/>
</svg>
