<svg width="200" height="45" viewBox="0 0 200 45" fill="none" xmlns="http://www.w3.org/2000/svg">
<g clip-path="url(#clip0_279_7542)">
<path d="M42.343 27.2031C40.6833 26.6715 34.8783 25.2449 30.8849 29.6232C30.049 26.4766 27.0211 24.3065 23.6065 24.4059H23.5958C20.1772 24.3023 17.1444 26.4749 16.3099 29.6253C12.379 25.3154 6.69468 26.6299 4.93355 27.1772H4.92773C5.01669 28.5948 5.52491 29.9603 6.39386 31.116C11.4721 37.8321 18.6575 40.2909 23.5332 40.3537V40.3592C23.552 40.3592 23.5739 40.3563 23.5958 40.3563H23.6405C23.6758 40.3563 23.7138 40.3592 23.7496 40.3592V40.3537C28.6253 40.2913 35.8089 37.833 40.8858 31.116C41.7503 29.968 42.2572 28.6118 42.3492 27.2031H42.343Z" fill="white"/>
<path d="M23.6873 0C36.7693 0 47.3746 10.0737 47.3746 22.5C47.3746 34.9263 36.7693 45 23.6873 45C10.6053 45 0 34.9263 0 22.5C0 10.0737 10.6053 0 23.6873 0Z" fill="#CF0020"/>
<path d="M9.77448 11.6884C11.0055 10.3467 12.4966 9.24275 14.167 8.43646C11.0524 4.98586 8.54928 3.27861 7.45416 2.87695C6.49894 5.65161 7.60748 10.0214 8.64985 13.0581C8.99716 12.5817 9.37264 12.1244 9.77448 11.6884Z" fill="#EB5D02"/>
<path d="M37.5059 11.6884C37.8447 12.0543 38.1679 12.4407 38.4749 12.8479C39.4936 9.82145 40.5311 5.5875 39.5973 2.87695C38.5134 3.27606 36.0375 4.96209 32.9551 8.36131C34.6894 9.17269 36.236 10.3038 37.5059 11.6884Z" fill="#EB5D02"/>
<path d="M42.2806 25.4899C41.6973 21.7535 40.8056 18.5059 39.432 15.8289C40.5673 13.2652 41.346 10.5717 41.7483 7.81654C42.0214 5.61635 41.9271 3.35841 41.0331 1.50977C40.8284 1.0941 40.351 0.866098 39.8776 0.957808C39.077 1.10514 37.7043 1.58407 35.793 3.02978C33.8437 4.5655 32.0866 6.30885 30.5565 8.22542C28.3524 7.57581 26.0554 7.25439 23.7476 7.27265V7.26968C23.7109 7.26968 23.6769 7.27265 23.6407 7.27265C23.6045 7.27265 23.5674 7.26968 23.5339 7.26968V7.27265C21.1613 7.251 18.8007 7.59151 16.5421 8.28189C14.9964 6.33899 13.2196 4.57229 11.2466 3.01704C9.34153 1.58237 7.97151 1.10302 7.17408 0.955685C6.70072 0.863975 6.22334 1.09198 6.01861 1.50765C5.12821 3.34907 5.03211 5.59512 5.29673 7.78512C5.71287 10.6371 6.53042 13.4228 7.7279 16.0675C6.42582 18.6999 5.56671 21.8631 5.00127 25.4899C4.91455 26.0482 4.89399 26.6137 4.93958 27.1763C6.69804 26.6303 12.3851 25.3158 16.3137 29.6245C17.1491 26.4745 20.1815 24.3023 23.5996 24.4051H23.6054C24.823 24.3847 26.029 24.6331 27.1286 25.1307C28.9903 26.0618 30.3541 27.6935 30.8869 29.6266C34.8803 25.247 40.6884 26.6736 42.3454 27.2039C42.3928 26.632 42.3709 26.0567 42.2802 25.4894M9.77198 11.6875C9.37103 12.124 8.99556 12.5817 8.64781 13.0576C7.60498 10.0193 6.49779 5.65031 7.453 2.87735C8.54947 3.27859 11.0513 4.98414 14.1659 8.43941C12.4955 9.24527 11.0039 10.3483 9.77198 11.6892M37.5059 11.6892C36.2351 10.3059 34.6885 9.17521 32.9555 8.36214C36.0398 4.96546 38.5129 3.27859 39.5978 2.87948C40.5302 5.58833 39.4936 9.82355 38.4758 12.8483C38.1665 12.4394 37.8451 12.0539 37.5072 11.6875L37.5059 11.6892Z" fill="#FD9236"/>
<path d="M28.8751 33.7629C28.6842 34.1216 28.5792 34.5161 28.5676 34.9177C28.5519 35.0409 28.4389 35.1317 28.3083 35.1262H28.0401L27.417 36.69C27.4009 36.7333 27.3585 36.7621 27.3102 36.7626C27.2807 36.7626 27.2521 36.7507 27.2315 36.7303C27.11 36.5987 27.0009 36.4564 26.907 36.3057C26.8865 36.2743 26.8757 36.2382 26.8762 36.2013V34.424C25.8119 34.5628 24.7387 34.6307 23.6641 34.6277H23.5993C22.5292 34.6282 21.4605 34.5573 20.4006 34.4155V36.2013C20.4006 36.2382 20.3899 36.2743 20.3694 36.3057C20.2755 36.4564 20.1669 36.5987 20.0448 36.7303C20.0001 36.7728 19.9273 36.7728 19.8826 36.7303C19.871 36.7188 19.862 36.7057 19.8562 36.6908L19.2331 35.1275H18.9649C18.8339 35.1339 18.7204 35.0421 18.7057 34.9186C18.6927 34.5169 18.5877 34.1233 18.3981 33.7641C18.3628 33.6873 18.3999 33.5981 18.4808 33.5646C18.4983 33.5574 18.517 33.5531 18.5362 33.5523C19.0463 33.5417 20.1342 33.52 20.3568 33.5332H22.2825C22.4648 33.25 22.7447 33.0351 23.0745 32.9252V31.6964C20.7833 31.4192 20.4972 29.433 20.541 28.2573C20.558 27.7707 20.9782 27.3848 21.4904 27.3848H25.7815C26.2937 27.3848 26.7139 27.7707 26.7309 28.2573C26.7729 29.4351 26.4877 31.4192 24.1974 31.6964V32.9252C24.5272 33.0351 24.8071 33.25 24.9894 33.5332H26.9173C27.1408 33.52 28.2301 33.5408 28.7379 33.5523C28.8259 33.5569 28.8934 33.6283 28.8885 33.7119C28.8876 33.7306 28.8827 33.7493 28.8747 33.7663" fill="#202740"/>
<path d="M42.3427 27.2032C40.6857 26.6729 34.878 25.2463 30.8841 29.6259C30.3509 27.6923 28.9867 26.0606 27.1245 25.1295C26.0249 24.6319 24.8189 24.3835 23.6013 24.4039H23.5978C20.1796 24.3011 17.1472 26.4733 16.3118 29.6233C12.3832 25.3133 6.69619 26.6283 4.93773 27.1751C4.93505 27.1751 4.93192 27.1781 4.92969 27.1781C5.01819 28.5954 5.52642 29.9604 6.39537 31.1157C11.4741 37.8322 18.6572 40.2897 23.5356 40.3534V40.3564H23.5978V40.2515H23.6036V40.3559C23.6165 40.3559 23.6299 40.3551 23.6429 40.353C23.6769 40.3559 23.7135 40.3559 23.7497 40.3559V40.353C25.2936 40.3207 26.8264 40.0986 28.3104 39.6927C33.4051 38.2725 37.8397 35.2478 40.8851 31.1161C41.7486 29.9681 42.2564 28.6132 42.3507 27.2053C42.3485 27.2036 42.3454 27.2027 42.3427 27.2032ZM25.9154 35.6409C25.9212 35.9029 25.742 36.136 25.4778 36.2112C25.4335 36.2205 25.3888 36.226 25.3437 36.2273C25.0084 36.2273 24.9749 35.8116 24.6142 35.8116C24.2535 35.8116 24.1672 36.8306 23.6474 36.8637V36.8667C23.6442 36.8667 23.6393 36.8637 23.6362 36.8637C23.6331 36.8637 23.6281 36.8667 23.625 36.8667V36.8637C23.6174 36.8633 23.6098 36.8612 23.6027 36.8582H23.5978C23.1016 36.7911 23.0033 35.8116 22.6591 35.8116C22.3015 35.8116 22.2671 36.2273 21.9296 36.2273C21.8844 36.226 21.8393 36.2209 21.7955 36.2112C21.5313 36.1364 21.3521 35.9029 21.3579 35.6409V35.3382H25.9172L25.9154 35.6409ZM28.8745 33.7643C28.6836 34.123 28.5786 34.5175 28.5669 34.9191C28.5513 35.0423 28.4382 35.1336 28.3077 35.128H28.0395L27.4164 36.6914C27.4003 36.7342 27.3574 36.7631 27.3096 36.7635C27.2801 36.7635 27.2514 36.7517 27.2309 36.7317C27.1093 36.6001 27.0007 36.4578 26.9064 36.3071C26.8858 36.2757 26.8751 36.2396 26.8755 36.2027V34.4237C25.8112 34.5629 24.7376 34.6317 23.663 34.6296H23.5978C22.5277 34.6296 21.4589 34.5591 20.3991 34.4173V36.2031C20.3991 36.24 20.3888 36.2761 20.3683 36.3075C20.2744 36.4583 20.1653 36.6005 20.0437 36.7321C19.999 36.7746 19.9262 36.7746 19.8815 36.7321C19.8699 36.7211 19.8609 36.7075 19.8551 36.6926L19.232 35.1293H18.9638C18.8328 35.1357 18.7193 35.044 18.7046 34.9204C18.6916 34.5188 18.5866 34.1247 18.397 33.7655C18.3617 33.6887 18.3984 33.5995 18.4788 33.566C18.4967 33.5588 18.5155 33.5545 18.5351 33.5533C19.0452 33.5426 20.1331 33.521 20.3557 33.5341H22.2832C22.4655 33.251 22.7453 33.0361 23.0752 32.9261V31.6974C20.784 31.4201 20.4979 29.4339 20.5417 28.2583C20.5587 27.7717 20.9788 27.3853 21.4915 27.3857H25.7826C26.2953 27.3857 26.7155 27.7717 26.7325 28.2583C26.7745 29.4361 26.4893 31.4197 24.199 31.6974V32.9261C24.5288 33.0361 24.8086 33.251 24.991 33.5341H26.9184C27.1419 33.521 28.229 33.5422 28.739 33.5533C28.8266 33.5571 28.8946 33.628 28.8906 33.7112C28.8897 33.7299 28.8852 33.7486 28.8771 33.7655L28.8745 33.7643Z" fill="white"/>
<path d="M25.9141 35.3379V35.6406C25.9195 35.9022 25.7407 36.1353 25.4765 36.2104C25.4323 36.2198 25.3876 36.2253 25.3424 36.2265C25.0068 36.2265 24.9737 35.8109 24.613 35.8109C24.2522 35.8109 24.166 36.8299 23.6461 36.863V36.8655C23.643 36.8655 23.6376 36.863 23.6349 36.863C23.6323 36.863 23.6265 36.8655 23.6238 36.8655V36.863C23.6162 36.8626 23.6086 36.8605 23.6014 36.8575H23.5974C23.1012 36.7904 23.0025 35.8109 22.6587 35.8109C22.3011 35.8109 22.2672 36.2265 21.9292 36.2265C21.8841 36.2253 21.8394 36.2202 21.7951 36.2104C21.531 36.1353 21.3522 35.9026 21.3575 35.6406V35.3379H25.9141Z" fill="#202740"/>
<path d="M34.755 20.7229L34.5499 19.1604C34.5499 18.8976 34.3264 18.684 34.0497 18.6836C33.988 18.6836 33.9268 18.6942 33.8691 18.7154C32.0941 19.3502 27.0847 21.5275 27.6519 22.946C28.1552 23.9157 32.2653 22.8713 34.304 21.5398C34.6066 21.3721 34.7819 21.0549 34.755 20.7229Z" fill="#202740"/>
<path d="M12.6172 20.7236L12.8224 19.1611C12.8228 18.8978 13.0481 18.6851 13.3248 18.6855C13.3847 18.6855 13.4441 18.6962 13.5004 18.7161C15.2741 19.3509 20.2848 21.5269 19.7181 22.9467C19.2147 23.9164 15.1042 22.8719 13.066 21.5405C12.7848 21.3545 12.6176 21.0492 12.619 20.7236" fill="#202740"/>
<path d="M19.3549 18.2182C18.3554 18.1422 16.2577 17.9409 15.6029 17.5545C14.7317 17.0399 15.0933 14.6559 18.2325 14.9888C20.6244 15.2435 20.9145 16.7958 20.4778 17.6806C20.2489 18.0555 19.8082 18.2661 19.3549 18.2182Z" fill="white"/>
<path d="M28.0208 18.2182C29.0203 18.1422 31.118 17.9409 31.7728 17.5545C32.644 17.0399 32.2824 14.6559 29.1436 14.9888C26.7518 15.2435 26.4617 16.7958 26.8984 17.6806C27.1273 18.0551 27.5675 18.2661 28.0208 18.2182Z" fill="white"/>
<path d="M164.359 16.5257H167.814C168.443 16.5257 168.809 16.8264 168.912 17.4279C168.957 17.6958 169.011 17.9629 169.075 18.3064C169.883 17.4296 170.942 16.7936 172.122 16.4747C173.485 16.0892 174.935 16.0866 176.299 16.4666C178.843 17.1927 180.122 18.9598 180.597 21.3366C180.707 21.895 180.764 22.4614 180.767 23.029C180.784 25.8245 180.776 28.6208 180.775 31.4163C180.775 31.516 180.763 31.6154 180.755 31.7462H175.662V31.2507C175.662 28.7316 175.661 26.2121 175.659 23.6931C175.668 23.3581 175.65 23.0231 175.605 22.6911C175.394 21.4283 174.63 20.6042 173.492 20.3749C172.202 20.076 170.85 20.5558 170.083 21.5859C169.618 22.2775 169.391 23.0897 169.434 23.9096C169.439 26.3416 169.434 28.7732 169.434 31.2052V31.7474H164.359V16.5257Z" fill="white"/>
<path d="M200.001 31.7594H195.62C195.514 31.2074 195.409 30.6657 195.292 30.0611C195.169 30.1647 195.071 30.2407 194.981 30.3243C192.783 32.2702 189.526 32.6761 186.873 31.3348C185.154 30.3965 184.288 28.8977 183.92 27.1098C183.799 26.5243 183.736 25.929 183.731 25.3325C183.711 22.5073 183.721 19.6825 183.722 16.8573C183.722 16.7724 183.731 16.6841 183.738 16.5601H188.789C188.798 16.7172 188.815 16.8841 188.815 17.0509C188.815 19.556 188.813 22.061 188.82 24.5661C188.812 24.9593 188.842 25.3524 188.91 25.7401C189.133 26.838 189.73 27.6706 190.941 27.9178C192.117 28.2264 193.372 27.835 194.127 26.9251C194.705 26.1965 194.992 25.2964 194.935 24.3856C194.938 21.954 194.938 19.522 194.935 17.09V16.5508H200.001V31.7594Z" fill="white"/>
<path d="M160.982 10.1855H155.705V31.7489H160.982V10.1855Z" fill="white"/>
<path d="M57.9414 29.1753L60.5974 25.6512C61.6224 26.1959 62.6768 26.6893 63.7558 27.13C65.6958 27.8641 67.8284 28.0034 69.8559 27.5291C70.4035 27.3946 70.9166 27.1568 71.3649 26.8294C72.1937 26.2579 72.3778 25.157 71.7762 24.3698C71.6144 24.1579 71.4043 23.983 71.1625 23.8573C70.2023 23.2871 69.0978 23.1606 68.0098 22.9772C66.4431 22.7127 64.8814 22.4235 63.3245 22.1106C62.9258 22.0049 62.5387 21.8643 62.1672 21.6911C57.4975 19.8463 57.6603 14.2388 60.6922 11.862C62.1659 10.7249 63.957 10.0206 65.8455 9.83629C69.3276 9.37137 72.8717 10.0643 75.8773 11.7979C76.0342 11.8883 76.1853 11.9885 76.3364 12.0883C76.3788 12.1244 76.4173 12.1639 76.4521 12.2067L73.9856 15.699C73.8328 15.614 73.7049 15.5444 73.5793 15.4714C71.3721 14.122 68.6919 13.6575 66.1253 14.1798C65.6019 14.2876 65.1035 14.4846 64.6543 14.7619C63.3379 15.5801 63.4304 17.129 64.8174 17.8346C65.8348 18.2842 66.9317 18.5509 68.0514 18.6205C69.8863 18.7789 71.6859 19.2009 73.3876 19.8722C75.3288 20.709 76.7713 21.9777 77.2107 24.0463C77.8418 26.6957 76.5733 29.4253 74.0867 30.7675C72.5758 31.6187 70.8701 32.1091 69.1157 32.1962C65.3163 32.4509 61.7676 31.7147 58.5757 29.6682C58.3969 29.5544 58.2302 29.4262 58.0603 29.3022C58.0174 29.2627 57.9776 29.2203 57.9414 29.1748" fill="white"/>
<path d="M113.975 29.9755C113.862 30.5929 113.76 31.1503 113.651 31.7452H109.273V10.2188H114.32V17.9746C114.437 17.9075 114.488 17.8842 114.532 17.8519C119.327 14.3279 125.914 16.8181 126.86 22.5147C127.262 24.5353 126.93 26.626 125.918 28.444C123.877 31.89 119.282 33.1115 115.655 31.1728C115.118 30.8858 114.62 30.5377 114.172 30.136C114.128 30.0969 114.083 30.0626 113.975 29.9751M114.309 24.168C114.309 25.9237 115.24 27.2883 116.776 27.7902C119.479 28.6725 122.009 26.862 121.94 24.0963C121.873 21.4503 119.66 19.8114 117.033 20.4648C115.357 20.8822 114.307 22.3084 114.307 24.168" fill="white"/>
<path d="M85.3325 31.764H80.2734V10.2168H85.319V18.1298C85.3785 18.1119 85.4353 18.0869 85.4885 18.0555C87.4959 16.1563 89.9052 15.7975 92.5013 16.5694C94.8055 17.2556 95.9659 18.9632 96.4491 21.1188C96.5854 21.7455 96.6551 22.3837 96.6574 23.0235C96.6802 25.8173 96.6686 28.6115 96.6681 31.4057C96.6681 31.5063 96.6574 31.6069 96.6498 31.7453H91.5773V31.2545C91.5773 28.7227 91.5823 26.1905 91.572 23.6583C91.5773 23.2511 91.5385 22.8448 91.4549 22.4453C91.2059 21.3596 90.556 20.5868 89.358 20.386C87.9827 20.1555 86.7972 20.4951 85.9645 21.6271C85.5121 22.2924 85.2909 23.0758 85.3325 23.8668V31.764Z" fill="white"/>
<path d="M141.991 18.3204C142.11 17.6903 142.214 17.1354 142.323 16.5647H146.699V31.7555H142.324C142.217 31.1806 142.111 30.613 141.997 30.0054C141.938 30.0334 141.881 30.0674 141.829 30.1073C138.785 33.2849 131.188 32.9851 129.365 26.776C128.676 24.6034 128.865 22.2652 129.893 20.2174C131.736 16.6743 136.254 15.2218 139.984 16.9728C140.634 17.2776 141.233 17.6699 141.765 18.137C141.818 18.185 141.876 18.2278 141.988 18.32M141.686 24.1415C141.679 21.4878 139.445 19.8107 136.794 20.4646C135.125 20.8773 134.055 22.3251 134.057 24.1665C134.057 25.9268 135.018 27.3084 136.578 27.8022C139.27 28.6514 141.693 26.9148 141.686 24.1415Z" fill="white"/>
<path d="M105.37 16.5684H100.336V31.7642H105.37V16.5684Z" fill="white"/>
<path d="M102.879 9.77344C104.891 9.7832 106.193 11.2625 105.77 13.0538C105.453 14.3955 104.007 15.2315 102.382 15.0128C100.756 14.7941 99.7753 13.6881 99.8785 12.1948C99.9786 10.7648 101.217 9.76495 102.878 9.77471" fill="white"/>
</g>
<defs>
<clipPath id="clip0_279_7542">
<rect width="200" height="45" fill="white"/>
</clipPath>
</defs>
</svg>
