<svg width="104" height="87" viewBox="0 0 104 87" fill="none" xmlns="http://www.w3.org/2000/svg">
<path d="M80.676 51.9496C80.2813 51.9496 79.8867 51.8567 79.5384 51.6478C78.8187 51.2299 78.3544 50.4637 78.3544 49.6279V27.6417C78.3544 26.8291 78.7955 26.063 79.492 25.6451L97.8332 14.71C98.5529 14.2921 99.4351 14.2689 100.178 14.6868C100.898 15.1047 101.362 15.8709 101.362 16.7067V38.6929C101.362 39.5055 100.921 40.2716 100.224 40.6895L81.8833 51.6246C81.5118 51.8335 81.1171 51.9496 80.6992 51.9496H80.676ZM82.9977 28.9651V45.5418L96.6955 37.3695V20.7928L82.9977 28.9651Z" fill="white"/>
<path d="M80.6763 51.9494C80.2584 51.9494 79.8173 51.8333 79.4458 51.6011L58.8526 38.7391C58.1794 38.3212 57.7615 37.5782 57.7615 36.7656V14.7562C57.7615 13.9204 58.2258 13.1311 58.9687 12.7364C59.7117 12.3185 60.6171 12.3417 61.3368 12.806L81.93 25.6681C82.6033 26.086 83.0212 26.8289 83.0212 27.6415V49.6277C83.0212 50.4635 82.5569 51.2529 81.8139 51.6475C81.4657 51.8333 81.071 51.9494 80.6995 51.9494H80.6763ZM62.4048 35.4655L78.3547 45.4255V28.9184L62.4048 18.9585V35.4655Z" fill="white"/>
<path d="M99.0173 19.0296C98.5994 19.0296 98.1815 18.9135 97.7869 18.6813L78.4009 6.56224L61.2902 16.7776C60.199 17.4276 58.7596 17.0794 58.1095 15.965C57.4595 14.8738 57.8077 13.4344 58.9221 12.7843L77.2401 1.82604C77.983 1.38492 78.9117 1.38492 79.6546 1.84925L100.248 14.7345C101.339 15.4078 101.664 16.8472 100.991 17.9384C100.55 18.6349 99.7835 19.0296 99.0173 19.0296Z" fill="white"/>
<path d="M52.7001 68.6918C52.3054 68.6918 51.9107 68.5989 51.5625 68.39C50.8427 67.9721 50.3784 67.2059 50.3784 66.3701V44.3839C50.3784 43.5713 50.8195 42.8052 51.516 42.3873L69.8572 31.4522C70.5769 31.0343 71.4592 31.0111 72.2021 31.429C72.9218 31.8469 73.3861 32.6131 73.3861 33.4489V55.4351C73.3861 56.2476 72.945 57.0138 72.2485 57.4317L53.9074 68.3667C53.5359 68.5757 53.1412 68.6918 52.7233 68.6918H52.7001ZM55.0217 45.7073V62.284L68.7196 54.1117V37.535L55.0217 45.7073Z" fill="#EF6402"/>
<path d="M52.7001 68.6898C52.2822 68.6898 51.8411 68.5737 51.4696 68.3416L30.8764 55.4795C30.2031 55.0616 29.7852 54.3187 29.7852 53.5061V31.5199C29.7852 30.6841 30.2496 29.8947 30.9925 29.5001C31.7354 29.0822 32.6409 29.1054 33.3606 29.5697L53.9538 42.4317C54.6271 42.8496 55.045 43.5926 55.045 44.4052V66.3914C55.045 67.2272 54.5806 68.0165 53.8377 68.4112C53.4895 68.5969 53.0948 68.713 52.7233 68.713L52.7001 68.6898ZM34.4286 52.206L50.3784 62.1659V45.6589L34.4286 35.6989V52.206Z" fill="#EF6402"/>
<path d="M71.0413 35.7701C70.6233 35.7701 70.2055 35.654 69.8108 35.4218L50.4248 23.3027L33.3141 33.518C32.223 34.1681 30.7835 33.8199 30.1335 32.7054C29.4834 31.6143 29.8316 30.1748 30.946 29.5248L49.2872 18.5897C50.0302 18.1486 50.9588 18.1486 51.7018 18.6129L72.295 31.4982C73.3861 32.1715 73.7112 33.6109 73.0379 34.7021C72.5968 35.3986 71.8306 35.7933 71.0645 35.7933L71.0413 35.7701Z" fill="#EF6402"/>
<path d="M24.7242 85.4554C24.3295 85.4554 23.9348 85.3626 23.5866 85.1536C22.8668 84.7357 22.4025 83.9696 22.4025 83.1338V61.1476C22.4025 60.335 22.8436 59.5689 23.5401 59.151L41.8813 48.2159C42.601 47.798 43.4832 47.7748 44.2262 48.1927C44.9459 48.6106 45.4102 49.3767 45.4102 50.2125V72.1987C45.4102 73.0113 44.9691 73.7775 44.2726 74.1954L25.9314 85.1304C25.56 85.3394 25.1653 85.4554 24.7474 85.4554H24.7242ZM27.0458 62.4709V79.0476L40.7437 70.8754V54.2987L27.0458 62.4709Z" fill="white"/>
<path d="M24.7239 85.4554C24.306 85.4554 23.8649 85.3393 23.4934 85.1072L2.90023 72.2219C2.22694 71.804 1.80904 71.0611 1.80904 70.2717V48.2855C1.80904 47.4497 2.27338 46.6604 3.01631 46.2657C3.75924 45.8478 4.6647 45.871 5.3612 46.3353L25.9544 59.2206C26.6277 59.6385 27.0456 60.3814 27.0456 61.194V83.1802C27.0456 84.016 26.5812 84.8054 25.8383 85.2C25.4901 85.3858 25.0954 85.5019 24.7239 85.5019V85.4554ZM6.45238 68.9716L22.4022 78.9315V62.4245L6.45238 52.4645V68.9716Z" fill="white"/>
<path d="M43.0417 52.5298C42.6238 52.5298 42.2059 52.4137 41.8112 52.1816L22.4253 40.0625L5.31457 50.2778C4.22339 50.9279 2.78395 50.5796 2.13389 49.4652C1.48382 48.374 1.83207 46.9346 2.94647 46.2845L21.2876 35.3495C22.0306 34.9084 22.9593 34.9084 23.7022 35.3727L44.2954 48.2347C45.3866 48.908 45.7116 50.3474 45.0383 51.4386C44.5972 52.1351 43.831 52.5298 43.0649 52.5298H43.0417Z" fill="white"/>
</svg>
