<svg width="104" height="87" viewBox="0 0 104 87" fill="none" xmlns="http://www.w3.org/2000/svg">
<path d="M102.403 34.8109V61.1246C102.403 67.7143 97.0421 73.0976 90.4302 73.0976H70.0359L59.2915 85.5397C58.7331 86.1652 57.9736 86.5002 57.1694 86.5002C56.879 86.5002 56.5663 86.4556 56.2759 86.3439C55.2037 85.9865 54.4442 85.0036 54.3772 83.8644L53.7518 73.0976H48.4801C41.8681 73.0976 36.5071 67.7143 36.5071 61.1246V50.76H42.0915V61.1246C42.0915 64.654 44.9507 67.5132 48.4801 67.5132H56.3876C57.8619 67.5132 59.0905 68.6524 59.1798 70.1491L59.5595 76.6717L66.6406 68.4737C67.1767 67.8706 67.9585 67.5132 68.7627 67.5132H90.4302C93.9595 67.5132 96.8188 64.654 96.8188 61.1246V34.8109C96.8188 31.2815 93.9595 28.4223 90.4302 28.4223H66.6629V22.8379H90.4302C97.0421 22.8379 102.403 28.1989 102.403 34.8109Z" fill="white"/>
<path d="M82.2323 48.323L71.2198 61.4129C70.2816 62.5297 68.584 62.5297 67.6458 61.4129L58.264 50.2217C63.1336 48.6804 66.6629 44.1458 66.6629 38.7848V36.0596C67.4224 36.4394 68.0925 36.9308 68.6957 37.5339C68.9861 37.8243 69.2318 38.1147 69.4551 38.4497C69.6785 38.1147 69.9242 37.8243 70.2146 37.5339C72.6494 35.0768 76.4915 34.362 79.5741 35.9703C84.4437 38.4944 85.3819 44.5256 82.2323 48.323Z" fill="#EF6402"/>
<path d="M54.69 0.5H12.7398C6.12789 0.5 0.766846 5.86104 0.766846 12.473V38.7868C0.766846 45.3987 6.12789 50.7597 12.7398 50.7597H15.264L26.0084 63.2018C26.5668 63.8273 27.3263 64.1623 28.1305 64.1623C28.4209 64.1623 28.7336 64.1177 29.024 64.006C30.0962 63.6486 30.8557 62.6657 30.9227 61.5265L31.5481 50.7597H54.69C55.9409 50.7597 57.1471 50.5587 58.264 50.2236C63.1336 48.6823 66.663 44.1478 66.663 38.7868V12.473C66.663 5.86104 61.3019 0.5 54.69 0.5ZM61.0785 38.7868C61.0785 42.3161 58.2193 45.1753 54.69 45.1753H28.9123C27.438 45.1753 26.2094 46.3145 26.1201 47.8112L25.7404 54.3338L18.637 46.1358C18.1232 45.5327 17.3414 45.1753 16.5372 45.1753H12.7398C9.21048 45.1753 6.35126 42.3161 6.35126 38.7868V12.473C6.35126 8.94364 9.21048 6.08442 12.7398 6.08442H54.69C58.2193 6.08442 61.0785 8.94364 61.0785 12.473V38.7868Z" fill="white"/>
<path d="M34.2066 13.1445H34.8097C35.7255 13.4573 36.284 14.1274 36.5967 15.0209C36.8424 15.6463 36.9318 16.3165 36.9541 16.9866C37.0211 18.5726 36.7307 20.1139 36.3286 21.6552C36.2616 21.9456 36.2616 21.9456 36.552 21.9456C38.406 21.9456 40.2601 21.9456 42.1141 21.9456C43.0076 21.9456 43.6331 22.638 43.5437 23.5315C43.499 24.0006 43.432 24.4697 43.365 24.9388C43.0299 26.9269 42.5385 28.8926 41.9801 30.8583C41.7344 31.7741 41.511 32.7123 41.1536 33.6058C40.9749 34.0302 40.7738 34.4323 40.4834 34.7897C40.3047 35.0131 40.0814 35.1695 39.7463 35.1695C36.8647 35.1695 33.9608 35.1695 31.0793 35.1695C30.4985 35.1695 29.9624 34.9908 29.4933 34.678C29.0689 34.3876 28.8455 33.9856 28.8455 33.4718C28.8455 29.7414 28.8455 26.011 28.8455 22.2583C28.8455 22.0573 28.9125 21.9232 29.0689 21.8115C30.3868 20.7393 31.5037 19.4884 32.3302 17.9695C32.9557 16.8302 33.2014 15.624 33.2684 14.3508C33.2907 13.7253 33.5811 13.3232 34.1842 13.1669L34.2066 13.1445Z" fill="#EF6402"/>
<path d="M27.4383 28.7136C27.4383 30.6347 27.4383 32.5334 27.4383 34.4544C27.4383 34.9682 27.2596 35.1692 26.7235 35.1692C25.7406 35.1692 24.7577 35.1692 23.7749 35.1692C23.2835 35.1692 23.0154 34.9235 22.9707 34.4321C22.9037 33.5386 22.859 32.6451 22.792 31.7515C22.7027 30.5006 22.6357 29.2497 22.5463 27.9988C22.5016 27.217 22.457 26.4352 22.4123 25.6757C22.3676 24.8492 22.3006 24.0004 22.2559 23.1739C22.2559 22.9952 22.2559 22.8388 22.2559 22.6601C22.2559 22.258 22.5686 21.9453 22.9707 21.9453C24.177 21.9453 25.3832 21.9453 26.5894 21.9453C27.0585 21.9453 27.4159 22.3474 27.4383 22.8388C27.4383 23.3302 27.4383 23.8217 27.4383 24.3131C27.4383 25.7874 27.4383 27.2393 27.4383 28.7136Z" fill="#EF6402"/>
</svg>
