<svg width="18" height="18" viewBox="0 0 18 18" fill="none" xmlns="http://www.w3.org/2000/svg">
<g clip-path="url(#clip0_50_1558)">
<path d="M15.0563 5.42095C15.0563 6.35165 15.0563 7.22391 15.0563 8.09618C15.0563 10.5591 15.0581 13.0221 15.0555 15.4855C15.0542 16.7483 14.2521 17.7242 13.02 17.9648C12.8808 17.9919 12.7356 17.9979 12.5929 17.9983C9.214 18 5.83465 18.0013 2.45573 17.9992C1.08999 17.9983 0.00521027 16.9005 0.00649912 15.5405C0.00907681 12.1816 0.0219652 8.82364 5.48958e-05 5.46563C-0.00896701 4.09107 1.09514 2.93865 2.50256 2.94423C5.78868 2.95712 9.07481 2.94853 12.3605 2.94896C12.4164 2.94896 12.4722 2.94896 12.5276 2.94896C12.5435 3.03662 12.4782 3.05724 12.4413 3.09377C12.0155 3.51873 11.5816 3.93509 11.1666 4.37036C11.0386 4.50443 10.911 4.54396 10.7361 4.54353C8.02268 4.53966 5.30966 4.54782 2.59622 4.53493C2.02268 4.53236 1.5935 4.89974 1.59693 5.52665C1.61369 8.8202 1.61455 12.1142 1.59693 15.4077C1.5935 16.0789 2.04674 16.4136 2.60008 16.4106C5.90038 16.3939 9.20069 16.402 12.501 16.4016C13.1145 16.4016 13.4586 16.0583 13.4582 15.4473C13.4577 12.7192 13.4582 9.99109 13.4526 7.26301C13.4526 7.08512 13.4994 6.95837 13.6304 6.8329C14.0485 6.432 14.4523 6.01563 14.8617 5.60571C14.9111 5.5563 14.9631 5.50903 15.0555 5.42138L15.0563 5.42095Z" fill="#EB5D02"/>
<path d="M15.245 1.60866C15.0521 1.60866 14.9262 1.60866 14.7999 1.60866C13.3607 1.60866 11.9215 1.61124 10.4823 1.60866C9.91216 1.6078 9.54269 1.18027 9.63764 0.644877C9.70767 0.253002 10.032 0.00163574 10.4788 0.000346678C11.1447 -0.00137207 11.8106 0.00120605 12.4765 0.00120605C14.0231 0.00120605 15.5698 0.000346678 17.1164 0.000776365C17.6667 0.000776365 17.9975 0.309721 17.9988 0.856712C18.0031 3.08378 17.9988 5.31084 17.9975 7.53791C17.9975 7.86318 17.8777 8.1283 17.5799 8.28213C17.2968 8.42865 17.0115 8.41447 16.7452 8.23572C16.4913 8.06556 16.3972 7.81162 16.3972 7.51513C16.3972 6.01854 16.3972 4.52194 16.3972 3.02491C16.3972 2.95444 16.3972 2.88354 16.3972 2.79718C16.2816 2.81952 16.2322 2.90245 16.1708 2.96347C14.0536 5.07838 11.9378 7.19416 9.82194 9.30994C8.73416 10.3979 7.64766 11.4872 6.55816 12.5738C6.24626 12.8849 5.74748 12.8845 5.43601 12.5816C5.11337 12.2675 5.11294 11.7639 5.44374 11.4287C5.99107 10.874 6.54226 10.3231 7.09346 9.77228C7.98405 8.88154 8.87636 7.99295 9.76695 7.10221C11.5383 5.33018 13.3091 3.55729 15.08 1.78441C15.1195 1.74487 15.1569 1.70276 15.2454 1.60823L15.245 1.60866Z" fill="#EB5D02"/>
</g>
<defs>
<clipPath id="clip0_50_1558">
<rect width="18" height="18" fill="white"/>
</clipPath>
</defs>
</svg>
