<svg width="104" height="87" viewBox="0 0 104 87" fill="none" xmlns="http://www.w3.org/2000/svg">
<path d="M75.5745 10.5923C77.1786 10.5923 78.6629 11.526 79.3572 13.0104C80.7219 15.9791 81.1529 19.714 80.6262 24.1193C80.0755 28.1893 79.0221 32.1876 77.5137 36.0182C79.453 40.6629 80.7698 45.547 81.3923 50.5269C81.5359 51.5085 81.5838 52.4901 81.512 53.4717V53.7111C81.3444 56.3686 80.4346 58.9304 78.8784 61.0851C74.0901 67.9085 67.0991 72.8883 59.1027 75.2585C56.7564 75.9289 54.3622 76.312 51.9202 76.3838H51.4174C51.4174 76.3838 51.2737 76.3838 51.2259 76.3838C43.373 76.2162 32.2162 72.1222 24.2916 61.109C22.7353 58.9304 21.8256 56.3447 21.658 53.6871C21.658 53.6153 21.658 53.5196 21.658 53.4477C21.6101 52.4901 21.658 51.5085 21.7777 50.5508C22.4002 45.7146 23.6451 40.9742 25.4886 36.4492C23.8845 32.4988 22.7832 28.333 22.2086 24.0953C21.7059 19.714 22.1368 15.9791 23.4775 13.0582C24.1718 11.5499 25.6562 10.6401 27.2843 10.6401C27.5476 10.6401 27.8349 10.6641 28.0983 10.712C29.5587 10.9993 31.9768 11.8612 35.161 14.399C37.7467 16.5058 40.093 18.9 42.1759 21.4857C45.1447 20.7196 48.1853 20.3365 51.2498 20.3365H51.8962C54.865 20.3365 57.8098 20.7196 60.6828 21.4139C62.7418 18.8521 65.0641 16.5058 67.6259 14.399C69.6609 12.6273 72.1029 11.3584 74.7365 10.688C74.9999 10.6401 75.2872 10.6162 75.5505 10.6162M75.5505 2.52394C74.7605 2.52394 73.9464 2.59577 73.1564 2.76336C73.0127 2.7873 72.893 2.81124 72.7494 2.85912C68.9426 3.81679 65.3754 5.68423 62.4066 8.22204C60.7546 9.58672 59.1505 11.0711 57.6662 12.6273C55.7748 12.3879 53.8594 12.2442 51.9441 12.2442H51.2737C49.2387 12.2442 47.2276 12.3879 45.2165 12.6512C43.6843 11.0472 42.0323 9.53883 40.3085 8.12628C40.2845 8.10234 40.2367 8.07839 40.2127 8.03051C36.6215 5.15752 33.0781 3.38584 29.6784 2.73942C28.9123 2.57182 28.0983 2.5 27.3082 2.5C22.5438 2.5 18.1625 5.30117 16.1514 9.6346C14.1643 13.9441 13.4939 19.1155 14.1882 25.0051C14.1882 25.053 14.1882 25.1009 14.1882 25.1488C14.7149 28.9794 15.6007 32.7622 16.8457 36.4253C15.3613 40.6629 14.3318 45.0442 13.7572 49.4974C13.5657 50.7663 13.4939 52.1309 13.5657 53.4956C13.5657 53.759 13.5657 54.0223 13.5897 54.2857C13.853 58.4276 15.2656 62.4258 17.6837 65.8255C27.2843 79.185 41.0507 84.2127 50.8189 84.5C51.0583 84.5 51.2737 84.5 51.4413 84.5C51.5132 84.5 51.585 84.5 51.6808 84.5H51.8723H51.9441C52.0159 84.5 52.1117 84.5 52.1835 84.5C55.2959 84.4042 58.3844 83.9254 61.3532 83.0635C71.1213 80.1905 79.6685 74.0615 85.5102 65.7777C87.9044 62.4258 89.3409 58.4276 89.6043 54.2378C89.6043 54.0702 89.6043 53.9026 89.6043 53.735C89.6761 52.2985 89.6043 50.862 89.4127 49.4255C88.8142 44.8288 87.7129 40.3038 86.1567 35.9464C87.3298 32.4749 88.1678 28.8836 88.6466 25.2206C88.6466 25.1727 88.6466 25.1248 88.6466 25.0769C89.3409 19.1634 88.6945 13.968 86.6834 9.6346C84.6723 5.30117 80.291 2.5 75.5266 2.5L75.5505 2.52394Z" fill="white"/>
<path d="M30.8516 40.6151V39.6814C30.8995 39.3941 30.9474 39.0829 31.0431 38.8195C31.6417 36.9042 33.5091 35.5395 35.592 35.6592C36.3821 35.7071 37.1004 35.9226 37.7468 36.3296C38.0341 36.4972 38.2974 36.7127 38.5129 36.9281C38.5847 37 38.6566 37.0239 38.7284 36.9281C38.7284 36.9042 38.7763 36.8803 38.8002 36.8563C39.9494 35.8268 41.2901 35.4198 42.7985 35.7311C45.2645 36.2338 46.8207 38.628 46.3179 41.094C46.1503 41.9319 45.7912 42.6981 45.1447 43.2727C43.0379 45.2359 40.9071 47.1512 38.8002 49.1144C38.6326 49.2581 38.6326 49.2581 38.465 49.1144C36.3821 47.223 34.3231 45.3316 32.2402 43.4403C31.7853 43.0332 31.4501 42.5305 31.1868 41.9559C30.9953 41.5249 30.8995 41.07 30.8277 40.6151H30.8516Z" fill="#EF6402"/>
<path d="M57.1395 40.6151V39.6814C57.1873 39.3941 57.2352 39.0829 57.331 38.8195C57.9295 36.9042 59.797 35.5395 61.8799 35.6592C62.67 35.7071 63.3882 35.9226 64.0346 36.3296C64.3219 36.4972 64.5853 36.7127 64.8008 36.9281C64.8726 37 64.9444 37.0239 65.0162 36.9281C65.0162 36.9042 65.0641 36.8803 65.0881 36.8563C66.2373 35.8268 67.578 35.4198 69.0863 35.7311C71.5523 36.2338 73.1085 38.628 72.6057 41.094C72.4381 41.9319 72.079 42.6981 71.4326 43.2727C69.3257 45.2359 67.1949 47.1512 65.0881 49.1144C64.9205 49.2581 64.9205 49.2581 64.7529 49.1144C62.67 47.223 60.611 45.3316 58.5281 43.4403C58.0732 43.0332 57.738 42.5305 57.4746 41.9559C57.2831 41.5249 57.1873 41.07 57.1155 40.6151H57.1395Z" fill="#EF6402"/>
</svg>
